<?xml version="1.0" encoding="utf-8"?>
<!-- Generator: Adobe Illustrator 18.1.1, SVG Export Plug-In . SVG Version: 6.00 Build 0)  -->
<svg version="1.1" id="Layer_1" xmlns="http://www.w3.org/2000/svg" xmlns:xlink="http://www.w3.org/1999/xlink" x="0px" y="0px"
	 width="64px" height="64px" viewBox="0 0 64 64" enable-background="new 0 0 64 64" xml:space="preserve">
<g>
	<path d="M54.7,9.3C48.5,3.1,40.9,0,31.9,0C23.1,0,15.6,3.1,9.4,9.3C3.1,15.7,0,23.2,0,32c0,8.8,3.1,16.3,9.4,22.6
		c6.4,6.3,13.9,9.4,22.5,9.4c8.8,0,16.4-3.2,22.9-9.5C61,48.5,64,41,64,32C64,23,60.9,15.5,54.7,9.3z M13.5,50.4
		C8.4,45.2,5.8,39.1,5.8,32c0-7,2.6-13.2,7.8-18.6c5-5.1,11.2-7.7,18.5-7.7c7.2,0,13.4,2.6,18.5,7.7c5.1,5.1,7.7,11.3,7.7,18.6
		c0,7.4-2.5,13.5-7.5,18.3c-5.3,5.2-11.5,7.8-18.6,7.8C24.9,58.2,18.7,55.6,13.5,50.4z"/>
	<path d="M32,20.3c3,0,4.5-1.5,4.5-4.5c0-3-1.5-4.5-4.5-4.5s-4.5,1.5-4.5,4.5C27.5,18.8,29,20.3,32,20.3z"/>
	<path d="M38.6,22H25.4c-0.6,0-1.1,0.2-1.5,0.6c-0.4,0.4-0.6,0.9-0.6,1.5v13.1H27v15.5H37V37.1h3.7V24.1c0-0.6-0.2-1.1-0.6-1.5
		C39.6,22.2,39.1,22,38.6,22z"/>
</g>
</svg>
