<?xml version="1.0" encoding="utf-8"?>
<!-- Generator: Adobe Illustrator 18.1.1, SVG Export Plug-In . SVG Version: 6.00 Build 0)  -->
<svg version="1.1" id="Layer_1" xmlns="http://www.w3.org/2000/svg" xmlns:xlink="http://www.w3.org/1999/xlink" x="0px" y="0px"
	 width="64px" height="64px" viewBox="0 0 64 64" enable-background="new 0 0 64 64" xml:space="preserve">
<g>
	<path d="M61.7,19.7c-1.6-3.9-3.8-7.3-6.9-10.3C48.5,3.1,40.9,0,31.9,0C23.1,0,15.6,3.1,9.5,9.3C6.4,12.4,4,15.9,2.4,19.8
		C0.8,23.7,0,27.8,0,32c0,4.3,0.8,8.3,2.4,12.2c1.6,3.8,3.9,7.3,7,10.4c3.1,3.1,6.5,5.4,10.4,7c3.9,1.6,7.9,2.4,12.1,2.4
		c4.2,0,8.3-0.8,12.3-2.5c4-1.6,7.5-4,10.6-7.1c3-2.9,5.3-6.3,6.8-10.1C63.2,40.5,64,36.4,64,32C64,27.7,63.2,23.6,61.7,19.7z
		 M42,56.1c-3.2,1.3-6.5,2-10,2c-3.5,0-6.8-0.7-9.9-2c-3.2-1.3-6-3.2-8.5-5.7c-2.5-2.5-4.4-5.3-5.8-8.5c-1.4-3.2-2-6.5-2-9.9
		c0-3.5,0.7-6.8,2-10c1.4-3.2,3.3-6,5.8-8.6c5-5.1,11.1-7.7,18.5-7.7c7.2,0,13.4,2.6,18.6,7.7c2.5,2.5,4.4,5.3,5.7,8.5
		c1.3,3.2,1.9,6.5,1.9,10.1c0,7.4-2.5,13.5-7.5,18.3C48.2,52.9,45.2,54.8,42,56.1z"/>
	<path d="M23.8,37.7c-1.4,0-2.5-0.5-3.2-1.5c-0.7-1-1.1-2.4-1.1-4.1c0-3.8,1.4-5.7,4.3-5.7c0.6,0,1.2,0.2,1.9,0.6
		c0.7,0.4,1.2,1,1.7,2l4.3-2.2c-1.7-3.1-4.6-4.6-8.5-4.6c-2.7,0-4.9,0.9-6.7,2.7c-1.8,1.8-2.7,4.2-2.7,7.3c0,3.1,0.9,5.6,2.6,7.3
		c1.8,1.8,4.1,2.6,6.9,2.6c1.8,0,3.4-0.4,4.9-1.3c1.5-0.9,2.6-2.1,3.5-3.7l-3.9-2C27,36.7,25.7,37.7,23.8,37.7z"/>
	<path d="M42.3,37.7c-1.4,0-2.5-0.5-3.2-1.5c-0.7-1-1.1-2.4-1.1-4.1c0-3.8,1.4-5.7,4.3-5.7c0.6,0,1.2,0.2,1.9,0.6
		c0.7,0.4,1.2,1,1.7,2l4.2-2.2c-1.7-3.1-4.5-4.6-8.5-4.6c-2.7,0-4.9,0.9-6.7,2.7c-1.8,1.8-2.7,4.2-2.7,7.3c0,3.1,0.9,5.6,2.6,7.3
		c1.7,1.8,4,2.6,6.9,2.6c1.8,0,3.4-0.4,4.9-1.3c1.5-0.9,2.7-2.1,3.5-3.7l-4-2C45.5,36.7,44.1,37.7,42.3,37.7z"/>
</g>
</svg>
