<svg xmlns="http://www.w3.org/2000/svg" viewBox="0 0 216.308 44.969"><title>Asset 1</title><path d="M64.042,30.907a8.153,8.153,0,0,0,3.1.691,11.1,11.1,0,0,0,4.783-.885,5.762,5.762,0,0,0,2.684-2.474,8.445,8.445,0,0,0,.838-3.976,7.441,7.441,0,0,0-.917-3.948,6.468,6.468,0,0,0-3.106-2.761,16.157,16.157,0,0,0-5.465-.706,7.156,7.156,0,0,0-2.223.231v3.157l-.033,3.8.079,5.9a3.122,3.122,0,0,0,.257.976m-.3-16.337a16.351,16.351,0,0,0,2.406.154A9.932,9.932,0,0,0,71.971,13.3c1.316-.947,1.967-2.586,1.967-4.913a5.218,5.218,0,0,0-1.871-4.1c-1.244-1.093-3.129-1.64-5.642-1.64a19.331,19.331,0,0,0-2.878.282q0,.592.063,1.692c.088,1.455.129,3.485.129,6.1l-.033,2.151c0,.378.016.945.033,1.7M51.785,34.034l.05-2.052c.414-.1.9-.195,1.482-.284a11.049,11.049,0,0,0,2.723-.658A3.669,3.669,0,0,0,56.5,29.9a32.829,32.829,0,0,0,.207-4.225l-.055-10.9c0-1.127-.055-4.076-.186-8.849a8.568,8.568,0,0,0-.248-2.388.729.729,0,0,0-.262-.253,3.231,3.231,0,0,0-1.543-.332c-.322-.019-1.158-.114-2.513-.281L51.835.846,57.581.715,65.962.438,66.975.413c.2-.014.4-.027.6-.027.174,0,.62.014,1.359.027H70.59A15.5,15.5,0,0,1,74.812,1a11.511,11.511,0,0,1,2.1.855A8.183,8.183,0,0,1,79.189,3.53,6.548,6.548,0,0,1,80.606,5.8a7.64,7.64,0,0,1,.467,2.665,5.764,5.764,0,0,1-.686,2.811,7.444,7.444,0,0,1-2.111,2.293,23.73,23.73,0,0,1-3.31,1.692,10.7,10.7,0,0,1,5.9,3.193,7.625,7.625,0,0,1,2.017,5.168,10.945,10.945,0,0,1-.622,3.541,7.168,7.168,0,0,1-1.572,2.569A10.851,10.851,0,0,1,77.6,32.085,17.894,17.894,0,0,1,73.1,33.4a27.981,27.981,0,0,1-4.366.249l-4.355-.1q-2.763,0-6.595.251c-.71.04-2.715.114-6,.231" fill="#fff"/><path d="M82.855.617q1.46.078,2.54.229a34.654,34.654,0,0,0,4.7.286q.917,0,4.748-.159,5.709-.226,10.325-.227l4.648-.053a40.753,40.753,0,0,1,4.618.384,2,2,0,0,1,.454,1.385V7.747L114.95,8.8c0,.108-.018.258-.031.463l-1.053.05c-.132,0-.43-.017-.873-.05-.157-.34-.352-.849-.609-1.511l-1.035-1.823a11.9,11.9,0,0,0-1.632-2.361,7.037,7.037,0,0,0-1.653-.2c-.164-.016-.687-.061-1.552-.132-1.6-.133-3.309-.2-5.137-.2-2.086,0-3.943.032-5.589.1q-.076.636-.077,5.052l.026,4.308v3.226a8.781,8.781,0,0,0,1.1.085c3.067,0,5.258-.064,6.553-.181a6.377,6.377,0,0,0,2.421-.5A2.645,2.645,0,0,0,106.629,14a33.042,33.042,0,0,0,.9-3.767l.332-.025,1.489.025c.07,1.52.1,2.673.1,3.46,0,1.795-.007,2.949-.034,3.465s-.039.915-.039,1.2q0,.691.073,2.218c.061,1.018.09,1.776.09,2.27v.563h-1.826c-.081-.273-.2-.836-.393-1.692a10.367,10.367,0,0,0-.915-2.97,1.859,1.859,0,0,0-1.035-.7,20.292,20.292,0,0,0-3.8-.18c-2.587,0-4.541.068-5.836.2v.873c0,2.033.041,3.727.1,5.079l-.052,5.537a1.36,1.36,0,0,0,.7,1.337q1.047.533,6.434.538a29.286,29.286,0,0,0,6.045-.538,5.953,5.953,0,0,0,3.022-1.717,12.757,12.757,0,0,0,2.9-4.825c.538-.051.972-.075,1.318-.075.182,0,.47.007.836.024-.046.427-.085.788-.121,1.081l-.156.767-.933,4.848-.446,2.922q-1.68.076-2.645.078-1.441,0-7.677-.254-4.395-.179-10.573-.181-3.088,0-7.576.254H85.841l-3.11.1v-1.77a15.951,15.951,0,0,1,1.946-.283,12.357,12.357,0,0,0,3.7-.819,5.177,5.177,0,0,0,.29-1.87c0-.291-.022-.788-.036-1.491l.036-.8-.085-9.663.029-2.9-.135-4.1.023-2.9-.226-3.179c0-.085-.022-.255-.055-.51a1.248,1.248,0,0,0-.766-.359c-.192-.033-.447-.087-.769-.154a16.833,16.833,0,0,0-2.82-.36c-.326-.019-.7-.054-1.132-.1Z" fill="#fff"/><path d="M129.069,15.644c.813.035,1.417.052,1.787.052,2.909,0,4.969-.517,6.2-1.564a5.257,5.257,0,0,0,1.814-4.182,10.079,10.079,0,0,0-.453-3.035A5.347,5.347,0,0,0,137.3,4.8a5.908,5.908,0,0,0-2.478-1.514,12.318,12.318,0,0,0-3.611-.386,13.438,13.438,0,0,0-2.019.132l-.049.486.049,3.462-.073,2.1.024,2.8c-.042.785-.07,1.8-.078,3.051ZM117.526,32.236a6.037,6.037,0,0,1,1.976-.521,10.981,10.981,0,0,0,2.357-.554c.083-.342.137-.587.156-.739.036-.24.05-1.061.05-2.462l-.03-5.722.109-3.078-.052-2.378.052-1.39c.048-1.862.069-3.611.069-5.231,0-3.56-.032-5.833-.121-6.823L120.58,3.03q-2.087-.13-2.77-.26l-.048-1.542.095-.282a15.054,15.054,0,0,1,2.358-.2c.389,0,1.2-.005,2.386-.03,1.235.107,1.9.158,2,.158L125.96.8,129.167.64a63.35,63.35,0,0,1,6.337-.3,12.353,12.353,0,0,1,8.362,2.676,7.967,7.967,0,0,1,3.1,6.144,7.425,7.425,0,0,1-1.674,4.705,10.218,10.218,0,0,1-5.151,3.195c.2.358.477.774.813,1.254.715,1.027,1.3,1.9,1.741,2.619l4.085,6.638a20.45,20.45,0,0,0,2.023,3.1,6.3,6.3,0,0,0,1.962.986,8.06,8.06,0,0,1,1.766.871,2.282,2.282,0,0,1,.151.771c0,.152-.009.349-.015.592h-.692l-.516.023-1.339-.18h-1.048a13.668,13.668,0,0,0-2.032-.123l-2.564-.028c-.19,0-.782.061-1.783.181-.481.047-.845.094-1.115.128l-.871-1.694c-.714-1.283-1.224-2.238-1.514-2.877q-1.129-2.482-3.877-7.922a9.523,9.523,0,0,0-1.8-2.846,4.77,4.77,0,0,0-2.637-.538c-.341,0-.923.017-1.74.05a16.761,16.761,0,0,0-.078,1.77l.127,5.7-.157,4.819a5.726,5.726,0,0,0,1.872.668,21.037,21.037,0,0,1,3.434.972,13.48,13.48,0,0,1-.095,1.9c-.328-.018-.534-.03-.616-.03l-1.053.053q-5.517-.488-6.531-.488c-.45,0-.772.01-.96.026l-3.541.232a27.663,27.663,0,0,1-2.95.177h-1.1c-.034-.426-.056-.7-.056-.823a5.637,5.637,0,0,1,.079-.795" fill="#fff"/><path d="M165.332,19.388q6,.078,7.073.077l.64-.025q-.762-2.275-2-5.322c-.812-2.023-1.481-3.569-2-4.627ZM153.272,33.8l.055-1.741a15.091,15.091,0,0,1,1.713-.386,7.884,7.884,0,0,0,2.4-.691,4.465,4.465,0,0,0,1.038-1.491l5.187-13.553L169.73,0h2.786l.236.463,4.456,10.57q1.5,3.353,2.715,6.52T182,22.726c.348.8.811,2.007,1.415,3.614a33.373,33.373,0,0,0,1.4,3.283,4.365,4.365,0,0,0,.77,1.259,2.893,2.893,0,0,0,1.5.511,9.771,9.771,0,0,1,2.242.589,9.728,9.728,0,0,1,.128,1.256c0,.121-.008.314-.025.565-1.267,0-2.651-.058-4.175-.176s-2.9-.182-4.11-.182c-1.346,0-2.326.016-2.918.053l-4.368.229-1.253.05c0-.6.031-1.172.074-1.715l2.852-.617a5.307,5.307,0,0,0,1.484-.518.784.784,0,0,0,.252-.586,1.926,1.926,0,0,0-.127-.694l-1.016-2.516-2.012-5.023-9.794-.027q-.542,1.231-2.253,6.029a6.891,6.891,0,0,0-.494,1.848,1.139,1.139,0,0,0,.37.949,4.619,4.619,0,0,0,2.252.691c.145.036.759.131,1.821.281.017.617.02,1.045.02,1.284a5.76,5.76,0,0,1-.04.593q-1.6,0-7.6-.439l-1.057.182a22.423,22.423,0,0,1-3.615.3Z" fill="#fff"/><path d="M52.433,42.692V44.3H53.8a2.415,2.415,0,0,0,.571-.043.673.673,0,0,0,.543-.739.763.763,0,0,0-.445-.737,2.068,2.068,0,0,0-.906-.094Zm0-1.931v1.4H53.4c.706,0,1.03,0,1.238-.308a.761.761,0,0,0,.119-.416c0-.668-.638-.678-.884-.678Zm-.584-.546h1.906a3.571,3.571,0,0,1,.636.034A1.172,1.172,0,0,1,55.4,41.4a1.01,1.01,0,0,1-.7,1,1.13,1.13,0,0,1,.855,1.166,1.185,1.185,0,0,1-.531,1.039,2.337,2.337,0,0,1-1.362.24H51.849Z" fill="#fff"/><path d="M57.5,42.37h1.228a2.232,2.232,0,0,0,.564-.046.713.713,0,0,0,.576-.753.8.8,0,0,0-.271-.646,1.306,1.306,0,0,0-.9-.2H57.5Zm0,.509v1.972h-.6V40.214h1.716A2.094,2.094,0,0,1,60,40.5a1.258,1.258,0,0,1,.486,1.07,1.189,1.189,0,0,1-1.094,1.268l1.3,2.016H59.95l-1.26-1.972Z" fill="#fff"/><rect x="61.715" y="40.214" width="0.62" height="4.637" fill="#fff"/><polygon points="65.106 40.751 65.106 44.851 64.484 44.851 64.484 40.751 63.086 40.751 63.086 40.206 66.495 40.206 66.495 40.751 65.106 40.751" fill="#fff"/><rect x="67.273" y="40.214" width="0.617" height="4.637" fill="#fff"/><path d="M70.833,42.708c-.675-.134-1.66-.362-1.66-1.317a1.166,1.166,0,0,1,.424-.9,1.911,1.911,0,0,1,1.248-.394,2.078,2.078,0,0,1,1.243.341,1.569,1.569,0,0,1,.6,1.087l-.621.044a.926.926,0,0,0-.379-.772,1.421,1.421,0,0,0-.829-.22c-.558,0-1.049.228-1.049.728,0,.516.513.633.918.724l.513.131a5.157,5.157,0,0,1,.73.2,1.208,1.208,0,0,1,.8,1.157,1.327,1.327,0,0,1-.592,1.125,2.275,2.275,0,0,1-1.265.326,1.757,1.757,0,0,1-1.969-1.6l.668-.087a1.265,1.265,0,0,0,.379.9,1.418,1.418,0,0,0,.951.3c.647,0,1.16-.315,1.16-.917,0-.541-.431-.686-.887-.777Z" fill="#fff"/><polygon points="77.128 42.727 74.604 42.727 74.604 44.851 73.984 44.851 73.984 40.206 74.604 40.206 74.604 42.186 77.128 42.186 77.128 40.206 77.753 40.206 77.753 44.851 77.128 44.851 77.128 42.727" fill="#fff"/><polygon points="81.631 42.738 81.631 44.308 84.311 44.308 84.311 44.851 81.03 44.851 81.03 40.214 84.231 40.214 84.231 40.761 81.631 40.761 81.631 42.188 83.89 42.188 83.89 42.738 81.631 42.738" fill="#fff"/><path d="M86.156,40.761v3.558h.807a2.075,2.075,0,0,0,1.031-.19,1.651,1.651,0,0,0,.7-1.592c0-.761-.219-1.47-.958-1.7a2.937,2.937,0,0,0-.856-.079Zm-.642-.546h1.448a2.121,2.121,0,0,1,1.784.57,2.564,2.564,0,0,1,.579,1.747,2.485,2.485,0,0,1-.644,1.821,2.14,2.14,0,0,1-1.565.5h-1.6Z" fill="#fff"/><path d="M94.056,40.206V43.17a3.057,3.057,0,0,1-.069.6,1.627,1.627,0,0,1-1.734,1.192,1.75,1.75,0,0,1-1.43-.62,1.8,1.8,0,0,1-.294-1.258v-2.88h.622V43a1.611,1.611,0,0,0,.238,1.087,1.09,1.09,0,0,0,.863.358,1.076,1.076,0,0,0,1.117-.766,3.554,3.554,0,0,0,.054-.7V40.206Z" fill="#fff"/><path d="M99.809,43.17a2.267,2.267,0,0,1-2.3,1.8,2.441,2.441,0,0,1,.1-4.874,2.029,2.029,0,0,1,2.109,1.421l-.632.133a1.235,1.235,0,0,0-.273-.523,1.522,1.522,0,0,0-1.208-.536,1.59,1.59,0,0,0-1.275.584,2.086,2.086,0,0,0-.39,1.327c0,1.145.585,1.957,1.661,1.957a1.476,1.476,0,0,0,1.527-1.367Z" fill="#fff"/><path d="M102.793,42.911l-.679-1.928-.708,1.928Zm.183.523h-1.767l-.524,1.417h-.648l1.765-4.637h.645l1.686,4.637h-.652Z" fill="#fff"/><polygon points="105.999 40.751 105.999 44.851 105.378 44.851 105.378 40.751 103.979 40.751 103.979 40.206 107.38 40.206 107.38 40.751 105.999 40.751" fill="#fff"/><rect x="108.16" y="40.214" width="0.618" height="4.637" fill="#fff"/><path d="M112.278,40.593c-1.166,0-1.672.9-1.672,1.943,0,.978.482,1.947,1.678,1.947,1.243,0,1.658-1.037,1.653-1.991-.008-1.122-.6-1.9-1.659-1.9m-.018,4.376a2.439,2.439,0,1,1,2.35-2.484,2.246,2.246,0,0,1-2.35,2.484" fill="#fff"/><polygon points="119.458 40.214 119.458 44.851 118.903 44.851 116.348 41.079 116.402 44.851 115.829 44.851 115.829 40.214 116.402 40.214 118.927 43.931 118.903 40.214 119.458 40.214" fill="#fff"/><path d="M123.03,42.911l-.671-1.928-.71,1.928Zm.179.523h-1.763l-.518,1.417h-.652l1.759-4.637h.645l1.691,4.637h-.653Z" fill="#fff"/><polygon points="125.757 44.297 128.002 44.297 128.002 44.851 125.135 44.851 125.135 40.206 125.757 40.206 125.757 44.297" fill="#fff"/><path d="M131.5,42.37h1.22a2.239,2.239,0,0,0,.567-.046.71.71,0,0,0,.58-.753.821.821,0,0,0-.269-.646,1.337,1.337,0,0,0-.912-.2H131.5Zm0,.509v1.972h-.609V40.214h1.72a2.067,2.067,0,0,1,1.383.283,1.275,1.275,0,0,1,.5,1.07,1.191,1.191,0,0,1-1.1,1.268l1.3,2.016h-.74l-1.264-1.972Z" fill="#fff"/><polygon points="136.39 42.738 136.39 44.308 139.068 44.308 139.068 44.851 135.786 44.851 135.786 40.214 138.987 40.214 138.987 40.761 136.39 40.761 136.39 42.188 138.646 42.188 138.646 42.738 136.39 42.738" fill="#fff"/><path d="M141.738,42.708c-.672-.134-1.653-.362-1.653-1.317a1.2,1.2,0,0,1,.426-.9,1.906,1.906,0,0,1,1.248-.394,2.09,2.09,0,0,1,1.244.341,1.6,1.6,0,0,1,.6,1.087l-.632.044a.919.919,0,0,0-.378-.772,1.4,1.4,0,0,0-.822-.22c-.553,0-1.056.228-1.056.728,0,.516.521.633.919.724l.509.131a4.161,4.161,0,0,1,.73.2,1.2,1.2,0,0,1,.8,1.157,1.325,1.325,0,0,1-.585,1.125,2.282,2.282,0,0,1-1.262.326,1.759,1.759,0,0,1-1.97-1.6l.667-.087a1.19,1.19,0,0,0,.376.9,1.421,1.421,0,0,0,.95.3c.656,0,1.16-.315,1.16-.917,0-.541-.426-.686-.887-.777Z" fill="#fff"/><polygon points="145.492 42.738 145.492 44.308 148.164 44.308 148.164 44.851 144.892 44.851 144.892 40.214 148.09 40.214 148.09 40.761 145.492 40.761 145.492 42.188 147.753 42.188 147.753 42.738 145.492 42.738" fill="#fff"/><path d="M151.414,42.911l-.672-1.928-.718,1.928Zm.185.523h-1.757l-.526,1.417h-.66l1.766-4.637h.647l1.679,4.637h-.636Z" fill="#fff"/><path d="M154.192,42.37h1.228a2.305,2.305,0,0,0,.569-.046.721.721,0,0,0,.578-.753.836.836,0,0,0-.276-.646,1.333,1.333,0,0,0-.909-.2h-1.19Zm0,.509v1.972h-.61V40.214h1.73a2.106,2.106,0,0,1,1.384.283,1.275,1.275,0,0,1,.482,1.07,1.19,1.19,0,0,1-1.095,1.268l1.3,2.016h-.739l-1.263-1.972Z" fill="#fff"/><path d="M162.708,43.17a2.255,2.255,0,0,1-2.287,1.8,2.442,2.442,0,0,1,.084-4.874,2.024,2.024,0,0,1,2.107,1.421l-.62.133a1.324,1.324,0,0,0-.275-.523,1.537,1.537,0,0,0-1.212-.536,1.6,1.6,0,0,0-1.276.584,2.068,2.068,0,0,0-.389,1.327c0,1.145.59,1.957,1.662,1.957a1.488,1.488,0,0,0,1.534-1.367Z" fill="#fff"/><polygon points="166.803 42.727 164.277 42.727 164.277 44.851 163.662 44.851 163.662 40.206 164.277 40.206 164.277 42.186 166.803 42.186 166.803 40.206 167.425 40.206 167.425 44.851 166.803 44.851 166.803 42.727" fill="#fff"/><path d="M173.021,42.911l-.684-1.928-.7,1.928Zm.184.523H171.43l-.513,1.417h-.659l1.763-4.637h.655l1.682,4.637h-.644Z" fill="#fff"/><path d="M176.67,42.708c-.671-.134-1.653-.362-1.653-1.317a1.153,1.153,0,0,1,.424-.9,1.889,1.889,0,0,1,1.244-.394,2.086,2.086,0,0,1,1.244.341,1.622,1.622,0,0,1,.6,1.087l-.627.044a.955.955,0,0,0-.377-.772,1.432,1.432,0,0,0-.828-.22c-.555,0-1.047.228-1.047.728,0,.516.515.633.917.724l.513.131a4.953,4.953,0,0,1,.73.2,1.2,1.2,0,0,1,.793,1.157,1.34,1.34,0,0,1-.588,1.125,2.266,2.266,0,0,1-1.262.326,1.745,1.745,0,0,1-1.959-1.6l.662-.087a1.166,1.166,0,0,0,.377.9,1.391,1.391,0,0,0,.948.3c.659,0,1.147-.315,1.147-.917,0-.541-.414-.686-.865-.777Z" fill="#fff"/><path d="M181.435,42.708c-.671-.134-1.656-.362-1.656-1.317a1.189,1.189,0,0,1,.418-.9,1.886,1.886,0,0,1,1.245-.394,2.12,2.12,0,0,1,1.253.341,1.578,1.578,0,0,1,.592,1.087l-.624.044a.959.959,0,0,0-.371-.772,1.436,1.436,0,0,0-.83-.22c-.552,0-1.044.228-1.044.728,0,.516.5.633.9.724l.51.131a4.521,4.521,0,0,1,.732.2,1.2,1.2,0,0,1,.806,1.157,1.336,1.336,0,0,1-.594,1.125,2.276,2.276,0,0,1-1.268.326,1.749,1.749,0,0,1-1.957-1.6l.664-.087a1.2,1.2,0,0,0,.369.9,1.442,1.442,0,0,0,.963.3c.645,0,1.148-.315,1.148-.917,0-.541-.43-.686-.879-.777Z" fill="#fff"/><path d="M186.731,40.593c-1.158,0-1.654.9-1.654,1.943,0,.978.475,1.947,1.675,1.947,1.232,0,1.654-1.037,1.654-1.991-.011-1.122-.593-1.9-1.675-1.9m-.012,4.376a2.439,2.439,0,1,1,2.351-2.484,2.264,2.264,0,0,1-2.351,2.484" fill="#fff"/><path d="M194.652,43.17a2.264,2.264,0,0,1-2.279,1.8,2.441,2.441,0,0,1,.081-4.874,2.047,2.047,0,0,1,2.112,1.421l-.635.133a1.143,1.143,0,0,0-.274-.523,1.533,1.533,0,0,0-1.212-.536,1.584,1.584,0,0,0-1.273.584,2.072,2.072,0,0,0-.394,1.327c0,1.145.595,1.957,1.665,1.957a1.473,1.473,0,0,0,1.525-1.367Z" fill="#fff"/><rect x="195.522" y="40.214" width="0.622" height="4.637" fill="#fff"/><path d="M199.65,42.911l-.676-1.928-.7,1.928Zm.185.523h-1.766l-.519,1.417H196.9l1.762-4.637h.647L201,44.851h-.649Z" fill="#fff"/><polygon points="202.866 40.751 202.866 44.851 202.241 44.851 202.241 40.751 200.845 40.751 200.845 40.206 204.247 40.206 204.247 40.751 202.866 40.751" fill="#fff"/><rect x="205.021" y="40.214" width="0.619" height="4.637" fill="#fff"/><path d="M209.14,40.593c-1.17,0-1.672.9-1.672,1.943,0,.978.472,1.947,1.674,1.947,1.248,0,1.664-1.037,1.66-1.991-.008-1.122-.6-1.9-1.662-1.9m-.026,4.376a2.439,2.439,0,1,1,2.353-2.484,2.247,2.247,0,0,1-2.353,2.484" fill="#fff"/><polygon points="216.308 40.214 216.308 44.851 215.755 44.851 213.209 41.079 213.268 44.851 212.687 44.851 212.687 40.214 213.268 40.214 215.781 43.931 215.755 40.214 216.308 40.214" fill="#fff"/><path d="M21.179,28.842a1,1,0,1,0,1-1A1,1,0,0,0,21.179,28.842Z" fill="#fff"/><path d="M19.974,19.946a.6.6,0,0,0,.821.221.6.6,0,1,0-.6-1.037A.6.6,0,0,0,19.974,19.946Z" fill="#fff"/><circle cx="22.178" cy="19.197" r="0.598" fill="#fff"/><circle cx="22.176" cy="12.254" r="1.6" fill="#fff"/><circle cx="22.178" cy="25.924" r="0.598" fill="#fff"/><path d="M19.563,20.364a.6.6,0,0,0-.82.212.614.614,0,0,0,.22.821.6.6,0,0,0,.6-1.034Z" fill="#fff"/><circle cx="18.813" cy="22.56" r="0.601" fill="#fff"/><path d="M19.563,24.764a.6.6,0,0,0-.6-1.042.612.612,0,0,0-.22.82A.6.6,0,0,0,19.563,24.764Z" fill="#fff"/><path d="M18.177,17.619a.993.993,0,1,0,.36-1.357A.992.992,0,0,0,18.177,17.619Z" fill="#fff"/><path d="M22.177,15.284a1,1,0,1,0,1,1A1,1,0,0,0,22.177,15.284Z" fill="#fff"/><path d="M28.12,20.286a1,1,0,1,0-1-1.728,1,1,0,0,0-.365,1.362A1.01,1.01,0,0,0,28.12,20.286Z" fill="#fff"/><path d="M27.115,26.564A1,1,0,1,0,26.75,25.2,1.007,1.007,0,0,0,27.115,26.564Z" fill="#fff"/><circle cx="27.33" cy="13.636" r="1.597" transform="translate(1.834 30.454) rotate(-59.926)" fill="#fff"/><path d="M31.905,18.792a1.6,1.6,0,0,0-1.6-2.768,1.6,1.6,0,0,0,1.6,2.768Z" fill="#fff"/><path d="M23.338,19.349a.6.6,0,1,0,.821-.219A.6.6,0,0,0,23.338,19.349Z" fill="#fff"/><path d="M25.391,21.4a.6.6,0,1,0-.817-.22A.595.595,0,0,0,25.391,21.4Z" fill="#fff"/><path d="M26.14,22.56a.6.6,0,1,0-.6.6A.6.6,0,0,0,26.14,22.56Z" fill="#fff"/><path d="M24.792,24.764a.6.6,0,1,0-.219-.82A.6.6,0,0,0,24.792,24.764Z" fill="#fff"/><circle cx="25.317" cy="17.124" r="0.997" transform="translate(-2.196 30.435) rotate(-59.892)" fill="#fff"/><path d="M17.815,15.018a1.594,1.594,0,1,0-1.59-2.764,1.594,1.594,0,1,0,1.59,2.764Z" fill="#fff"/><circle cx="27.33" cy="31.486" r="1.594" transform="translate(-12.095 17.921) rotate(-30.055)" fill="#fff"/><ellipse cx="25.317" cy="28" rx="0.995" ry="0.999" transform="translate(-10.611 16.418) rotate(-30.013)" fill="#fff"/><path d="M28.451,21.563a1,1,0,1,0,1,1A1,1,0,0,0,28.451,21.563Z" fill="#fff"/><circle cx="16.74" cy="19.421" r="0.998" transform="translate(-8.454 24.182) rotate(-59.941)" fill="#fff"/><path d="M24.383,25.173a.6.6,0,1,0-.224.817A.6.6,0,0,0,24.383,25.173Z" fill="#fff"/><path d="M31.905,26.33a1.6,1.6,0,1,0,.581,2.183A1.613,1.613,0,0,0,31.905,26.33Z" fill="#fff"/><path d="M0,.385v44.35H44.35V.385ZM33.583,8.011a2.221,2.221,0,1,1,0,3.141A2.228,2.228,0,0,1,33.583,8.011Zm-8.8-3.755a2.221,2.221,0,1,1,1.569,2.727A2.219,2.219,0,0,1,24.784,4.256Zm-7.936-1.57a2.225,2.225,0,1,1-1.564,2.722A2.236,2.236,0,0,1,16.849,2.686ZM7.629,8.011a2.221,2.221,0,1,1,0,3.141A2.225,2.225,0,0,1,7.629,8.011ZM2.3,17.237a2.223,2.223,0,1,1,1.576,2.721A2.219,2.219,0,0,1,2.3,17.237ZM5.026,29.46a2.223,2.223,0,1,1,1.568-2.724A2.227,2.227,0,0,1,5.026,29.46Zm5.743,7.653a2.223,2.223,0,1,1,0-3.146A2.222,2.222,0,0,1,10.77,37.113Zm8.81,3.754A2.224,2.224,0,1,1,18,38.144,2.231,2.231,0,0,1,19.579,40.867Zm7.929,1.567a2.222,2.222,0,1,1,1.567-2.721A2.217,2.217,0,0,1,27.508,42.434Zm9.218-5.321a2.224,2.224,0,1,1,0-3.146A2.224,2.224,0,0,1,36.726,37.113Zm-.009-12.931a2.2,2.2,0,0,0-1.134,4.241,2.135,2.135,0,0,0,.877.053,2.188,2.188,0,0,1,.146,2.414,2.212,2.212,0,0,1-2.168,1.083,2.1,2.1,0,0,0-.479-.737,2.2,2.2,0,1,0-3.109,3.1,2.293,2.293,0,0,0,.737.486A2.188,2.188,0,0,1,28.1,36.842a1.989,1.989,0,0,0-.061-.878A2.191,2.191,0,0,0,23.8,37.1a2.319,2.319,0,0,0,.389.79,2.188,2.188,0,0,1-4.027,0,2.366,2.366,0,0,0,.395-.79,2.2,2.2,0,0,0-4.243-1.135,2.057,2.057,0,0,0-.052.878,2.2,2.2,0,0,1-3.5-2.016,2.2,2.2,0,1,0-2.368-3.59,2.15,2.15,0,0,0-.476.737,2.2,2.2,0,0,1-2.166-1.083A2.175,2.175,0,0,1,7.9,28.477a2.162,2.162,0,0,0,.88-.053,2.2,2.2,0,0,0-1.142-4.241,2.174,2.174,0,0,0-.785.4,2.2,2.2,0,0,1,0-4.038,2.074,2.074,0,0,0,.785.394A2.194,2.194,0,0,0,8.779,16.7a2.3,2.3,0,0,0-.88-.054,2.17,2.17,0,0,1-.146-2.411,2.195,2.195,0,0,1,2.166-1.086,2.113,2.113,0,0,0,.476.737,2.2,2.2,0,0,0,3.11-3.1,2.313,2.313,0,0,0-.742-.486,2.2,2.2,0,0,1,3.5-2.02,2.069,2.069,0,0,0,.052.883,2.2,2.2,0,0,0,4.243-1.135,2.38,2.38,0,0,0-.395-.792,2.191,2.191,0,0,1,4.027,0,2.332,2.332,0,0,0-.389.792,2.191,2.191,0,1,0,4.233,1.135,2,2,0,0,0,.061-.883,2.2,2.2,0,0,1,3.491,2.02,2.415,2.415,0,0,0-.737.486,2.2,2.2,0,0,0,3.109,3.1,2.067,2.067,0,0,0,.479-.737,2.208,2.208,0,0,1,2.168,1.086,2.183,2.183,0,0,1-.146,2.411,2.27,2.27,0,0,0-.877.054,2.193,2.193,0,0,0,1.134,4.238,2.1,2.1,0,0,0,.79-.394,2.2,2.2,0,0,1,0,4.038A2.2,2.2,0,0,0,36.717,24.182Zm5.332,3.7a2.221,2.221,0,1,1-1.564-2.721A2.215,2.215,0,0,1,42.049,27.886Zm-1.564-7.928a2.221,2.221,0,1,1,1.564-2.721A2.227,2.227,0,0,1,40.484,19.957Z" fill="#fff"/><path d="M32.486,20.962a1.6,1.6,0,1,0,1.591,1.6A1.607,1.607,0,0,0,32.486,20.962Z" fill="#fff"/><path d="M22.177,31.271a1.6,1.6,0,1,0,1.6,1.6A1.607,1.607,0,0,0,22.177,31.271Z" fill="#fff"/><path d="M12.452,26.33a1.6,1.6,0,1,0,2.182.585A1.6,1.6,0,0,0,12.452,26.33Z" fill="#fff"/><path d="M14.048,16.024a1.6,1.6,0,1,0,.586,2.183A1.592,1.592,0,0,0,14.048,16.024Z" fill="#fff"/><circle cx="11.871" cy="22.559" r="1.596" fill="#fff"/><path d="M21.022,25.774a.611.611,0,0,0-.228-.82.6.6,0,1,0-.6,1.037A.614.614,0,0,0,21.022,25.774Z" fill="#fff"/><circle cx="15.896" cy="22.56" r="0.997" fill="#fff"/><path d="M19.532,27.136A1,1,0,1,0,19.9,28.5.99.99,0,0,0,19.532,27.136Z" fill="#fff"/><path d="M17.815,30.1a1.6,1.6,0,1,0,.59,2.184A1.6,1.6,0,0,0,17.815,30.1Z" fill="#fff"/><path d="M16.24,24.834A1,1,0,1,0,17.6,25.2,1,1,0,0,0,16.24,24.834Z" fill="#fff"/></svg>