<svg xmlns="http://www.w3.org/2000/svg" viewBox="0 0 216.31 44.97"><defs><style>.cls-1{fill:#231f20;}.cls-2{fill:#ea0029;}</style></defs><title>Asset 3</title><g id="Layer_2" data-name="Layer 2"><g id="Layer_1-2" data-name="Layer 1"><path class="cls-1" d="M64,30.91a8.21,8.21,0,0,0,3.11.69,11,11,0,0,0,4.78-.89,5.73,5.73,0,0,0,2.68-2.47,8.5,8.5,0,0,0,.84-4,7.4,7.4,0,0,0-.92-4,6.5,6.5,0,0,0-3.1-2.76,16.34,16.34,0,0,0-5.47-.7,7,7,0,0,0-2.22.23v3.16l0,3.79.08,5.9a3.07,3.07,0,0,0,.25,1m-.3-16.34a16.78,16.78,0,0,0,2.41.15A9.9,9.9,0,0,0,72,13.3c1.32-1,2-2.59,2-4.91a5.25,5.25,0,0,0-1.87-4.11q-1.87-1.64-5.65-1.64a18.23,18.23,0,0,0-2.87.29c0,.39,0,1,.06,1.69q.14,2.17.13,6.1l0,2.15c0,.38,0,1,0,1.7M51.79,34l0-2.05c.42-.1.9-.19,1.49-.28A11.16,11.16,0,0,0,56,31a3.54,3.54,0,0,0,.46-1.14,31.37,31.37,0,0,0,.21-4.22l-.05-10.91q0-1.68-.19-8.85a8.36,8.36,0,0,0-.25-2.38A.8.8,0,0,0,56,3.28,3.38,3.38,0,0,0,54.42,3c-.32,0-1.16-.11-2.51-.28L51.83.85,57.58.72,66,.44l1,0,.61,0,1.36,0h1.65A15.68,15.68,0,0,1,74.81,1a12.13,12.13,0,0,1,2.11.86,8.24,8.24,0,0,1,2.27,1.67A6.53,6.53,0,0,1,80.61,5.8a7.59,7.59,0,0,1,.46,2.66,5.85,5.85,0,0,1-.68,2.82,7.51,7.51,0,0,1-2.11,2.29A25.56,25.56,0,0,1,75,15.26a10.77,10.77,0,0,1,5.9,3.19,7.61,7.61,0,0,1,2,5.17,10.92,10.92,0,0,1-.62,3.54,7,7,0,0,1-1.57,2.57,10.66,10.66,0,0,1-3.09,2.35,17.86,17.86,0,0,1-4.5,1.32,27.48,27.48,0,0,1-4.37.25l-4.35-.1c-1.84,0-4,.09-6.6.25q-1.06.06-6,.23"/><path class="cls-1" d="M82.86.62c1,.05,1.82.13,2.54.23a35.72,35.72,0,0,0,4.69.28c.62,0,2.2,0,4.75-.16q5.72-.23,10.33-.22l4.65-.06a39.58,39.58,0,0,1,4.61.39,2,2,0,0,1,.46,1.38V7.75L115,8.8c0,.1,0,.25,0,.46l-1,.05L113,9.26c-.15-.34-.35-.85-.61-1.51l-1-1.83a12.1,12.1,0,0,0-1.63-2.36,7.83,7.83,0,0,0-1.66-.2l-1.55-.13c-1.6-.13-3.31-.2-5.14-.2-2.08,0-3.94,0-5.58.1-.05.42-.08,2.11-.08,5.05l0,4.31v3.23a9.63,9.63,0,0,0,1.1.08c3.06,0,5.25-.06,6.55-.18a6.48,6.48,0,0,0,2.42-.5,2.69,2.69,0,0,0,.82-1.12,34.41,34.41,0,0,0,.9-3.76l.33,0,1.49,0c.07,1.52.1,2.67.1,3.46,0,1.79,0,2.94,0,3.46s0,.92,0,1.2c0,.47,0,1.21.07,2.22s.09,1.78.09,2.27v.57h-1.83c-.08-.28-.2-.84-.39-1.7a10.46,10.46,0,0,0-.91-3,1.88,1.88,0,0,0-1-.69,20.24,20.24,0,0,0-3.8-.18c-2.59,0-4.54.07-5.83.2V19c0,2,0,3.73.1,5.08l0,5.54a1.36,1.36,0,0,0,.69,1.34c.7.35,2.85.54,6.44.54a29.56,29.56,0,0,0,6-.54,5.92,5.92,0,0,0,3-1.72,12.69,12.69,0,0,0,2.91-4.82,11.91,11.91,0,0,1,1.32-.08l.83,0c0,.43-.08.79-.12,1.09l-.16.76L115.83,31l-.44,2.92c-1.12,0-2,.08-2.65.08q-1.44,0-7.68-.25-4.4-.18-10.57-.18-3.09,0-7.57.25H85.84l-3.11.1V32.16a15,15,0,0,1,2-.28,12.3,12.3,0,0,0,3.69-.82,5.07,5.07,0,0,0,.29-1.87c0-.29,0-.79,0-1.49l0-.8-.08-9.66,0-2.9-.14-4.1,0-2.91-.23-3.18c0-.08,0-.25,0-.51a1.33,1.33,0,0,0-.77-.36l-.77-.15a16.88,16.88,0,0,0-2.82-.36c-.32,0-.7,0-1.13-.1Z"/><path class="cls-1" d="M129.07,15.64c.81,0,1.42.06,1.79.06q4.37,0,6.19-1.57A5.25,5.25,0,0,0,138.87,10a10.07,10.07,0,0,0-.46-3A5.2,5.2,0,0,0,137.3,4.8a6,6,0,0,0-2.47-1.52,12.55,12.55,0,0,0-3.62-.38,12.94,12.94,0,0,0-2,.13l0,.49,0,3.46-.08,2.1,0,2.8c0,.78-.07,1.8-.08,3Zm-11.54,16.6a6.09,6.09,0,0,1,2-.53,10.75,10.75,0,0,0,2.36-.55c.08-.34.14-.59.16-.74s0-1.06,0-2.46l0-5.72.1-3.08,0-2.38,0-1.39c0-1.86.07-3.61.07-5.23,0-3.56,0-5.83-.12-6.82L120.58,3c-1.39-.09-2.31-.17-2.77-.26l0-1.54.1-.28a14.52,14.52,0,0,1,2.35-.2l2.39,0,2,.15L126,.8l3.21-.16q3-.3,6.33-.3A12.4,12.4,0,0,1,143.87,3,8,8,0,0,1,147,9.16a7.43,7.43,0,0,1-1.67,4.7,10.18,10.18,0,0,1-5.16,3.2,14.43,14.43,0,0,0,.82,1.25c.71,1,1.3,1.9,1.74,2.62l4.08,6.64a20.39,20.39,0,0,0,2,3.09,6.11,6.11,0,0,0,2,1,8,8,0,0,1,1.76.87,2.21,2.21,0,0,1,.16.77c0,.15,0,.35,0,.59H152l-.52,0-1.34-.18h-1a13.09,13.09,0,0,0-2-.13l-2.56,0c-.19,0-.78.06-1.78.18-.48,0-.85.09-1.12.12l-.87-1.69c-.71-1.28-1.22-2.24-1.51-2.88-.76-1.65-2-4.29-3.88-7.92a9.83,9.83,0,0,0-1.8-2.85,4.77,4.77,0,0,0-2.63-.53c-.34,0-.93,0-1.74,0a15.08,15.08,0,0,0-.08,1.77l.13,5.69L129,30.34a5.51,5.51,0,0,0,1.87.67,20.86,20.86,0,0,1,3.43,1,13.17,13.17,0,0,1-.09,1.9l-.62,0-1,.06c-3.68-.33-5.85-.49-6.53-.49l-1,0-3.54.24a29.38,29.38,0,0,1-3,.17h-1.1c0-.42,0-.7,0-.82a4.71,4.71,0,0,1,.08-.79"/><path class="cls-1" d="M165.33,19.39q6,.08,7.08.07l.63,0q-.75-2.28-2-5.32c-.81-2-1.48-3.57-2-4.63ZM153.27,33.8l.06-1.74a16.38,16.38,0,0,1,1.71-.38,7.83,7.83,0,0,0,2.4-.7,4.41,4.41,0,0,0,1-1.49l5.18-13.55L169.73,0h2.79l.23.46L177.21,11c1,2.24,1.9,4.42,2.71,6.52s1.5,3.84,2.08,5.18c.34.8.81,2,1.41,3.61a32.44,32.44,0,0,0,1.41,3.28,4.17,4.17,0,0,0,.77,1.26,2.76,2.76,0,0,0,1.5.51,10.22,10.22,0,0,1,2.24.59,8.82,8.82,0,0,1,.13,1.26c0,.12,0,.31,0,.56-1.26,0-2.65,0-4.17-.17s-2.9-.19-4.11-.19-2.33,0-2.92.06l-4.37.23-1.25.05c0-.6,0-1.18.07-1.72l2.86-.61a5.55,5.55,0,0,0,1.48-.52.81.81,0,0,0,.25-.59,1.93,1.93,0,0,0-.12-.69l-1-2.52-2-5-9.8,0q-.54,1.23-2.25,6a6.74,6.74,0,0,0-.49,1.85,1.16,1.16,0,0,0,.37.95,4.62,4.62,0,0,0,2.25.69c.14,0,.76.13,1.82.28,0,.62,0,1,0,1.28s0,.39,0,.6q-1.6,0-7.59-.44l-1.06.18a23.24,23.24,0,0,1-3.62.3Z"/><path class="cls-1" d="M52.43,42.69V44.3H53.8a1.9,1.9,0,0,0,.57,0,.67.67,0,0,0,.54-.74.75.75,0,0,0-.44-.73,1.94,1.94,0,0,0-.91-.1Zm0-1.93v1.4h1c.7,0,1,0,1.24-.31a.78.78,0,0,0,.12-.41c0-.67-.64-.68-.89-.68Zm-.58-.55h1.9a3,3,0,0,1,.64,0,1.16,1.16,0,0,1,1,1.15,1,1,0,0,1-.7,1,1.12,1.12,0,0,1,.86,1.16,1.19,1.19,0,0,1-.53,1,2.37,2.37,0,0,1-1.37.24H51.85Z"/><path class="cls-1" d="M57.5,42.37h1.22a2.13,2.13,0,0,0,.57,0,.71.71,0,0,0,.57-.75.79.79,0,0,0-.27-.65,1.32,1.32,0,0,0-.9-.19H57.5Zm0,.51v2h-.61V40.21h1.72A2.14,2.14,0,0,1,60,40.5a1.27,1.27,0,0,1,.48,1.07,1.2,1.2,0,0,1-1.09,1.27l1.3,2H60l-1.26-2Z"/><rect class="cls-1" x="61.71" y="40.21" width="0.62" height="4.64"/><polygon class="cls-1" points="65.11 40.75 65.11 44.85 64.48 44.85 64.48 40.75 63.09 40.75 63.09 40.21 66.5 40.21 66.5 40.75 65.11 40.75"/><rect class="cls-1" x="67.27" y="40.21" width="0.62" height="4.64"/><path class="cls-1" d="M70.83,42.71c-.67-.14-1.66-.36-1.66-1.32a1.15,1.15,0,0,1,.43-.9,1.9,1.9,0,0,1,1.24-.4,2.08,2.08,0,0,1,1.25.35,1.57,1.57,0,0,1,.6,1.08l-.62,0a.94.94,0,0,0-.38-.77,1.4,1.4,0,0,0-.83-.22c-.56,0-1,.22-1,.72s.51.64.92.73l.51.13a4.73,4.73,0,0,1,.73.2,1.21,1.21,0,0,1,.8,1.16,1.33,1.33,0,0,1-.59,1.12,2.3,2.3,0,0,1-1.27.33,1.77,1.77,0,0,1-2-1.6l.67-.08a1.29,1.29,0,0,0,.38.89,1.42,1.42,0,0,0,1,.3c.65,0,1.16-.31,1.16-.91s-.43-.69-.88-.78Z"/><polygon class="cls-1" points="77.13 42.73 74.6 42.73 74.6 44.85 73.98 44.85 73.98 40.21 74.6 40.21 74.6 42.19 77.13 42.19 77.13 40.21 77.75 40.21 77.75 44.85 77.13 44.85 77.13 42.73"/><polygon class="cls-1" points="81.63 42.74 81.63 44.31 84.31 44.31 84.31 44.85 81.03 44.85 81.03 40.21 84.23 40.21 84.23 40.76 81.63 40.76 81.63 42.19 83.89 42.19 83.89 42.74 81.63 42.74"/><path class="cls-1" d="M86.16,40.76v3.56H87a2.13,2.13,0,0,0,1-.19,1.65,1.65,0,0,0,.7-1.59c0-.76-.22-1.47-1-1.7a2.86,2.86,0,0,0-.85-.08Zm-.65-.55H87a2.14,2.14,0,0,1,1.79.57,2.61,2.61,0,0,1,.58,1.75,2.5,2.5,0,0,1-.65,1.82,2.12,2.12,0,0,1-1.56.5H85.51Z"/><path class="cls-1" d="M94.06,40.21v3a4.25,4.25,0,0,1-.07.6A1.64,1.64,0,0,1,92.25,45a1.74,1.74,0,0,1-1.43-.62,1.78,1.78,0,0,1-.29-1.25V40.21h.62V43a1.64,1.64,0,0,0,.24,1.09,1.22,1.22,0,0,0,2-.41,2.86,2.86,0,0,0,0-.7V40.21Z"/><path class="cls-1" d="M99.81,43.17a2.27,2.27,0,0,1-2.3,1.8,2.22,2.22,0,0,1-2.26-2.44,2.25,2.25,0,0,1,2.36-2.44,2,2,0,0,1,2.11,1.43l-.64.13a1.13,1.13,0,0,0-.27-.52,1.51,1.51,0,0,0-1.21-.54,1.58,1.58,0,0,0-1.27.58,2.09,2.09,0,0,0-.39,1.33c0,1.14.58,2,1.66,2a1.49,1.49,0,0,0,1.53-1.37Z"/><path class="cls-1" d="M102.79,42.91,102.11,41l-.7,1.93Zm.19.52h-1.77l-.53,1.42H100l1.76-4.64h.65l1.68,4.64h-.65Z"/><polygon class="cls-1" points="106 40.75 106 44.85 105.38 44.85 105.38 40.75 103.98 40.75 103.98 40.21 107.38 40.21 107.38 40.75 106 40.75"/><rect class="cls-1" x="108.16" y="40.21" width="0.62" height="4.64"/><path class="cls-1" d="M112.28,40.59c-1.17,0-1.67.9-1.67,1.95s.48,1.94,1.67,1.94,1.66-1,1.66-2c0-1.12-.6-1.9-1.66-1.9m0,4.38a2.44,2.44,0,1,1,2.35-2.48A2.24,2.24,0,0,1,112.26,45"/><polygon class="cls-1" points="119.46 40.21 119.46 44.85 118.9 44.85 116.35 41.08 116.4 44.85 115.83 44.85 115.83 40.21 116.4 40.21 118.93 43.93 118.9 40.21 119.46 40.21"/><path class="cls-1" d="M123,42.91,122.36,41l-.71,1.93Zm.18.52h-1.76l-.52,1.42h-.65L122,40.21h.64l1.69,4.64h-.65Z"/><polygon class="cls-1" points="125.76 44.3 128 44.3 128 44.85 125.14 44.85 125.14 40.21 125.76 40.21 125.76 44.3"/><path class="cls-1" d="M131.5,42.37h1.22a2.05,2.05,0,0,0,.56,0,.7.7,0,0,0,.58-.75.83.83,0,0,0-.27-.65,1.34,1.34,0,0,0-.91-.19H131.5Zm0,.51v2h-.61V40.21h1.72a2.08,2.08,0,0,1,1.38.29,1.28,1.28,0,0,1,.5,1.07,1.2,1.2,0,0,1-1.11,1.27l1.31,2H134l-1.27-2Z"/><polygon class="cls-1" points="136.39 42.74 136.39 44.31 139.07 44.31 139.07 44.85 135.79 44.85 135.79 40.21 138.99 40.21 138.99 40.76 136.39 40.76 136.39 42.19 138.65 42.19 138.65 42.74 136.39 42.74"/><path class="cls-1" d="M141.74,42.71c-.67-.14-1.66-.36-1.66-1.32a1.18,1.18,0,0,1,.43-.9,1.93,1.93,0,0,1,1.25-.4,2.05,2.05,0,0,1,1.24.35,1.59,1.59,0,0,1,.61,1.08l-.63,0a.94.94,0,0,0-.38-.77,1.39,1.39,0,0,0-.82-.22c-.56,0-1.06.22-1.06.72s.52.64.92.73l.51.13a3.91,3.91,0,0,1,.73.2,1.2,1.2,0,0,1,.8,1.16,1.33,1.33,0,0,1-.59,1.12,2.29,2.29,0,0,1-1.26.33,1.76,1.76,0,0,1-2-1.6l.67-.08a1.14,1.14,0,0,0,.37.89,1.42,1.42,0,0,0,.95.3c.66,0,1.16-.31,1.16-.91s-.42-.69-.88-.78Z"/><polygon class="cls-1" points="145.49 42.74 145.49 44.31 148.16 44.31 148.16 44.85 144.89 44.85 144.89 40.21 148.09 40.21 148.09 40.76 145.49 40.76 145.49 42.19 147.75 42.19 147.75 42.74 145.49 42.74"/><path class="cls-1" d="M151.41,42.91,150.74,41,150,42.91Zm.19.52h-1.76l-.52,1.42h-.66l1.76-4.64h.65l1.68,4.64h-.64Z"/><path class="cls-1" d="M154.19,42.37h1.23a2.16,2.16,0,0,0,.57,0,.71.71,0,0,0,.58-.75.84.84,0,0,0-.28-.65,1.36,1.36,0,0,0-.91-.19h-1.19Zm0,.51v2h-.61V40.21h1.73a2.15,2.15,0,0,1,1.39.29,1.27,1.27,0,0,1,.48,1.07,1.2,1.2,0,0,1-1.1,1.27l1.3,2h-.74l-1.26-2Z"/><path class="cls-1" d="M162.71,43.17a2.27,2.27,0,0,1-2.29,1.8,2.22,2.22,0,0,1-2.26-2.44,2.24,2.24,0,0,1,2.34-2.44,2,2,0,0,1,2.11,1.43l-.62.13a1.24,1.24,0,0,0-.27-.52,1.53,1.53,0,0,0-1.22-.54,1.59,1.59,0,0,0-1.27.58,2.09,2.09,0,0,0-.39,1.33c0,1.14.59,2,1.66,2A1.49,1.49,0,0,0,162,43.09Z"/><polygon class="cls-1" points="166.8 42.73 164.28 42.73 164.28 44.85 163.66 44.85 163.66 40.21 164.28 40.21 164.28 42.19 166.8 42.19 166.8 40.21 167.43 40.21 167.43 44.85 166.8 44.85 166.8 42.73"/><path class="cls-1" d="M173,42.91,172.34,41l-.71,1.93Zm.19.52h-1.78l-.51,1.42h-.66L172,40.21h.66l1.68,4.64h-.65Z"/><path class="cls-1" d="M176.67,42.71c-.67-.14-1.65-.36-1.65-1.32a1.15,1.15,0,0,1,.42-.9,1.9,1.9,0,0,1,1.24-.4,2.08,2.08,0,0,1,1.25.35,1.61,1.61,0,0,1,.6,1.08l-.63,0a1,1,0,0,0-.37-.77,1.42,1.42,0,0,0-.83-.22c-.56,0-1,.22-1,.72s.52.64.92.73l.51.13a4.42,4.42,0,0,1,.73.2,1.2,1.2,0,0,1,.79,1.16,1.33,1.33,0,0,1-.59,1.12,2.25,2.25,0,0,1-1.26.33,1.75,1.75,0,0,1-2-1.6l.67-.08a1.14,1.14,0,0,0,.37.89,1.4,1.4,0,0,0,.95.3c.66,0,1.15-.31,1.15-.91s-.42-.69-.87-.78Z"/><path class="cls-1" d="M181.43,42.71c-.67-.14-1.65-.36-1.65-1.32a1.18,1.18,0,0,1,.42-.9,1.87,1.87,0,0,1,1.24-.4,2.08,2.08,0,0,1,1.25.35,1.57,1.57,0,0,1,.6,1.08l-.63,0a.92.92,0,0,0-.37-.77,1.38,1.38,0,0,0-.83-.22c-.55,0-1,.22-1,.72s.5.64.9.73l.51.13a4.15,4.15,0,0,1,.73.2,1.2,1.2,0,0,1,.81,1.16,1.33,1.33,0,0,1-.59,1.12,2.32,2.32,0,0,1-1.27.33,1.75,1.75,0,0,1-2-1.6l.66-.08a1.22,1.22,0,0,0,.37.89,1.46,1.46,0,0,0,1,.3c.64,0,1.14-.31,1.14-.91s-.43-.69-.87-.78Z"/><path class="cls-1" d="M186.73,40.59c-1.16,0-1.65.9-1.65,1.95s.47,1.94,1.67,1.94,1.66-1,1.66-2c0-1.12-.6-1.9-1.68-1.9m0,4.38a2.44,2.44,0,1,1,2.35-2.48A2.26,2.26,0,0,1,186.72,45"/><path class="cls-1" d="M194.65,43.17a2.26,2.26,0,0,1-2.28,1.8,2.22,2.22,0,0,1-2.26-2.44,2.24,2.24,0,0,1,2.34-2.44,2.06,2.06,0,0,1,2.12,1.43l-.64.13a1,1,0,0,0-.27-.52,1.51,1.51,0,0,0-1.21-.54,1.59,1.59,0,0,0-1.28.58,2.09,2.09,0,0,0-.39,1.33c0,1.14.59,2,1.66,2A1.47,1.47,0,0,0,194,43.09Z"/><rect class="cls-1" x="195.52" y="40.21" width="0.62" height="4.64"/><path class="cls-1" d="M199.65,42.91,199,41l-.7,1.93Zm.18.52h-1.76l-.52,1.42h-.65l1.76-4.64h.65L201,44.85h-.65Z"/><polygon class="cls-1" points="202.87 40.75 202.87 44.85 202.24 44.85 202.24 40.75 200.84 40.75 200.84 40.21 204.25 40.21 204.25 40.75 202.87 40.75"/><rect class="cls-1" x="205.02" y="40.21" width="0.62" height="4.64"/><path class="cls-1" d="M209.14,40.59c-1.17,0-1.67.9-1.67,1.95s.47,1.94,1.67,1.94,1.67-1,1.66-2c0-1.12-.59-1.9-1.66-1.9m0,4.38a2.44,2.44,0,1,1,2.36-2.48A2.25,2.25,0,0,1,209.11,45"/><polygon class="cls-1" points="216.31 40.21 216.31 44.85 215.75 44.85 213.21 41.08 213.27 44.85 212.69 44.85 212.69 40.21 213.27 40.21 215.78 43.93 215.75 40.21 216.31 40.21"/><path class="cls-2" d="M21.18,28.84a1,1,0,0,0,1,1,1,1,0,0,0,0-2A1,1,0,0,0,21.18,28.84Z"/><path class="cls-2" d="M20,20a.6.6,0,1,0,.23-.82A.61.61,0,0,0,20,20Z"/><path class="cls-2" d="M22.18,19.8a.6.6,0,0,0,0-1.2.6.6,0,1,0,0,1.2Z"/><path class="cls-2" d="M22.18,13.85a1.6,1.6,0,1,0-1.6-1.6A1.6,1.6,0,0,0,22.18,13.85Z"/><path class="cls-2" d="M22.18,26.52a.6.6,0,1,0-.6-.59A.59.59,0,0,0,22.18,26.52Z"/><path class="cls-2" d="M19.56,20.36a.6.6,0,0,0-.82.22.62.62,0,0,0,.22.82.6.6,0,0,0,.82-.22A.59.59,0,0,0,19.56,20.36Z"/><path class="cls-2" d="M19.42,22.56a.61.61,0,0,0-.61-.6.6.6,0,0,0,0,1.2A.61.61,0,0,0,19.42,22.56Z"/><path class="cls-2" d="M19.56,24.76a.59.59,0,0,0,.22-.82.61.61,0,0,0-.82-.22.62.62,0,0,0-.22.82A.59.59,0,0,0,19.56,24.76Z"/><path class="cls-2" d="M18.18,17.62a1,1,0,0,0,1.35.37,1,1,0,0,0,.37-1.36,1,1,0,1,0-1.72,1Z"/><path class="cls-2" d="M22.18,15.28a1,1,0,0,0,0,2,1,1,0,0,0,0-2Z"/><path class="cls-2" d="M28.12,20.29a1,1,0,0,0,.37-1.37,1,1,0,0,0-1.37-.36,1,1,0,0,0-.37,1.36A1,1,0,0,0,28.12,20.29Z"/><path class="cls-2" d="M27.12,26.56a1,1,0,0,0,1.37-.36,1,1,0,0,0-.37-1.37,1,1,0,0,0-1.37.37A1,1,0,0,0,27.12,26.56Z"/><path class="cls-2" d="M26.53,15A1.6,1.6,0,1,0,26,12.84,1.6,1.6,0,0,0,26.53,15Z"/><path class="cls-2" d="M31.91,18.79A1.6,1.6,0,0,0,30.31,16a1.6,1.6,0,0,0,1.6,2.77Z"/><path class="cls-2" d="M23.34,19.35a.6.6,0,1,0,.82-.22A.61.61,0,0,0,23.34,19.35Z"/><path class="cls-2" d="M25.39,21.4a.6.6,0,0,0,.22-.82.6.6,0,1,0-.22.82Z"/><path class="cls-2" d="M26.14,22.56a.6.6,0,1,0-.6.6A.6.6,0,0,0,26.14,22.56Z"/><path class="cls-2" d="M24.79,24.76a.6.6,0,1,0,.6-1,.61.61,0,0,0-.82.22A.6.6,0,0,0,24.79,24.76Z"/><path class="cls-2" d="M24.82,18a1,1,0,1,0-.36-1.36A1,1,0,0,0,24.82,18Z"/><path class="cls-2" d="M17.82,15a1.6,1.6,0,1,0-2.18-.59A1.59,1.59,0,0,0,17.82,15Z"/><path class="cls-2" d="M26.53,30.1a1.6,1.6,0,1,0,2.18.59A1.61,1.61,0,0,0,26.53,30.1Z"/><path class="cls-2" d="M26.18,27.5a1,1,0,0,0-1.36-.36,1,1,0,0,0-.36,1.36,1,1,0,0,0,1.36.37A1,1,0,0,0,26.18,27.5Z"/><path class="cls-2" d="M28.45,21.56a1,1,0,1,0,1,1A1,1,0,0,0,28.45,21.56Z"/><path class="cls-2" d="M17.24,18.56a1,1,0,1,0,.36,1.36A1,1,0,0,0,17.24,18.56Z"/><path class="cls-2" d="M24.38,25.17a.61.61,0,0,0-.82-.22.6.6,0,1,0,.82.22Z"/><path class="cls-2" d="M31.91,26.33a1.6,1.6,0,1,0,.58,2.18A1.62,1.62,0,0,0,31.91,26.33Z"/><path class="cls-2" d="M0,.39V44.73H44.35V.39ZM33.58,8a2.22,2.22,0,1,1,3.15,3.14,2.21,2.21,0,0,1-3.15,0A2.23,2.23,0,0,1,33.58,8Zm-8.8-3.75A2.23,2.23,0,1,1,26.35,7,2.22,2.22,0,0,1,24.78,4.26ZM16.85,2.69a2.22,2.22,0,1,1-1.57,2.72A2.23,2.23,0,0,1,16.85,2.69ZM7.63,8a2.22,2.22,0,0,1,3.14,3.14A2.22,2.22,0,0,1,7.63,8ZM2.3,17.24A2.22,2.22,0,1,1,3.88,20,2.22,2.22,0,0,1,2.3,17.24ZM5,29.46a2.23,2.23,0,1,1,1.56-2.72A2.23,2.23,0,0,1,5,29.46Zm5.74,7.65a2.22,2.22,0,1,1,0-3.14A2.22,2.22,0,0,1,10.77,37.11Zm8.81,3.76A2.23,2.23,0,1,1,18,38.14,2.23,2.23,0,0,1,19.58,40.87Zm7.93,1.56a2.22,2.22,0,1,1,1.57-2.72A2.22,2.22,0,0,1,27.51,42.43Zm9.22-5.32a2.22,2.22,0,1,1,0-3.14A2.23,2.23,0,0,1,36.73,37.11Zm0-12.93a2.2,2.2,0,1,0-.26,4.3,2.2,2.2,0,0,1,.15,2.41A2.23,2.23,0,0,1,34.44,32a1.93,1.93,0,0,0-.48-.73,2.2,2.2,0,1,0-3.11,3.1,2.22,2.22,0,0,0,.74.49,2.19,2.19,0,0,1-3.49,2A2,2,0,0,0,28,36,2.2,2.2,0,1,0,23.8,37.1a2.54,2.54,0,0,0,.39.79,2.19,2.19,0,0,1-4,0,2.36,2.36,0,0,0,.4-.79A2.22,2.22,0,0,0,19,34.41,2.19,2.19,0,0,0,16.32,36a2,2,0,0,0-.06.88,2.2,2.2,0,0,1-3.5-2,2.13,2.13,0,0,0,.74-.49,2.2,2.2,0,1,0-3.11-3.1,2,2,0,0,0-.47.73,2.21,2.21,0,0,1-2.17-1.08,2.18,2.18,0,0,1,.15-2.41,2.2,2.2,0,1,0-.26-4.3,2.11,2.11,0,0,0-.79.4,2.2,2.2,0,0,1,0-4,2.11,2.11,0,0,0,.79.4A2.2,2.2,0,0,0,8.78,16.7a2.41,2.41,0,0,0-.88-.06,2.19,2.19,0,0,1,2-3.49,2,2,0,0,0,.47.73,2.2,2.2,0,0,0,3.11-3.1,2.28,2.28,0,0,0-.74-.49,2.21,2.21,0,0,1,3.5-2,2.07,2.07,0,0,0,.06.89A2.19,2.19,0,0,0,19,10.71,2.21,2.21,0,0,0,20.56,8a2.36,2.36,0,0,0-.4-.79,2.19,2.19,0,0,1,4,0A2.54,2.54,0,0,0,23.8,8,2.2,2.2,0,1,0,28,9.16a2.07,2.07,0,0,0,.06-.89,2.2,2.2,0,0,1,3.49,2,2.39,2.39,0,0,0-.74.49A2.2,2.2,0,0,0,34,13.88a1.93,1.93,0,0,0,.48-.73,2.19,2.19,0,0,1,2,3.49,2.4,2.4,0,0,0-.88.06,2.2,2.2,0,1,0,1.93,3.84,2.21,2.21,0,0,1,0,4A2.19,2.19,0,0,0,36.72,24.18Zm5.33,3.71a2.22,2.22,0,1,1-1.57-2.73A2.22,2.22,0,0,1,42.05,27.89ZM40.48,20a2.22,2.22,0,1,1-1.14-4.29A2.22,2.22,0,0,1,40.48,20Z"/><path class="cls-2" d="M32.49,21a1.6,1.6,0,1,0,0,3.19,1.6,1.6,0,0,0,0-3.19Z"/><path class="cls-2" d="M22.18,31.27a1.6,1.6,0,1,0,1.6,1.6A1.6,1.6,0,0,0,22.18,31.27Z"/><path class="cls-2" d="M12.45,26.33a1.6,1.6,0,1,0,2.18.58A1.6,1.6,0,0,0,12.45,26.33Z"/><path class="cls-2" d="M14.05,16a1.6,1.6,0,1,0,.58,2.19A1.61,1.61,0,0,0,14.05,16Z"/><path class="cls-2" d="M13.46,22.56a1.6,1.6,0,1,0-1.59,1.59A1.6,1.6,0,0,0,13.46,22.56Z"/><path class="cls-2" d="M21,25.77a.6.6,0,1,0-.82.22A.61.61,0,0,0,21,25.77Z"/><path class="cls-2" d="M16.89,22.56a1,1,0,1,0-1,1A1,1,0,0,0,16.89,22.56Z"/><path class="cls-2" d="M19.53,27.14a1,1,0,0,0-1.35.36,1,1,0,1,0,1.35-.36Z"/><path class="cls-2" d="M17.82,30.1a1.6,1.6,0,1,0,.59,2.19A1.6,1.6,0,0,0,17.82,30.1Z"/><path class="cls-2" d="M16.24,24.83a1,1,0,1,0,1.36.37A1,1,0,0,0,16.24,24.83Z"/></g></g></svg>