<svg xmlns="http://www.w3.org/2000/svg" viewBox="0 0 419.637 67.497"><title>berj-logo</title><path d="M32.175,24.36a34.3,34.3,0,0,0,4.591-2.349,10.282,10.282,0,0,0,2.918-3.185,7.875,7.875,0,0,0,.961-3.9,10.65,10.65,0,0,0-.641-3.7,9.115,9.115,0,0,0-1.975-3.15,11.236,11.236,0,0,0-3.15-2.313,15.918,15.918,0,0,0-2.918-1.192,21.561,21.561,0,0,0-5.873-.819H23.811q-1.53-.035-1.886-.036-.427,0-.854.036l-1.388.036L8.044,4.18.071,4.357.178,6.884q2.811.357,3.488.392A4.436,4.436,0,0,1,5.8,7.739a.855.855,0,0,1,.356.356,11.824,11.824,0,0,1,.356,3.31q.249,9.93.249,12.279L6.833,38.81a44.95,44.95,0,0,1-.285,5.873,4.758,4.758,0,0,1-.641,1.566,15.626,15.626,0,0,1-3.772.926q-1.211.178-2.064.391L0,50.413q6.833-.249,8.329-.32,5.3-.355,9.147-.356l6.05.142a37.461,37.461,0,0,0,6.051-.356,24.4,24.4,0,0,0,6.246-1.815,14.806,14.806,0,0,0,4.289-3.274,9.683,9.683,0,0,0,2.171-3.559,14.972,14.972,0,0,0,.89-4.912,10.647,10.647,0,0,0-2.812-7.172A14.81,14.81,0,0,0,32.175,24.36ZM16.336,7.24a27.058,27.058,0,0,1,3.986-.391q5.232,0,7.83,2.278a7.261,7.261,0,0,1,2.6,5.694q0,4.841-2.74,6.816t-8.08,1.975a22.825,22.825,0,0,1-3.345-.213q-.036-1.566-.036-2.349l.036-2.99q0-5.446-.178-8.471Q16.336,8.059,16.336,7.24Zm15.34,35.129A7.955,7.955,0,0,1,27.939,45.8a15.369,15.369,0,0,1-6.62,1.228,11.282,11.282,0,0,1-4.307-.961,4.4,4.4,0,0,1-.356-1.353l-.106-8.186.036-5.268V26.887a10.075,10.075,0,0,1,3.1-.32,22.2,22.2,0,0,1,7.581.979,8.978,8.978,0,0,1,4.307,3.826,10.3,10.3,0,0,1,1.281,5.481A11.652,11.652,0,0,1,31.677,42.369Z" fill="#231f20"/><path d="M92.68,37a18.116,18.116,0,0,1-4.022,6.691,8.35,8.35,0,0,1-4.2,2.385,40.35,40.35,0,0,1-8.4.748q-7.474,0-8.934-.748a1.891,1.891,0,0,1-.961-1.851l.071-7.688q-.143-2.811-.143-7.047v-1.21q2.71-.284,8.1-.285a28.31,28.31,0,0,1,5.279.249A2.593,2.593,0,0,1,80.9,29.2a14.389,14.389,0,0,1,1.284,4.129q.392,1.78.535,2.349h2.527V34.9q0-1.032-.107-3.15t-.107-3.079q0-.6.054-1.673t.053-4.8q0-1.637-.143-4.805l-2.064-.035-.463.035a48.84,48.84,0,0,1-1.249,5.232,3.673,3.673,0,0,1-1.142,1.548,8.867,8.867,0,0,1-3.353.694q-2.711.249-9.1.249A13.139,13.139,0,0,1,66.093,25V20.516l-.036-5.979q0-6.121.107-7.011,3.417-.142,7.759-.143,3.808,0,7.119.285,1.815.143,2.171.178a9.577,9.577,0,0,1,2.278.285A16.42,16.42,0,0,1,87.769,11.4l1.424,2.527q.534,1.388.854,2.1.925.072,1.21.071l1.459-.071q.035-.428.036-.641l-.071-1.459V6.6a2.767,2.767,0,0,0-.641-1.922,55.812,55.812,0,0,0-6.406-.534l-6.442.071q-6.406,0-14.343.32-5.3.213-6.584.213a47.721,47.721,0,0,1-6.513-.392q-1.495-.213-3.523-.32l-.178,2.847q.889.107,1.566.143a23.266,23.266,0,0,1,3.915.5q.676.142,1.068.213a1.741,1.741,0,0,1,1.068.5,6.82,6.82,0,0,1,.071.712l.32,4.414-.036,4.021.178,5.695L56.163,27.1l.107,13.418-.036,1.1q.035,1.46.036,2.064a7.4,7.4,0,0,1-.392,2.6,17.181,17.181,0,0,1-5.125,1.139,22.093,22.093,0,0,0-2.705.392v2.456l4.31-.142h1.5q6.233-.356,10.508-.356,8.583,0,14.675.249,8.655.356,10.65.356,1.354,0,3.669-.107l.631-4.057,1.3-6.727.21-1.068q.07-.6.175-1.495-.784-.035-1.174-.036Q93.783,36.888,92.68,37Z" fill="#231f20"/><path d="M146.673,49.986l1.851.249.712-.036h.961q.035-.5.036-.818a3.278,3.278,0,0,0-.213-1.068,11.247,11.247,0,0,0-2.456-1.21,8.586,8.586,0,0,1-2.723-1.37,27.628,27.628,0,0,1-2.794-4.289l-5.675-9.218q-.922-1.495-2.412-3.63-.71-1-1.135-1.744a14.139,14.139,0,0,0,7.148-4.431,10.271,10.271,0,0,0,2.323-6.531q0-4.8-4.307-8.524t-11.6-3.72a86.264,86.264,0,0,0-8.791.427l-4.449.213-1.886.107q-.214,0-2.776-.213-2.492.036-3.31.036A20.828,20.828,0,0,0,101.9,4.5l-.142.392.071,2.135q.961.179,3.844.356l2.1.427q.178,2.065.178,9.467,0,3.382-.107,7.261l-.071,1.922.071,3.31-.142,4.271.036,7.937q0,2.919-.071,3.417a8.968,8.968,0,0,1-.214,1.032,15.047,15.047,0,0,1-3.274.765,8.177,8.177,0,0,0-2.74.729,7.978,7.978,0,0,0-.107,1.1q0,.25.071,1.139h1.53a37.24,37.24,0,0,0,4.093-.25l4.912-.32q.391-.035,1.317-.036,1.423,0,9.076.676l1.459-.071q.177,0,.854.035a18.054,18.054,0,0,0,.142-2.634,29.265,29.265,0,0,0-4.77-1.352,8.064,8.064,0,0,1-2.6-.926l.213-6.691-.178-7.9a24.272,24.272,0,0,1,.107-2.456q1.708-.07,2.42-.071a6.664,6.664,0,0,1,3.666.747q.712.463,2.491,3.951,3.809,7.546,5.375,11,.6,1.317,2.1,3.986l1.21,2.349q.569-.07,1.53-.178,2.1-.248,2.492-.249l3.559.036a18.649,18.649,0,0,1,2.812.178ZM128.521,22.794q-2.528,2.172-8.578,2.171-.783,0-2.491-.071v-1q.035-2.6.107-4.235l-.036-3.88.106-2.918-.071-4.8.071-.676a19,19,0,0,1,2.8-.178,16.88,16.88,0,0,1,5,.534,8.229,8.229,0,0,1,3.443,2.1,7.453,7.453,0,0,1,1.544,2.937,13.984,13.984,0,0,1,.622,4.218A7.264,7.264,0,0,1,128.521,22.794Z" fill="#231f20"/><path d="M172.619,3.824a12.5,12.5,0,0,0-1.388.106q-4.271.428-7.866.427-4.165,0-6.656-.231T150.73,3.9l.178,3.061.676.107.925.107h.854q4.021.392,4.8.569.035.677.036,3.31l.178,2.349.178,6.549-.036,7.723q0,1.317.106,2.741.035.64.036,1.708l.107,13.347-.036,2.669q.071,2.1.071,2.42,0,.675-.071,1.673-.143,1.743-.142,3.666v2.1a7.354,7.354,0,0,1-.819,3.986,1.649,1.649,0,0,1-1.388.854,2.739,2.739,0,0,1-.961-.249,9.066,9.066,0,0,1-2.527-3.168q-1.781-2.1-3.488-2.1a4.3,4.3,0,0,0-3.079,1.245,4.157,4.157,0,0,0-1.3,3.132,5.437,5.437,0,0,0,1.833,4.058,6.068,6.068,0,0,0,4.324,1.744,14.837,14.837,0,0,0,5.3-1.015,17,17,0,0,0,5.445-3.612,22.224,22.224,0,0,0,3.737-5.552,23.033,23.033,0,0,0,2.135-7.136,85.012,85.012,0,0,0,.676-12.261l-.071-2.741.036-3.737-.107-3.63.071-3.595-.143-4.591V16.672q0-3.381-.089-4.129t-.089-4.2q0-.178.035-1.032a10.549,10.549,0,0,1,2.776-.32,33.246,33.246,0,0,0,3.453-.356q.106-.961.106-1.423c0-.285-.024-.7-.071-1.246A16.237,16.237,0,0,0,172.619,3.824Z" fill="#231f20"/><path d="M208.209,20.885l2.192.052a13.591,13.591,0,0,0,2.191-.129,8.839,8.839,0,0,0,2.263-.658,5.36,5.36,0,0,0,1.554-1.187,3.507,3.507,0,0,0,.787-1.289,5.424,5.424,0,0,0,.322-1.78,3.858,3.858,0,0,0-1.019-2.6,5.365,5.365,0,0,0-2.966-1.6,12.453,12.453,0,0,0,1.663-.851,3.733,3.733,0,0,0,1.058-1.154,2.849,2.849,0,0,0,.349-1.412,3.871,3.871,0,0,0-.232-1.341,3.312,3.312,0,0,0-.716-1.141,4.076,4.076,0,0,0-1.141-.838,5.76,5.76,0,0,0-1.058-.432,7.8,7.8,0,0,0-2.128-.3H210.5c-.369-.009-.6-.013-.684-.013-.1,0-.206,0-.31.013l-.5.013-4.217.142-2.888.065.039.915q1.018.13,1.264.142a1.608,1.608,0,0,1,.773.167.314.314,0,0,1,.129.129,4.276,4.276,0,0,1,.129,1.2q.09,3.6.09,4.449l.026,5.48a16.338,16.338,0,0,1-.1,2.127,1.723,1.723,0,0,1-.232.567,5.659,5.659,0,0,1-1.367.335q-.439.064-.748.142l-.026,1.032q2.476-.09,3.017-.116Q206.817,20.885,208.209,20.885Zm5.57-4.667a4.215,4.215,0,0,1-.426,2A2.877,2.877,0,0,1,212,19.46a5.575,5.575,0,0,1-2.4.445,4.087,4.087,0,0,1-1.56-.348,1.6,1.6,0,0,1-.129-.49l-.039-2.966.013-1.908V12.606a3.658,3.658,0,0,1,1.122-.116,8.044,8.044,0,0,1,2.746.354,3.255,3.255,0,0,1,1.561,1.386A3.738,3.738,0,0,1,213.78,16.217Zm-4.539-10.87a4.2,4.2,0,0,1,2.837.825,2.632,2.632,0,0,1,.941,2.063,2.84,2.84,0,0,1-.993,2.469,4.985,4.985,0,0,1-2.927.716,8.328,8.328,0,0,1-1.212-.077q-.013-.568-.013-.851l.013-1.083q0-1.972-.064-3.069-.026-.554-.026-.851A9.768,9.768,0,0,1,209.241,5.347Z" fill="#231f20"/><path d="M220.666,20.937h.22a16.733,16.733,0,0,1,1.688-.078l2.463.116h1.212a1.284,1.284,0,0,0,.078-.379.454.454,0,0,0-.129-.359,1.589,1.589,0,0,0-.723-.164,4.3,4.3,0,0,1-.832-.129,1.543,1.543,0,0,1-.47-.257,1.521,1.521,0,0,1-.245-.643q-.026-3.508-.078-4.459l-.025-.347a2.685,2.685,0,0,1,.361-1.336.955.955,0,0,1,.49-.489l.09-.013a1.066,1.066,0,0,1,.58.284,1.935,1.935,0,0,0,1.16.464,1.224,1.224,0,0,0,1.013-.484,1.719,1.719,0,0,0,.38-1.089,1.418,1.418,0,0,0-.5-1.07,1.69,1.69,0,0,0-1.186-.464,1.634,1.634,0,0,0-.993.323,7.751,7.751,0,0,0-.684.632,12.324,12.324,0,0,0-.773,1.212q-.013-.929-.013-1.07,0-.3.013-.748c.009-.137.013-.253.013-.348a2.4,2.4,0,0,0-.064-.49l-.9.026a3.377,3.377,0,0,0-.361.451,4.5,4.5,0,0,1-1.16,1.064,4,4,0,0,1-1.728.651l.038.477a.378.378,0,0,0,.31.284,3.856,3.856,0,0,1,.877.3.563.563,0,0,1,.206.361,43.609,43.609,0,0,1,.142,4.4,9.779,9.779,0,0,1-.115,2.085,3.854,3.854,0,0,1-1.251.515,1.03,1.03,0,0,0-.438.213,1.8,1.8,0,0,0-.039.306,2.027,2.027,0,0,0,.039.319Q220.576,20.937,220.666,20.937Z" fill="#231f20"/><path d="M230.31,18.809v.142a1.584,1.584,0,0,1-.122.78.783.783,0,0,1-.445.264l-1.457.193.026.838q.218,0,.811-.045t1.223-.045q2.2,0,3.513.064.4.026.593.026c.111,0,.282,0,.515-.013l.025-.709a2.773,2.773,0,0,0-.555-.129,8,8,0,0,1-1.3-.284,8.278,8.278,0,0,1-.052-.98l.09-5.261q0-2.552-.051-4.152h-.864a5.389,5.389,0,0,1-1.483,1.1,6.247,6.247,0,0,1-2.333.554v.722a5.212,5.212,0,0,1,1.311.207,1.13,1.13,0,0,1,.52.335,4.6,4.6,0,0,1,.078.825l-.039,2.1.02.606-.02.645q.04.7.039.941,0,.31-.02.716C230.317,18.519,230.31,18.706,230.31,18.809Z" fill="#231f20"/><path d="M231.78,7.436a1.675,1.675,0,0,0,.884-.264,1.584,1.584,0,0,0,.632-.7,2.1,2.1,0,0,0,.2-.876,1.425,1.425,0,0,0-.5-1.064,1.776,1.776,0,0,0-1.263-.471,1.584,1.584,0,0,0-1.161.445,1.534,1.534,0,0,0-.451,1.141,1.732,1.732,0,0,0,.522,1.264A1.58,1.58,0,0,0,231.78,7.436Z" fill="#231f20"/><path d="M242.74,18.99c-.111.078-.193.138-.245.181a2.844,2.844,0,0,1-.567.373,1.53,1.53,0,0,1-.516.064,1.507,1.507,0,0,1-.657-.142,1.735,1.735,0,0,1-.3-.677A12.3,12.3,0,0,1,240.393,17l.025-4.926.619-.039.232.013h.671a3.194,3.194,0,0,0,.412.052,3.951,3.951,0,0,0,.645-.077,3.147,3.147,0,0,0,.091-.69,2.83,2.83,0,0,0-.078-.613q-.876.026-.967.026-1.147.051-1.212.051l-.3-.013c-.009-.155-.013-.253-.013-.3l.039-.761c.008-.25.013-.6.013-1.044a2.16,2.16,0,0,0-.116-.709h-.722a8.1,8.1,0,0,1-1.451,2.009,7.938,7.938,0,0,1-2.2,1.262c-.018.332-.025.523-.025.575a.391.391,0,0,0,.077.217l.167.064.929-.026.4.026v3.669l-.051,2.266a3.247,3.247,0,0,0,.747,2.356,2.614,2.614,0,0,0,1.947.76,3.882,3.882,0,0,0,1.747-.406,3.1,3.1,0,0,0,1.271-1.115l-.052-.155A3.05,3.05,0,0,0,242.74,18.99Z" fill="#231f20"/><path d="M245.99,18.809v.142a1.584,1.584,0,0,1-.122.78.783.783,0,0,1-.445.264l-1.457.193.026.838q.218,0,.811-.045t1.223-.045q2.2,0,3.513.064.4.026.593.026c.111,0,.282,0,.515-.013l.025-.709a2.773,2.773,0,0,0-.555-.129,8,8,0,0,1-1.3-.284,8.278,8.278,0,0,1-.052-.98l.09-5.261q0-2.552-.051-4.152h-.864a5.389,5.389,0,0,1-1.483,1.1,6.247,6.247,0,0,1-2.333.554v.722a5.212,5.212,0,0,1,1.311.207,1.13,1.13,0,0,1,.52.335,4.6,4.6,0,0,1,.078.825l-.039,2.1.02.606-.02.645q.04.7.039.941,0,.31-.02.716C246,18.519,245.99,18.706,245.99,18.809Z" fill="#231f20"/><path d="M247.459,7.436a1.675,1.675,0,0,0,.884-.264,1.584,1.584,0,0,0,.632-.7,2.1,2.1,0,0,0,.2-.876,1.425,1.425,0,0,0-.5-1.064,1.776,1.776,0,0,0-1.263-.471,1.584,1.584,0,0,0-1.161.445,1.534,1.534,0,0,0-.451,1.141,1.732,1.732,0,0,0,.522,1.264A1.58,1.58,0,0,0,247.459,7.436Z" fill="#231f20"/><path d="M259.767,20.324a3.2,3.2,0,0,0,1.128-2.5,3.081,3.081,0,0,0-.472-1.7,3.757,3.757,0,0,0-1.635-1.277,12.947,12.947,0,0,0-2.494-.748,3.088,3.088,0,0,1-1.569-.684,1.234,1.234,0,0,1-.457-.864,1.269,1.269,0,0,1,.438-1.019,2.231,2.231,0,0,1,1.5-.516,2.5,2.5,0,0,1,1.5.471,4.762,4.762,0,0,1,1.271,1.618q.193.361.31.542a3.746,3.746,0,0,0,.374.026,1.963,1.963,0,0,0,.554-.1.541.541,0,0,0,.039-.193q0-.193-.142-1.264t-.22-1.367a5.548,5.548,0,0,0-1.572-.5,12.237,12.237,0,0,0-2.153-.167,4.386,4.386,0,0,0-1.619.3,3.235,3.235,0,0,0-1.928,1.76,3.918,3.918,0,0,0-.283,1.6A3.145,3.145,0,0,0,252.668,15a2.873,2.873,0,0,0,.716.929,3.536,3.536,0,0,0,1.077.645q.27.1,1.566.425a13.78,13.78,0,0,1,1.618.464,2.209,2.209,0,0,1,.877.574,1.136,1.136,0,0,1,.219.7,1.514,1.514,0,0,1-.58,1.128,2.009,2.009,0,0,1-1.393.522,2.619,2.619,0,0,1-.9-.155,3.985,3.985,0,0,1-.929-.426,5.405,5.405,0,0,1-.89-.851,13.366,13.366,0,0,1-.915-1.483l-.116-.129c-.121-.008-.211-.013-.271-.013a3.264,3.264,0,0,0-.567.077q.012.31.219,1.883a6.393,6.393,0,0,0,.174,1.077.474.474,0,0,0,.2.187q.76.322.941.374a9.572,9.572,0,0,0,1.276.258q1.2.129,1.482.129A4.823,4.823,0,0,0,259.767,20.324Z" fill="#231f20"/><path d="M268.787,20.633c0-.084-.009-.233-.025-.445a2.235,2.235,0,0,0-.51-.058c-.211,0-.475-.019-.793-.045a.56.56,0,0,1-.283-.284,4.287,4.287,0,0,1-.116-1.225q0-.141.021-.7.031-.928.031-2.785V12.839a5.276,5.276,0,0,1,1.309-.9,3.517,3.517,0,0,1,1.579-.38,2.145,2.145,0,0,1,1.187.316,1.482,1.482,0,0,1,.645.813,7.558,7.558,0,0,1,.155,1.9v3.159l-.064,1.883-.064.309q-.349.052-.742.1a2.174,2.174,0,0,0-.689.187.914.914,0,0,0-.064.284l.025.168v.309a.818.818,0,0,0,.259.039q.876,0,1.443-.026.8-.051,1.277-.052.734,0,1.817.1.567.052.761.052l.3-.02a2.614,2.614,0,0,1,.025-.422l.014-.1a.716.716,0,0,0-.1-.307q-.193-.051-.542-.116a5.223,5.223,0,0,1-.761-.18.33.33,0,0,1-.115-.155l.064-2.63-.014-1.818v-.825a10.4,10.4,0,0,0-.115-1.934,3.235,3.235,0,0,0-.566-1.27A3.092,3.092,0,0,0,273,10.447a3.881,3.881,0,0,0-1.718-.354,5.354,5.354,0,0,0-2.009.387,8.881,8.881,0,0,0-2.137,1.315l.026-7.711-.7-.052a3.749,3.749,0,0,0-.362.194,9.635,9.635,0,0,1-1.823.645c-.2.043-.4.095-.62.155l-1.086.232c-.018.189-.025.348-.025.477V6a4.14,4.14,0,0,1,1.36.361.843.843,0,0,1,.367.529A19.19,19.19,0,0,1,264.4,9.86v.361l-.052,4.681-.025.219.013.645-.013.258v1.058l-.039.967v.916a1.991,1.991,0,0,1-.129.916.827.827,0,0,1-.516.181q-.942.1-1.147.155v.167a2.432,2.432,0,0,0,.271.645l1.267.013,1.809-.09q.646,0,1.461.058l1.434.058A2.249,2.249,0,0,0,268.787,20.633Z" fill="#231f20"/><path d="M285.757,21.027q2.259-.129,3.807-.129,3.11,0,5.317.09,3.135.13,3.858.129.489,0,1.329-.039l.229-1.47.47-2.437.076-.387q.025-.219.063-.542c-.189-.008-.331-.013-.426-.013q-.258,0-.657.039a6.565,6.565,0,0,1-1.457,2.424,3.03,3.03,0,0,1-1.521.864,14.617,14.617,0,0,1-3.043.271,10.457,10.457,0,0,1-3.236-.271.685.685,0,0,1-.349-.67l.025-2.785q-.051-1.019-.051-2.553v-.438q.981-.1,2.933-.1a10.252,10.252,0,0,1,1.913.09.936.936,0,0,1,.517.348,5.2,5.2,0,0,1,.465,1.5q.142.645.194.851h.915v-.284q0-.374-.038-1.141t-.039-1.115q0-.219.02-.606t.02-1.741q0-.593-.052-1.741l-.748-.013-.168.013a17.712,17.712,0,0,1-.452,1.9,1.326,1.326,0,0,1-.413.561,3.208,3.208,0,0,1-1.215.251q-.983.091-3.295.09a4.739,4.739,0,0,1-.556-.039V10.3l-.014-2.167q0-2.218.039-2.54,1.238-.051,2.811-.052,1.38,0,2.579.1.658.052.787.064a3.479,3.479,0,0,1,.825.1A5.958,5.958,0,0,1,298.044,7l.516.916q.193.5.31.761c.224.018.369.026.438.026l.528-.026c.009-.1.013-.181.013-.232l-.025-.529V5.257a1,1,0,0,0-.232-.7,20.224,20.224,0,0,0-2.321-.193l-2.333.026q-2.322,0-5.2.116-1.922.077-2.386.077A17.347,17.347,0,0,1,285,4.445q-.542-.078-1.277-.116l-.064,1.031q.322.039.567.052a8.488,8.488,0,0,1,1.419.181q.245.051.387.077a.629.629,0,0,1,.387.181,2.588,2.588,0,0,1,.025.258l.116,1.6-.013,1.457.064,2.063-.013,1.457.038,4.861-.013.4q.013.529.013.748a2.677,2.677,0,0,1-.142.941,6.244,6.244,0,0,1-1.856.413,7.981,7.981,0,0,0-.98.142v.89l1.562-.051Z" fill="#231f20"/><path d="M311.221,20.219q.284-.168.478-.273a9.912,9.912,0,0,1,.038,1.13c0,.043,0,.143-.013.3a2.31,2.31,0,0,0,.322.025,1.3,1.3,0,0,0,.5-.206,7.8,7.8,0,0,1,2.515-.619,8.776,8.776,0,0,0,1.109-.193,1.091,1.091,0,0,0,.09-.348,1.023,1.023,0,0,0-.064-.284,2.793,2.793,0,0,0-.5-.064,3.157,3.157,0,0,1-1.135-.206c-.018-.43-.025-.8-.025-1.109V17.4c0-.12,0-.253-.014-.4q-.025-.541-.025-1.212t.025-1.031l.014-.271V13.78a5.46,5.46,0,0,1-.039-.555c0-.069,0-.172.013-.31v-.477c-.009-.094-.013-.2-.013-.322q0-1.109.025-1.625l.026-.787-.039-1.341.013-.645-.013-.374v-.7q-.038-1.56-.038-1.921V4.5l.013-.193a1.677,1.677,0,0,0-.077-.4,1.312,1.312,0,0,0-.207-.025,3.165,3.165,0,0,0-.477.09l-1.276.3-.438.09a9.131,9.131,0,0,1-1.509.264,2.266,2.266,0,0,0-.632.084v.619a2.086,2.086,0,0,0,.78.168.758.758,0,0,1,.677.374,6.861,6.861,0,0,1,.335,2.76L311.608,10l.014.864-.026.31a4.43,4.43,0,0,0-2.694-.967h-.723a8,8,0,0,0-1.656.3,4.8,4.8,0,0,0-1.219.632,5.467,5.467,0,0,0-2.4,4.449,6.9,6.9,0,0,0,.548,2.772,4.9,4.9,0,0,0,1.979,2.167,4.759,4.759,0,0,0,2.592.619,5.934,5.934,0,0,0,1.624-.2A6.633,6.633,0,0,0,311.221,20.219Zm-4.268-1.84a5.043,5.043,0,0,1-.89-3.212,5.953,5.953,0,0,1,.335-1.88A3.943,3.943,0,0,1,307.122,12a2.066,2.066,0,0,1,.831-.592,2.848,2.848,0,0,1,1.077-.206,2.484,2.484,0,0,1,1.688.606,2.68,2.68,0,0,1,.852,1.728q.116.838.116,4.925c0,.069,0,.245-.014.529a5.411,5.411,0,0,1-1.024.519,2.65,2.65,0,0,1-.909.177c-.129,0-.284-.008-.464-.026A3.357,3.357,0,0,1,306.954,18.379Z" fill="#231f20"/><path d="M321.989,21.311a4.215,4.215,0,0,0,1.7-.355,7.983,7.983,0,0,0,1.947-1.36q.3-.27.451-.4l.013,2.1.516.026a23.829,23.829,0,0,1,3.018-.916,6.35,6.35,0,0,1,.979-.09,1.574,1.574,0,0,0,.039-.284c0-.043-.013-.215-.039-.516l-.154-.026-1.187.039c-.068,0-.142-.051-.219-.154a.788.788,0,0,1-.116-.477c0-.06.017-.313.052-.76l-.014-.669.026-.991.013-2.215-.025-1.545.051-1.236-.025-.966q-1.163.026-1.965.026l-1.991-.026a5.1,5.1,0,0,0-.737.064,3.4,3.4,0,0,0-.039.438,2.193,2.193,0,0,0,.052.387.81.81,0,0,0,.142.09l.864.064a2,2,0,0,1,.864.245l.025.284-.013.476c0,.043.006.234.02.573s.019.62.019.843-.008.489-.025.824l-.09,3.206a2.685,2.685,0,0,1-.517.76,4.013,4.013,0,0,1-.6.464,3.349,3.349,0,0,1-.831.438,3.145,3.145,0,0,1-.941.116,1.84,1.84,0,0,1-1.051-.29,1.625,1.625,0,0,1-.626-.856,11.611,11.611,0,0,1-.142-2.047V15.269l.013-1.944-.013-.657.039-1.262-.026-.863-.283-.026h-3.843c-.06.018-.138.043-.231.078-.018.2-.032.339-.046.425a1.473,1.473,0,0,0-.019.206c0,.086.021.142.064.168a3.63,3.63,0,0,0,1.031.271,1.8,1.8,0,0,1,.426.116,1.023,1.023,0,0,1,.129.386q.038.347.038,1.378,0,.6-.064,1.867l-.013.412q0,2.279.025,2.524a3.906,3.906,0,0,0,.361,1.442,2.879,2.879,0,0,0,1.135,1.082A3.661,3.661,0,0,0,321.989,21.311Z" fill="#231f20"/><path d="M335.256,20.769a6.427,6.427,0,0,0,2.554.542,5.763,5.763,0,0,0,3.391-.941,4.02,4.02,0,0,0,1.689-2.231,1.416,1.416,0,0,0-.478-.322,2.526,2.526,0,0,1-.31-.155c-.095.1-.272.305-.535.606a4.451,4.451,0,0,1-.535.555,4.18,4.18,0,0,1-.876.5,4.081,4.081,0,0,1-1.251.167,3.521,3.521,0,0,1-2.649-1.27,4.861,4.861,0,0,1-1.167-3.423,4.02,4.02,0,0,1,.954-2.831,2.879,2.879,0,0,1,2.166-1.038,1.45,1.45,0,0,1,.864.258,1.927,1.927,0,0,1,.593.864,2.54,2.54,0,0,0,.741,1.173,1.547,1.547,0,0,0,.974.348,1.244,1.244,0,0,0,.974-.393,1.549,1.549,0,0,0,.354-1.077,1.883,1.883,0,0,0-.877-1.393,5.152,5.152,0,0,0-3.107-.7,7.36,7.36,0,0,0-2.921.554,6.06,6.06,0,0,0-2.146,1.5,5.735,5.735,0,0,0-1.212,2.005,5.986,5.986,0,0,0-.361,1.9,6.2,6.2,0,0,0,.29,1.689,4.5,4.5,0,0,0,.87,1.676A5.291,5.291,0,0,0,335.256,20.769Z" fill="#231f20"/><path d="M351.454,19.2a3.622,3.622,0,0,0,1,1.476,2.087,2.087,0,0,0,1.309.419,1.85,1.85,0,0,0,1.25-.432,3.158,3.158,0,0,0,.813-1.58l-.014-.064a.362.362,0,0,0-.142-.219l-.3-.193-.231.09-.387.606a.387.387,0,0,1-.241.077.443.443,0,0,1-.374-.2,1.334,1.334,0,0,1-.146-.741v-.4l-.026-1.56.026-2.128a8.47,8.47,0,0,0-.29-2.695,2.084,2.084,0,0,0-1.032-1.128,3.841,3.841,0,0,0-1.772-.38,8.824,8.824,0,0,0-2.708.361,6.6,6.6,0,0,0-1.747.986,5.516,5.516,0,0,0-1.4,1.451,2.462,2.462,0,0,0-.31,1.264.547.547,0,0,0,.181.438,2.772,2.772,0,0,0,1.109-.335q.18-.09.689-.29a1.659,1.659,0,0,0,.7-.445,1.93,1.93,0,0,0,.167-.658,3.171,3.171,0,0,1,.31-1.07,1.747,1.747,0,0,1,.787-.632,2.843,2.843,0,0,1,1.186-.245,1,1,0,0,1,.9.387,4.607,4.607,0,0,1,.425,2.373q0,.5-.038.993l-3.211,1.29q-.838.361-.979.438a5.943,5.943,0,0,0-1.348.948,2.925,2.925,0,0,0-.606.87,2.2,2.2,0,0,0-.187.864,1.876,1.876,0,0,0,.632,1.476,2.914,2.914,0,0,0,1.973.561,5.531,5.531,0,0,0,2.464-.5A3.574,3.574,0,0,0,351.454,19.2Zm-3.174.348a1.292,1.292,0,0,1-.335-.916,1.981,1.981,0,0,1,.258-1.044,3.927,3.927,0,0,1,1.283-1.154,8.037,8.037,0,0,1,1.657-.819q.051.568.051,1.135a8.26,8.26,0,0,1-.115,1.863,2.549,2.549,0,0,1-.8.883,1.865,1.865,0,0,1-1.225.413A1.028,1.028,0,0,1,348.28,19.544Z" fill="#231f20"/><path d="M358.4,15.773l-.051,2.266A3.247,3.247,0,0,0,359.1,20.4a2.614,2.614,0,0,0,1.947.76,3.882,3.882,0,0,0,1.747-.406,3.1,3.1,0,0,0,1.271-1.115l-.052-.155a3.05,3.05,0,0,0-.5-.489c-.111.078-.193.138-.245.181a2.844,2.844,0,0,1-.567.373,1.53,1.53,0,0,1-.516.064,1.507,1.507,0,0,1-.657-.142,1.735,1.735,0,0,1-.3-.677A12.3,12.3,0,0,1,361.162,17l.025-4.926.619-.039.232.013h.671a3.194,3.194,0,0,0,.412.052,3.951,3.951,0,0,0,.645-.077,3.147,3.147,0,0,0,.091-.69,2.83,2.83,0,0,0-.078-.613q-.876.026-.967.026-1.147.051-1.212.051l-.3-.013c-.009-.155-.013-.253-.013-.3l.039-.761c.008-.25.013-.6.013-1.044a2.16,2.16,0,0,0-.116-.709H360.5a8.1,8.1,0,0,1-1.451,2.009,7.938,7.938,0,0,1-2.2,1.262c-.018.332-.025.523-.025.575a.391.391,0,0,0,.077.217l.167.064.929-.026.4.026Z" fill="#231f20"/><path d="M368.227,7.436a1.675,1.675,0,0,0,.884-.264,1.584,1.584,0,0,0,.632-.7,2.1,2.1,0,0,0,.2-.876,1.425,1.425,0,0,0-.5-1.064,1.776,1.776,0,0,0-1.263-.471,1.584,1.584,0,0,0-1.161.445,1.534,1.534,0,0,0-.451,1.141,1.732,1.732,0,0,0,.522,1.264A1.58,1.58,0,0,0,368.227,7.436Z" fill="#231f20"/><path d="M366.757,18.809v.142a1.584,1.584,0,0,1-.122.78.783.783,0,0,1-.445.264l-1.457.193.026.838q.218,0,.811-.045t1.223-.045q2.2,0,3.513.064.4.026.593.026c.111,0,.282,0,.515-.013l.025-.709a2.773,2.773,0,0,0-.555-.129,8,8,0,0,1-1.3-.284,8.278,8.278,0,0,1-.052-.98l.09-5.261q0-2.552-.051-4.152H368.7a5.389,5.389,0,0,1-1.483,1.1,6.247,6.247,0,0,1-2.333.554v.722a5.212,5.212,0,0,1,1.311.207,1.13,1.13,0,0,1,.52.335,4.6,4.6,0,0,1,.078.825l-.039,2.1.02.606-.02.645q.04.7.039.941,0,.31-.02.716C366.764,18.519,366.757,18.706,366.757,18.809Z" fill="#231f20"/><path d="M382.951,11.626a5.535,5.535,0,0,0-4.208-1.586,7.331,7.331,0,0,0-2.11.265,5.974,5.974,0,0,0-1.736.883,5.5,5.5,0,0,0-1.091,1.083,4.978,4.978,0,0,0-.781,1.515,5.56,5.56,0,0,0-.284,1.734,6.1,6.1,0,0,0,.6,2.85,5.578,5.578,0,0,0,2,2.05,6.167,6.167,0,0,0,3.414.9,6.324,6.324,0,0,0,3.149-.761,5.36,5.36,0,0,0,2.156-2.36,6.253,6.253,0,0,0,.529-2.785,5.359,5.359,0,0,0-.407-1.953A5.142,5.142,0,0,0,382.951,11.626Zm-1.675,6.328a3.553,3.553,0,0,1-.929,1.878,2.239,2.239,0,0,1-1.586.6,2.777,2.777,0,0,1-1.354-.31,2.1,2.1,0,0,1-.812-.71,4.717,4.717,0,0,1-.528-1.485q-.051-.245-.168-1.846a17.135,17.135,0,0,1,.193-2.983A2.989,2.989,0,0,1,377,11.46a2.447,2.447,0,0,1,1.645-.555,2.474,2.474,0,0,1,2.037.975,5.453,5.453,0,0,1,.773,3.325A14.665,14.665,0,0,1,381.276,17.955Z" fill="#231f20"/><path d="M399.019,20.145a2.334,2.334,0,0,1-.709-.182,1.033,1.033,0,0,1-.1-.491l.052-4.211a11.341,11.341,0,0,0-.283-3.178,2.86,2.86,0,0,0-1.2-1.389,3.779,3.779,0,0,0-2.124-.6,5.66,5.66,0,0,0-2.175.477,7.4,7.4,0,0,0-1.944,1.29c-.018-.327-.025-.524-.025-.593a3.049,3.049,0,0,1,.025-.349l.025-1.457-.7.052a5.008,5.008,0,0,1-.928.941,4.26,4.26,0,0,0-.349.258c-.095.051-.163.09-.206.116q-.207.1-.915.361-.9.232-1.038.251a2.016,2.016,0,0,0-.3.071l.014.619a4.22,4.22,0,0,1,1.225.5.757.757,0,0,1,.322.387,5.642,5.642,0,0,1,.129,1.33v.813l.039,1.355-.014.917v1.123a5.051,5.051,0,0,1-.077,1.136.579.579,0,0,1-.258.284,3.247,3.247,0,0,1-.825.194,2.584,2.584,0,0,0-.619.207c-.009.2-.013.338-.013.406a.7.7,0,0,0,.052.267q1.951-.09,2.984-.09l1.383.029a6.429,6.429,0,0,0,.853.087c.181,0,.405,0,.672-.013a1.988,1.988,0,0,0,.092-.477,2.042,2.042,0,0,0-.04-.322,2.681,2.681,0,0,1-1.287-.6,8.124,8.124,0,0,1-.169-2.373l.025-.322L390.56,14.9l.026-.864-.026-.812.026-.219a6.715,6.715,0,0,1,1.595-1.117,3.463,3.463,0,0,1,1.492-.368,1.566,1.566,0,0,1,1.466.968,9.7,9.7,0,0,1,.347,3.4l-.013,1.5q.013.582.013,1.666a2.272,2.272,0,0,1-.1.839c-.026.069-.125.138-.3.207a3.145,3.145,0,0,1-.426.09q-.722.09-.9.129a4.868,4.868,0,0,0-.025.487c0,.058,0,.141.013.249h.438l1.7-.116h.593l.748-.026,2.527.181c.008-.178.013-.317.013-.419a.689.689,0,0,0-.116-.406Z" fill="#231f20"/><path d="M412.338,18.8l-.3-.193-.231.09-.387.606a.387.387,0,0,1-.241.077.443.443,0,0,1-.374-.2,1.334,1.334,0,0,1-.146-.741v-.4l-.026-1.56.026-2.128a8.47,8.47,0,0,0-.29-2.695,2.084,2.084,0,0,0-1.032-1.128,3.841,3.841,0,0,0-1.772-.38,8.824,8.824,0,0,0-2.708.361,6.6,6.6,0,0,0-1.747.986,5.516,5.516,0,0,0-1.4,1.451,2.462,2.462,0,0,0-.31,1.264.547.547,0,0,0,.181.438,2.772,2.772,0,0,0,1.109-.335q.18-.09.689-.29a1.659,1.659,0,0,0,.7-.445,1.93,1.93,0,0,0,.167-.658,3.171,3.171,0,0,1,.31-1.07,1.747,1.747,0,0,1,.787-.632,2.843,2.843,0,0,1,1.186-.245,1,1,0,0,1,.9.387,4.607,4.607,0,0,1,.425,2.373q0,.5-.038.993l-3.211,1.29q-.838.361-.979.438a5.943,5.943,0,0,0-1.348.948,2.925,2.925,0,0,0-.606.87,2.2,2.2,0,0,0-.187.864,1.876,1.876,0,0,0,.632,1.476,2.914,2.914,0,0,0,1.973.561,5.531,5.531,0,0,0,2.464-.5,3.574,3.574,0,0,0,1.561-1.476,3.622,3.622,0,0,0,1,1.476,2.087,2.087,0,0,0,1.309.419,1.85,1.85,0,0,0,1.25-.432,3.158,3.158,0,0,0,.813-1.58l-.014-.064A.362.362,0,0,0,412.338,18.8Zm-4.59-.187a2.549,2.549,0,0,1-.8.883,1.865,1.865,0,0,1-1.225.413,1.028,1.028,0,0,1-.774-.361,1.292,1.292,0,0,1-.335-.916,1.981,1.981,0,0,1,.258-1.044,3.927,3.927,0,0,1,1.283-1.154,8.037,8.037,0,0,1,1.657-.819q.051.568.051,1.135A8.26,8.26,0,0,1,407.749,18.609Z" fill="#231f20"/><path d="M419.573,20.253q-.794-.1-1.063-.129a1.016,1.016,0,0,1-.653-.206,1.317,1.317,0,0,1-.179-.786v-.309l-.026-1.881V11.234l-.025-.245v-.077q.025-.3.025-.786,0-1.649-.077-6.107c-.145-.008-.255-.013-.332-.013l-.357.013a7,7,0,0,1-1.674.832,9.013,9.013,0,0,1-2.11.522,1.168,1.168,0,0,0-.026.232,4.314,4.314,0,0,0,.039.477,2.5,2.5,0,0,0,.584.064,1.877,1.877,0,0,1,.975.271,5.284,5.284,0,0,1,.169,1.559v.516l.025,2.976v2.6l.026.863v3.633a2.432,2.432,0,0,1-.26,1.365q-.13.168-1.025.271a1.641,1.641,0,0,0-.753.249l.052.6h.941q1.393-.116,2.128-.116l.477.012q1.291,0,2.141.058l1.019.046a3.416,3.416,0,0,0,.026-.361A1.989,1.989,0,0,0,419.573,20.253Z" fill="#231f20"/><path d="M218.744,49.032a3.119,3.119,0,0,1-.986-.5,9.995,9.995,0,0,1-1.012-1.554l-2.057-3.339q-.334-.542-.873-1.315a7.416,7.416,0,0,1-.411-.632,5.119,5.119,0,0,0,2.589-1.605,3.718,3.718,0,0,0,.842-2.366,4,4,0,0,0-1.56-3.088,6.213,6.213,0,0,0-4.2-1.348,31.286,31.286,0,0,0-3.185.155l-1.612.078-.684.039q-.078,0-1.006-.078-.9.013-1.2.013a7.538,7.538,0,0,0-1.186.1l-.052.142.026.773q.348.064,1.393.129l.761.155q.064.748.064,3.43,0,1.225-.039,2.631l-.026.7.026,1.2L204.3,44.3l.013,2.875q0,1.058-.026,1.238a3.354,3.354,0,0,1-.077.374,5.46,5.46,0,0,1-1.187.277,2.965,2.965,0,0,0-.993.264,2.894,2.894,0,0,0-.039.4q0,.09.026.413h.555a13.554,13.554,0,0,0,1.483-.09l1.779-.116q.141-.012.477-.013.516,0,3.288.245l.528-.026c.043,0,.146,0,.31.013a6.547,6.547,0,0,0,.052-.954,10.636,10.636,0,0,0-1.728-.49,2.916,2.916,0,0,1-.941-.335l.077-2.424-.064-2.863a8.781,8.781,0,0,1,.039-.89q.619-.026.876-.026a2.41,2.41,0,0,1,1.328.271,5,5,0,0,1,.9,1.431q1.38,2.733,1.946,3.984.22.477.762,1.444l.438.851c.138-.017.323-.039.555-.064q.76-.09.9-.09l1.29.013a6.765,6.765,0,0,1,1.019.064h.528l.671.09.258-.013h.348c.009-.12.014-.219.014-.3a1.18,1.18,0,0,0-.078-.387A4.059,4.059,0,0,0,218.744,49.032Zm-6.9-8.807a4.788,4.788,0,0,1-3.106.786q-.284,0-.9-.025v-.361q.012-.941.039-1.534l-.013-1.406.039-1.057-.026-1.741.026-.245a6.888,6.888,0,0,1,1.017-.064,6.112,6.112,0,0,1,1.813.193,2.979,2.979,0,0,1,1.247.761,2.683,2.683,0,0,1,.56,1.064,5.053,5.053,0,0,1,.226,1.528A2.632,2.632,0,0,1,211.845,40.225Z" fill="#231f20"/><path d="M228.712,48.123a5.825,5.825,0,0,1-1.09.329,8.642,8.642,0,0,1-1.328.064l-.748-.246a3.265,3.265,0,0,1-1.024-.595,3.7,3.7,0,0,1-.832-.989,4.589,4.589,0,0,1-.5-1.332,6.685,6.685,0,0,1-.167-1.441,2.189,2.189,0,0,1,.025-.311h1.108q1.3-.026,1.393-.025.284,0,1.032.064,2.011.113,2.6.113l1.432.024a4.929,4.929,0,0,0-.3-1.687,4.3,4.3,0,0,0-.716-1.211,6.05,6.05,0,0,0-1.16-1.018,3.8,3.8,0,0,0-1.251-.535,8.342,8.342,0,0,0-1.96-.187,5.237,5.237,0,0,0-1.379.246,5.038,5.038,0,0,0-1.477.787,6.613,6.613,0,0,0-1.541,1.652,5.736,5.736,0,0,0-.593,1.459,10.329,10.329,0,0,0-.181,2.027,5.354,5.354,0,0,0,.322,1.575,5.435,5.435,0,0,0,.748,1.458,4.746,4.746,0,0,0,1.2,1.188,5.044,5.044,0,0,0,1.56.71,6.313,6.313,0,0,0,1.663.181,6.447,6.447,0,0,0,2.728-.561,7.428,7.428,0,0,0,2.354-1.812q-.311-.271-.773-.606A6.411,6.411,0,0,1,228.712,48.123ZM223.9,40.715a1.976,1.976,0,0,1,2.708-.392,2.179,2.179,0,0,1,.838,1.03,3.8,3.8,0,0,1,.284,1.386c-.155-.006-.271-.01-.349-.01-.1,0-.279.012-.528.036q-.516.039-.8.039l-2.939-.026A3.291,3.291,0,0,1,223.9,40.715Z" fill="#231f20"/><path d="M239.287,43.951a12.947,12.947,0,0,0-2.494-.748,3.088,3.088,0,0,1-1.569-.684,1.234,1.234,0,0,1-.457-.864,1.269,1.269,0,0,1,.438-1.019,2.231,2.231,0,0,1,1.5-.516,2.5,2.5,0,0,1,1.5.471,4.762,4.762,0,0,1,1.271,1.618q.193.361.31.542a3.746,3.746,0,0,0,.374.026,1.963,1.963,0,0,0,.554-.1.541.541,0,0,0,.039-.193q0-.193-.142-1.264t-.22-1.367a5.548,5.548,0,0,0-1.572-.5,12.237,12.237,0,0,0-2.153-.167,4.386,4.386,0,0,0-1.619.3,3.235,3.235,0,0,0-1.928,1.76,3.918,3.918,0,0,0-.283,1.6,3.145,3.145,0,0,0,.335,1.264,2.873,2.873,0,0,0,.716.929,3.536,3.536,0,0,0,1.077.645q.27.1,1.566.425a13.78,13.78,0,0,1,1.618.464,2.209,2.209,0,0,1,.877.574,1.136,1.136,0,0,1,.219.7,1.514,1.514,0,0,1-.58,1.128,2.009,2.009,0,0,1-1.393.522,2.619,2.619,0,0,1-.9-.155,3.985,3.985,0,0,1-.929-.426,5.405,5.405,0,0,1-.89-.851,13.366,13.366,0,0,1-.915-1.483l-.116-.129c-.121-.008-.211-.013-.271-.013a3.264,3.264,0,0,0-.567.077q.012.31.219,1.883a6.393,6.393,0,0,0,.174,1.077.474.474,0,0,0,.2.187q.76.322.941.374a9.572,9.572,0,0,0,1.276.258q1.2.129,1.482.129a4.823,4.823,0,0,0,3.295-1,3.2,3.2,0,0,0,1.128-2.5,3.081,3.081,0,0,0-.472-1.7A3.757,3.757,0,0,0,239.287,43.951Z" fill="#231f20"/><path d="M252.089,48.123a5.825,5.825,0,0,1-1.09.329,8.642,8.642,0,0,1-1.328.064l-.748-.246a3.265,3.265,0,0,1-1.024-.595,3.7,3.7,0,0,1-.832-.989,4.589,4.589,0,0,1-.5-1.332,6.685,6.685,0,0,1-.167-1.441,2.189,2.189,0,0,1,.025-.311h1.108q1.3-.026,1.393-.025.284,0,1.032.064,2.011.113,2.6.113l1.432.024a4.929,4.929,0,0,0-.3-1.687,4.3,4.3,0,0,0-.716-1.211,6.05,6.05,0,0,0-1.16-1.018,3.8,3.8,0,0,0-1.251-.535,8.342,8.342,0,0,0-1.96-.187,5.237,5.237,0,0,0-1.379.246,5.038,5.038,0,0,0-1.477.787,6.613,6.613,0,0,0-1.541,1.652,5.736,5.736,0,0,0-.593,1.459,10.329,10.329,0,0,0-.181,2.027,5.354,5.354,0,0,0,.322,1.575,5.435,5.435,0,0,0,.748,1.458,4.746,4.746,0,0,0,1.2,1.188,5.044,5.044,0,0,0,1.56.71,6.313,6.313,0,0,0,1.663.181,6.447,6.447,0,0,0,2.728-.561A7.428,7.428,0,0,0,254,48.052q-.311-.271-.773-.606A6.411,6.411,0,0,1,252.089,48.123Zm-4.816-7.408a1.976,1.976,0,0,1,2.708-.392,2.179,2.179,0,0,1,.838,1.03,3.8,3.8,0,0,1,.284,1.386c-.155-.006-.271-.01-.349-.01-.1,0-.279.012-.528.036q-.516.039-.8.039l-2.939-.026A3.291,3.291,0,0,1,247.273,40.715Z" fill="#231f20"/><path d="M267.1,47.9l-.3-.193-.231.09-.387.606a.387.387,0,0,1-.241.077.443.443,0,0,1-.374-.2,1.334,1.334,0,0,1-.146-.741v-.4l-.026-1.56.026-2.128a8.47,8.47,0,0,0-.29-2.695,2.084,2.084,0,0,0-1.032-1.128,3.841,3.841,0,0,0-1.772-.38,8.824,8.824,0,0,0-2.708.361,6.6,6.6,0,0,0-1.747.986,5.516,5.516,0,0,0-1.4,1.451,2.462,2.462,0,0,0-.31,1.264.547.547,0,0,0,.181.438,2.772,2.772,0,0,0,1.109-.335q.18-.09.689-.29a1.659,1.659,0,0,0,.7-.445,1.93,1.93,0,0,0,.167-.658,3.171,3.171,0,0,1,.31-1.07,1.747,1.747,0,0,1,.787-.632,2.843,2.843,0,0,1,1.186-.245,1,1,0,0,1,.9.387,4.607,4.607,0,0,1,.425,2.373q0,.5-.038.993l-3.211,1.29q-.838.361-.979.438a5.943,5.943,0,0,0-1.348.948,2.925,2.925,0,0,0-.606.87,2.2,2.2,0,0,0-.187.864,1.876,1.876,0,0,0,.632,1.476,2.914,2.914,0,0,0,1.973.561,5.531,5.531,0,0,0,2.464-.5A3.574,3.574,0,0,0,262.89,48.3a3.622,3.622,0,0,0,1,1.476,2.087,2.087,0,0,0,1.309.419,1.85,1.85,0,0,0,1.25-.432,3.158,3.158,0,0,0,.813-1.58l-.014-.064A.362.362,0,0,0,267.1,47.9Zm-4.59-.187a2.549,2.549,0,0,1-.8.883,1.865,1.865,0,0,1-1.225.413,1.028,1.028,0,0,1-.774-.361,1.292,1.292,0,0,1-.335-.916,1.981,1.981,0,0,1,.258-1.044,3.927,3.927,0,0,1,1.283-1.154,8.037,8.037,0,0,1,1.657-.819q.051.568.051,1.135A8.26,8.26,0,0,1,262.515,47.71Z" fill="#231f20"/><path d="M274.919,39.142a1.634,1.634,0,0,0-.993.323,7.751,7.751,0,0,0-.684.632,12.324,12.324,0,0,0-.773,1.212q-.013-.929-.013-1.07,0-.3.013-.748c.009-.137.013-.253.013-.348a2.4,2.4,0,0,0-.064-.49l-.9.026a3.377,3.377,0,0,0-.361.451,4.5,4.5,0,0,1-1.16,1.064,4,4,0,0,1-1.728.651l.038.477a.378.378,0,0,0,.31.284,3.856,3.856,0,0,1,.877.3.563.563,0,0,1,.206.361,43.609,43.609,0,0,1,.142,4.4,9.779,9.779,0,0,1-.115,2.085,3.854,3.854,0,0,1-1.251.515,1.03,1.03,0,0,0-.438.213,1.8,1.8,0,0,0-.039.306,2.027,2.027,0,0,0,.039.319q1.251-.064,1.341-.064h.22a16.733,16.733,0,0,1,1.688-.078l2.463.116h1.212a1.284,1.284,0,0,0,.078-.379.454.454,0,0,0-.129-.359,1.589,1.589,0,0,0-.723-.164,4.3,4.3,0,0,1-.832-.129,1.543,1.543,0,0,1-.47-.257,1.521,1.521,0,0,1-.245-.643q-.026-3.508-.078-4.459l-.025-.347A2.685,2.685,0,0,1,272.9,42a.955.955,0,0,1,.49-.489l.09-.013a1.066,1.066,0,0,1,.58.284,1.935,1.935,0,0,0,1.16.464,1.224,1.224,0,0,0,1.013-.484,1.719,1.719,0,0,0,.38-1.089,1.418,1.418,0,0,0-.5-1.07A1.69,1.69,0,0,0,274.919,39.142Z" fill="#231f20"/><path d="M287.645,46.762c-.095.1-.272.305-.535.606a4.451,4.451,0,0,1-.535.555,4.18,4.18,0,0,1-.876.5,4.081,4.081,0,0,1-1.251.167,3.521,3.521,0,0,1-2.649-1.27,4.861,4.861,0,0,1-1.167-3.423,4.02,4.02,0,0,1,.954-2.831,2.879,2.879,0,0,1,2.166-1.038,1.45,1.45,0,0,1,.864.258,1.927,1.927,0,0,1,.593.864,2.54,2.54,0,0,0,.741,1.173,1.547,1.547,0,0,0,.974.348,1.244,1.244,0,0,0,.974-.393,1.549,1.549,0,0,0,.354-1.077,1.883,1.883,0,0,0-.877-1.393,5.152,5.152,0,0,0-3.107-.7,7.36,7.36,0,0,0-2.921.554,6.06,6.06,0,0,0-2.146,1.5,5.735,5.735,0,0,0-1.212,2.005,5.986,5.986,0,0,0-.361,1.9,6.2,6.2,0,0,0,.29,1.689,4.5,4.5,0,0,0,.87,1.676A5.291,5.291,0,0,0,280.8,49.87a6.427,6.427,0,0,0,2.554.542,5.763,5.763,0,0,0,3.391-.941,4.02,4.02,0,0,0,1.689-2.231,1.416,1.416,0,0,0-.478-.322A2.526,2.526,0,0,1,287.645,46.762Z" fill="#231f20"/><path d="M302.616,49.238a5.223,5.223,0,0,1-.761-.18.33.33,0,0,1-.115-.155l.064-2.63-.014-1.818v-.825a10.4,10.4,0,0,0-.115-1.934,3.235,3.235,0,0,0-.566-1.27,3.092,3.092,0,0,0-1.127-.877,3.881,3.881,0,0,0-1.718-.354,5.354,5.354,0,0,0-2.009.387,8.881,8.881,0,0,0-2.137,1.315l.026-7.711-.7-.052a3.749,3.749,0,0,0-.362.194,9.635,9.635,0,0,1-1.823.645c-.2.043-.4.095-.62.155l-1.086.232c-.018.189-.025.348-.025.477v.271a4.14,4.14,0,0,1,1.36.361.843.843,0,0,1,.367.529,19.19,19.19,0,0,1,.129,2.966v.361L291.333,44l-.025.219.013.645-.013.258v1.058l-.039.967v.916a1.991,1.991,0,0,1-.129.916.827.827,0,0,1-.516.181q-.942.1-1.147.155v.167a2.432,2.432,0,0,0,.271.645l1.267.013,1.809-.09q.646,0,1.461.058l1.434.058a2.249,2.249,0,0,0,.052-.432c0-.084-.009-.233-.025-.445a2.235,2.235,0,0,0-.51-.058c-.211,0-.475-.019-.793-.045a.56.56,0,0,1-.283-.284,4.287,4.287,0,0,1-.116-1.225q0-.141.021-.7.031-.928.031-2.785V41.94a5.276,5.276,0,0,1,1.309-.9,3.517,3.517,0,0,1,1.579-.38,2.145,2.145,0,0,1,1.187.316,1.482,1.482,0,0,1,.645.813,7.558,7.558,0,0,1,.155,1.9v3.159l-.064,1.883-.064.309q-.349.052-.742.1a2.174,2.174,0,0,0-.689.187.914.914,0,0,0-.064.284l.025.168v.309a.818.818,0,0,0,.259.039q.876,0,1.443-.026.8-.051,1.277-.052.734,0,1.817.1.567.052.761.052l.3-.02a2.614,2.614,0,0,1,.025-.422l.014-.1a.716.716,0,0,0-.1-.307Q302.964,49.3,302.616,49.238Z" fill="#231f20"/><path d="M318.63,33.352a4.486,4.486,0,0,0-.5.039q-1.548.155-2.85.155-1.509,0-2.411-.084t-2.167-.084l.064,1.109.245.039.336.039h.309q1.458.142,1.741.206.013.245.013,1.2l.064.851.064,2.373-.013,2.8q0,.478.039.993c.008.155.013.361.013.619l.038,4.835-.013.967q.026.761.026.876,0,.245-.026.606c-.034.42-.052.864-.052,1.328v.761a2.667,2.667,0,0,1-.3,1.444.6.6,0,0,1-.5.31.983.983,0,0,1-.349-.091,3.279,3.279,0,0,1-.915-1.147,1.755,1.755,0,0,0-1.264-.761,1.557,1.557,0,0,0-1.115.451,1.5,1.5,0,0,0-.471,1.135,1.967,1.967,0,0,0,.664,1.47,2.194,2.194,0,0,0,1.566.632,5.374,5.374,0,0,0,1.921-.367,6.169,6.169,0,0,0,1.974-1.309,8.087,8.087,0,0,0,1.354-2.012,8.325,8.325,0,0,0,.773-2.585,30.821,30.821,0,0,0,.245-4.442l-.025-.993.013-1.354-.039-1.315.026-1.3-.052-1.664v-1.07q0-1.225-.032-1.5t-.032-1.521c0-.043,0-.167.013-.374a3.818,3.818,0,0,1,1.006-.116,12.123,12.123,0,0,0,1.251-.129q.038-.349.038-.516c0-.1-.009-.253-.025-.451A5.91,5.91,0,0,0,318.63,33.352Z" fill="#231f20"/><path d="M330.275,40.728a5.535,5.535,0,0,0-4.208-1.586,7.331,7.331,0,0,0-2.11.265,5.974,5.974,0,0,0-1.736.883,5.5,5.5,0,0,0-1.091,1.083,4.978,4.978,0,0,0-.781,1.515,5.56,5.56,0,0,0-.284,1.734,6.1,6.1,0,0,0,.6,2.85,5.578,5.578,0,0,0,2,2.05,6.167,6.167,0,0,0,3.414.9,6.324,6.324,0,0,0,3.149-.761,5.36,5.36,0,0,0,2.156-2.36,6.253,6.253,0,0,0,.529-2.785,5.359,5.359,0,0,0-.407-1.953A5.142,5.142,0,0,0,330.275,40.728ZM328.6,47.056a3.553,3.553,0,0,1-.929,1.878,2.239,2.239,0,0,1-1.586.6,2.777,2.777,0,0,1-1.354-.31,2.1,2.1,0,0,1-.812-.71,4.717,4.717,0,0,1-.528-1.485q-.051-.245-.168-1.846a17.135,17.135,0,0,1,.193-2.983,2.989,2.989,0,0,1,.909-1.64,2.447,2.447,0,0,1,1.645-.555,2.474,2.474,0,0,1,2.037.975,5.453,5.453,0,0,1,.773,3.325A14.665,14.665,0,0,1,328.6,47.056Z" fill="#231f20"/><path d="M346.833,48.593l-1.187.039c-.068,0-.142-.051-.219-.154a.788.788,0,0,1-.116-.477c0-.06.017-.313.052-.76l-.014-.669.026-.991.013-2.215-.025-1.545.051-1.236-.025-.966q-1.163.026-1.965.026l-1.991-.026a5.1,5.1,0,0,0-.737.064,3.4,3.4,0,0,0-.039.438,2.193,2.193,0,0,0,.052.387.81.81,0,0,0,.142.09l.864.064a2,2,0,0,1,.864.245l.025.284-.013.476c0,.043.006.234.02.573s.019.62.019.843-.008.489-.025.824l-.09,3.206a2.685,2.685,0,0,1-.517.76,4.013,4.013,0,0,1-.6.464,3.349,3.349,0,0,1-.831.438,3.145,3.145,0,0,1-.941.116,1.84,1.84,0,0,1-1.051-.29,1.625,1.625,0,0,1-.626-.856,11.611,11.611,0,0,1-.142-2.047V44.37l.013-1.944-.013-.657.039-1.262-.026-.863-.283-.026h-3.843c-.06.018-.138.043-.231.078-.018.2-.032.339-.046.425a1.473,1.473,0,0,0-.019.206c0,.086.021.142.064.168a3.63,3.63,0,0,0,1.031.271,1.8,1.8,0,0,1,.426.116,1.023,1.023,0,0,1,.129.386q.038.347.038,1.378,0,.6-.064,1.867l-.013.412q0,2.279.025,2.524a3.906,3.906,0,0,0,.361,1.442,2.879,2.879,0,0,0,1.135,1.082,3.661,3.661,0,0,0,1.831.438,4.215,4.215,0,0,0,1.7-.355,7.983,7.983,0,0,0,1.947-1.36q.3-.27.451-.4l.013,2.1.516.026a23.829,23.829,0,0,1,3.018-.916,6.35,6.35,0,0,1,.979-.09,1.574,1.574,0,0,0,.039-.284c0-.043-.013-.215-.039-.516Z" fill="#231f20"/><path d="M354.828,39.142a1.634,1.634,0,0,0-.993.323,7.751,7.751,0,0,0-.684.632,12.324,12.324,0,0,0-.773,1.212q-.013-.929-.013-1.07,0-.3.013-.748c.009-.137.013-.253.013-.348a2.4,2.4,0,0,0-.064-.49l-.9.026a3.377,3.377,0,0,0-.361.451,4.5,4.5,0,0,1-1.16,1.064,4,4,0,0,1-1.728.651l.038.477a.378.378,0,0,0,.31.284,3.856,3.856,0,0,1,.877.3.563.563,0,0,1,.206.361,43.609,43.609,0,0,1,.142,4.4,9.779,9.779,0,0,1-.115,2.085,3.854,3.854,0,0,1-1.251.515,1.03,1.03,0,0,0-.438.213,1.8,1.8,0,0,0-.039.306,2.027,2.027,0,0,0,.039.319q1.251-.064,1.341-.064h.22a16.733,16.733,0,0,1,1.688-.078l2.463.116h1.212a1.284,1.284,0,0,0,.078-.379.454.454,0,0,0-.129-.359,1.589,1.589,0,0,0-.723-.164,4.3,4.3,0,0,1-.832-.129,1.543,1.543,0,0,1-.47-.257,1.521,1.521,0,0,1-.245-.643q-.026-3.508-.078-4.459l-.025-.347A2.685,2.685,0,0,1,352.8,42a.955.955,0,0,1,.49-.489l.09-.013a1.066,1.066,0,0,1,.58.284,1.935,1.935,0,0,0,1.16.464,1.224,1.224,0,0,0,1.013-.484,1.719,1.719,0,0,0,.38-1.089,1.418,1.418,0,0,0-.5-1.07A1.69,1.69,0,0,0,354.828,39.142Z" fill="#231f20"/><path d="M371.086,49.246a2.334,2.334,0,0,1-.709-.182,1.033,1.033,0,0,1-.1-.491l.052-4.211a11.341,11.341,0,0,0-.283-3.178,2.86,2.86,0,0,0-1.2-1.389,3.779,3.779,0,0,0-2.124-.6,5.66,5.66,0,0,0-2.175.477,7.4,7.4,0,0,0-1.944,1.29c-.018-.327-.025-.524-.025-.593a3.049,3.049,0,0,1,.025-.349l.025-1.457-.7.052a5.008,5.008,0,0,1-.928.941,4.26,4.26,0,0,0-.349.258c-.095.051-.163.09-.206.116q-.207.1-.915.361-.9.232-1.038.251a2.016,2.016,0,0,0-.3.071l.014.619a4.22,4.22,0,0,1,1.225.5.757.757,0,0,1,.322.387,5.642,5.642,0,0,1,.129,1.33v.813l.039,1.355-.014.917V47.66a5.051,5.051,0,0,1-.077,1.136.579.579,0,0,1-.258.284,3.247,3.247,0,0,1-.825.194,2.584,2.584,0,0,0-.619.207c-.009.2-.013.338-.013.406a.7.7,0,0,0,.052.267q1.951-.09,2.984-.09l1.383.029a6.429,6.429,0,0,0,.853.087c.181,0,.405,0,.672-.013a1.988,1.988,0,0,0,.092-.477,2.042,2.042,0,0,0-.04-.322,2.681,2.681,0,0,1-1.287-.6,8.124,8.124,0,0,1-.169-2.373l.025-.322-.052-2.063.026-.864-.026-.812.026-.219a6.715,6.715,0,0,1,1.595-1.117,3.463,3.463,0,0,1,1.492-.368,1.566,1.566,0,0,1,1.466.968,9.7,9.7,0,0,1,.347,3.4l-.013,1.5q.013.582.013,1.666a2.272,2.272,0,0,1-.1.839c-.026.069-.125.138-.3.207a3.145,3.145,0,0,1-.426.09q-.722.09-.9.129a4.868,4.868,0,0,0-.025.487c0,.058,0,.141.013.249h.438l1.7-.116h.593l.748-.026,2.527.181c.008-.178.013-.317.013-.419a.689.689,0,0,0-.116-.406Z" fill="#231f20"/><path d="M384.407,47.9l-.3-.193-.231.09-.387.606a.387.387,0,0,1-.241.077.443.443,0,0,1-.374-.2,1.334,1.334,0,0,1-.146-.741v-.4l-.026-1.56.026-2.128a8.47,8.47,0,0,0-.29-2.695,2.084,2.084,0,0,0-1.032-1.128,3.841,3.841,0,0,0-1.772-.38,8.824,8.824,0,0,0-2.708.361,6.6,6.6,0,0,0-1.747.986,5.516,5.516,0,0,0-1.4,1.451,2.462,2.462,0,0,0-.31,1.264.547.547,0,0,0,.181.438,2.772,2.772,0,0,0,1.109-.335q.18-.09.689-.29a1.659,1.659,0,0,0,.7-.445,1.93,1.93,0,0,0,.167-.658,3.171,3.171,0,0,1,.31-1.07,1.747,1.747,0,0,1,.787-.632,2.843,2.843,0,0,1,1.186-.245,1,1,0,0,1,.9.387,4.607,4.607,0,0,1,.425,2.373q0,.5-.038.993l-3.211,1.29q-.838.361-.979.438a5.943,5.943,0,0,0-1.348.948,2.925,2.925,0,0,0-.606.87,2.2,2.2,0,0,0-.187.864,1.876,1.876,0,0,0,.632,1.476,2.914,2.914,0,0,0,1.973.561,5.531,5.531,0,0,0,2.464-.5,3.574,3.574,0,0,0,1.561-1.476,3.622,3.622,0,0,0,1,1.476,2.087,2.087,0,0,0,1.309.419,1.85,1.85,0,0,0,1.25-.432,3.158,3.158,0,0,0,.813-1.58l-.014-.064A.362.362,0,0,0,384.407,47.9Zm-4.59-.187a2.549,2.549,0,0,1-.8.883,1.865,1.865,0,0,1-1.225.413,1.028,1.028,0,0,1-.774-.361,1.292,1.292,0,0,1-.335-.916,1.981,1.981,0,0,1,.258-1.044,3.927,3.927,0,0,1,1.283-1.154,8.037,8.037,0,0,1,1.657-.819q.051.568.051,1.135A8.26,8.26,0,0,1,379.817,47.71Z" fill="#231f20"/><path d="M390.578,49.225a1.016,1.016,0,0,1-.653-.206,1.317,1.317,0,0,1-.179-.786v-.309l-.026-1.881V40.335l-.025-.245v-.077q.025-.3.025-.786,0-1.649-.077-6.107c-.145-.008-.255-.013-.332-.013l-.357.013a7,7,0,0,1-1.674.832,9.013,9.013,0,0,1-2.11.522,1.168,1.168,0,0,0-.026.232,4.314,4.314,0,0,0,.039.477,2.5,2.5,0,0,0,.584.064,1.877,1.877,0,0,1,.975.271,5.284,5.284,0,0,1,.169,1.559v.516l.025,2.976v2.6l.026.863v3.633a2.432,2.432,0,0,1-.26,1.365q-.13.168-1.025.271a1.641,1.641,0,0,0-.753.249l.052.6h.941q1.393-.116,2.128-.116l.477.012q1.291,0,2.141.058l1.019.046a3.416,3.416,0,0,0,.026-.361,1.989,1.989,0,0,0-.064-.438Q390.847,49.251,390.578,49.225Z" fill="#231f20"/><rect x="185.991" width="1.062" height="55.496" fill="#231f20"/></svg>