<svg xmlns="http://www.w3.org/2000/svg" viewBox="0 0 429.703 67.497"><title>bjet-logo</title><path d="M40.361,28.791a14.81,14.81,0,0,0-8.186-4.431,34.216,34.216,0,0,0,4.591-2.35,10.286,10.286,0,0,0,2.918-3.185,7.878,7.878,0,0,0,.961-3.9,10.652,10.652,0,0,0-.641-3.7A9.108,9.108,0,0,0,38.03,8.077a11.227,11.227,0,0,0-3.15-2.313,15.883,15.883,0,0,0-2.918-1.192,21.561,21.561,0,0,0-5.873-.819H23.811q-1.53-.035-1.886-.036-.427,0-.854.036l-1.388.036L8.044,4.18.071,4.358.178,6.885q2.811.356,3.488.392A4.436,4.436,0,0,1,5.8,7.739a.851.851,0,0,1,.356.355,11.826,11.826,0,0,1,.356,3.311q.249,9.93.249,12.278l.071,15.127a44.941,44.941,0,0,1-.285,5.872,4.761,4.761,0,0,1-.641,1.566,15.648,15.648,0,0,1-3.772.926q-1.211.177-2.064.391L0,50.413q6.833-.249,8.329-.32,5.3-.354,9.147-.355l6.05.142a37.531,37.531,0,0,0,6.051-.355,24.4,24.4,0,0,0,6.246-1.815,14.8,14.8,0,0,0,4.289-3.274,9.677,9.677,0,0,0,2.171-3.559,14.975,14.975,0,0,0,.89-4.912A10.647,10.647,0,0,0,40.361,28.791ZM16.336,7.24a27.046,27.046,0,0,1,3.986-.391q5.232,0,7.83,2.277a7.261,7.261,0,0,1,2.6,5.694q0,4.841-2.74,6.816t-8.08,1.975a22.831,22.831,0,0,1-3.345-.213q-.036-1.566-.036-2.35l.036-2.989q0-5.446-.178-8.471Q16.336,8.059,16.336,7.24Zm15.34,35.129A7.955,7.955,0,0,1,27.939,45.8a15.362,15.362,0,0,1-6.62,1.229,11.282,11.282,0,0,1-4.307-.961,4.4,4.4,0,0,1-.356-1.353l-.106-8.187.036-5.268V26.887a10.091,10.091,0,0,1,3.1-.32,22.2,22.2,0,0,1,7.581.979,8.973,8.973,0,0,1,4.307,3.826,10.3,10.3,0,0,1,1.281,5.48A11.651,11.651,0,0,1,31.677,42.369Z" fill="#231f20"/><path d="M70.115,3.824a12.5,12.5,0,0,0-1.388.106q-4.271.428-7.866.427-4.165,0-6.656-.231T48.227,3.9L48.4,6.956l.676.106.925.107h.854q4.021.391,4.8.569.035.677.036,3.31l.178,2.35.178,6.549-.036,7.723q0,1.317.106,2.741.035.64.036,1.708l.107,13.347-.036,2.67q.071,2.1.071,2.42,0,.675-.071,1.673-.143,1.743-.142,3.666v2.1a7.354,7.354,0,0,1-.819,3.986,1.649,1.649,0,0,1-1.388.854,2.739,2.739,0,0,1-.961-.249A9.066,9.066,0,0,1,50.4,59.418q-1.781-2.1-3.488-2.1a4.3,4.3,0,0,0-3.079,1.245,4.157,4.157,0,0,0-1.3,3.132,5.437,5.437,0,0,0,1.833,4.058A6.068,6.068,0,0,0,48.689,67.5a14.837,14.837,0,0,0,5.3-1.015,17,17,0,0,0,5.445-3.612,22.224,22.224,0,0,0,3.737-5.552,23.033,23.033,0,0,0,2.135-7.137,85,85,0,0,0,.676-12.261l-.071-2.741.036-3.736-.107-3.631.071-3.595-.143-4.591V16.673q0-3.381-.089-4.129t-.089-4.2c0-.118.012-.463.035-1.032a10.57,10.57,0,0,1,2.776-.32,33.339,33.339,0,0,0,3.453-.355q.106-.961.106-1.424c0-.285-.024-.7-.071-1.246A16.237,16.237,0,0,0,70.115,3.824Z" fill="#231f20"/><path d="M120.015,37a18.122,18.122,0,0,1-4.022,6.691,8.354,8.354,0,0,1-4.2,2.385,40.386,40.386,0,0,1-8.4.747q-7.474,0-8.934-.747a1.892,1.892,0,0,1-.961-1.851l.071-7.688q-.143-2.811-.143-7.047v-1.21q2.71-.284,8.1-.285a28.358,28.358,0,0,1,5.279.249,2.593,2.593,0,0,1,1.426.961,14.4,14.4,0,0,1,1.284,4.129q.392,1.78.535,2.35h2.527V34.9q0-1.033-.107-3.15t-.107-3.078q0-.6.054-1.673t.053-4.8q0-1.638-.143-4.806l-2.064-.035-.463.035a48.806,48.806,0,0,1-1.249,5.232,3.67,3.67,0,0,1-1.142,1.548,8.867,8.867,0,0,1-3.353.694q-2.711.249-9.1.249A13.127,13.127,0,0,1,93.428,25V20.517l-.036-5.979q0-6.122.107-7.012,3.417-.142,7.759-.143,3.808,0,7.119.285,1.815.142,2.171.178a9.6,9.6,0,0,1,2.278.285,16.406,16.406,0,0,1,2.278,3.274l1.424,2.526q.534,1.389.854,2.1c.617.048,1.02.07,1.21.07l1.459-.07q.035-.428.036-.641l-.071-1.46V6.6a2.767,2.767,0,0,0-.641-1.921,55.812,55.812,0,0,0-6.406-.534l-6.442.071q-6.406,0-14.343.32-5.3.213-6.584.213a47.721,47.721,0,0,1-6.513-.392q-1.495-.213-3.523-.32l-.178,2.847q.889.107,1.566.143a23.264,23.264,0,0,1,3.915.5q.676.142,1.068.214a1.741,1.741,0,0,1,1.068.5,6.808,6.808,0,0,1,.071.712l.32,4.413-.036,4.021.178,5.7L83.5,27.1,83.6,40.519l-.036,1.1q.035,1.46.036,2.064a7.4,7.4,0,0,1-.392,2.6,17.177,17.177,0,0,1-5.125,1.14,21.894,21.894,0,0,0-2.705.392v2.455l4.31-.142h1.5q6.233-.356,10.508-.356,8.583,0,14.675.249,8.655.356,10.65.356,1.354,0,3.669-.107l.631-4.057,1.3-6.728.21-1.067q.07-.6.175-1.5-.784-.035-1.174-.035Q121.117,36.889,120.015,37Z" fill="#231f20"/><path d="M173.58,1.973q-.712-.034-1.068-.035l-1.566.035q-.249.578-.392.9a3.988,3.988,0,0,1-1,1.729l-2.1.288h-11l-8.043-.036-4.307.036-.712.08Q141.263,5,138.522,5q-4.414,0-4.876-.106a12.62,12.62,0,0,1-1.53-2.271q-.107-.18-.356-.577h-2.207q-.249.713-.818,2.741a69.93,69.93,0,0,1-3.061,9.254,7.94,7.94,0,0,0,2.1,1.388q.427,0,1.317-1.139,3.061-3.951,4.591-4.841a10.4,10.4,0,0,1,4.484-.641q6.086,0,7.189.143a.87.87,0,0,1,.5.2.9.9,0,0,1,.249.48,57.537,57.537,0,0,1,.213,6.728l.178,13.453q0,9.325-.249,13.6a4.471,4.471,0,0,1-.427,1.78,27.114,27.114,0,0,1-5.125,1.6,5.008,5.008,0,0,0-2.954,1.53V48.6l.036.819q.035.284.071.818.6,0,2.634-.143,5.2-.426,6.264-.427,6.726,0,9.289.267a61.533,61.533,0,0,0,6.229.267c.332,0,.759-.011,1.281-.035a5.818,5.818,0,0,0,.107-.926q0-.284-.179-1.565a13.893,13.893,0,0,0-1.9-.569q-2.361-.535-2.646-.569a9.245,9.245,0,0,1-2.11-.463,12.038,12.038,0,0,1-.429-3.7l.035-4.627-.106-11.282V16l-.036-4.77a18.528,18.528,0,0,1,.179-2.277q1.5-.142,2.5-.143,6.707,0,7.564.178a2.013,2.013,0,0,1,1,.605,16.383,16.383,0,0,1,1.374,2.918,24.015,24.015,0,0,0,2.016,4.022,12.716,12.716,0,0,0,2.563-.569,7.917,7.917,0,0,0,.142-1.6l.036-1.815-.036-3.168Q173.616,4.429,173.58,1.973Z" fill="#231f20"/><path d="M207,22.243l1.826.043a11.25,11.25,0,0,0,1.826-.107,7.312,7.312,0,0,0,1.885-.548,4.452,4.452,0,0,0,1.295-.988,2.923,2.923,0,0,0,.655-1.074,4.524,4.524,0,0,0,.269-1.482,3.213,3.213,0,0,0-.849-2.164,4.471,4.471,0,0,0-2.471-1.338,10.269,10.269,0,0,0,1.386-.709,3.1,3.1,0,0,0,.881-.961,2.378,2.378,0,0,0,.29-1.177,3.218,3.218,0,0,0-.193-1.117,2.737,2.737,0,0,0-.6-.95,3.363,3.363,0,0,0-.95-.7,4.835,4.835,0,0,0-.881-.36,6.522,6.522,0,0,0-1.772-.247h-.687c-.308-.007-.5-.011-.569-.011s-.172,0-.258.011l-.419.011-3.513.118-2.406.054.032.763q.848.108,1.053.118a1.35,1.35,0,0,1,.645.14.264.264,0,0,1,.107.107,3.586,3.586,0,0,1,.107,1q.075,3,.075,3.706l.021,4.565a13.563,13.563,0,0,1-.086,1.772,1.436,1.436,0,0,1-.193.473,4.707,4.707,0,0,1-1.139.279q-.365.054-.623.118l-.021.859q2.063-.075,2.514-.1Q205.835,22.244,207,22.243Zm4.641-3.889a3.514,3.514,0,0,1-.354,1.665,2.4,2.4,0,0,1-1.128,1.037,4.64,4.64,0,0,1-2,.37,3.4,3.4,0,0,1-1.3-.29,1.315,1.315,0,0,1-.107-.408l-.032-2.471.011-1.59V15.347a3.04,3.04,0,0,1,.935-.1,6.691,6.691,0,0,1,2.288.3,2.712,2.712,0,0,1,1.3,1.154A3.11,3.11,0,0,1,211.636,18.354ZM207.855,9.3a3.5,3.5,0,0,1,2.363.688A2.193,2.193,0,0,1,211,11.705a2.366,2.366,0,0,1-.827,2.058,4.153,4.153,0,0,1-2.438.6,6.9,6.9,0,0,1-1.01-.064q-.011-.472-.011-.709l.011-.9q0-1.644-.054-2.557-.022-.461-.021-.709A8.246,8.246,0,0,1,207.855,9.3Z" fill="#231f20"/><path d="M217.555,22.286a14,14,0,0,1,1.407-.064l2.052.1h1.01a1.062,1.062,0,0,0,.064-.315.379.379,0,0,0-.107-.3,1.33,1.33,0,0,0-.6-.136,3.7,3.7,0,0,1-.693-.107,1.288,1.288,0,0,1-.392-.215,1.271,1.271,0,0,1-.2-.535q-.022-2.922-.064-3.715L220,16.706a2.244,2.244,0,0,1,.3-1.113.8.8,0,0,1,.408-.407l.075-.011a.89.89,0,0,1,.483.236,1.613,1.613,0,0,0,.967.387,1.021,1.021,0,0,0,.844-.4,1.432,1.432,0,0,0,.316-.908,1.183,1.183,0,0,0-.419-.892,1.408,1.408,0,0,0-.988-.387,1.363,1.363,0,0,0-.827.269A6.569,6.569,0,0,0,220.6,14a10.388,10.388,0,0,0-.645,1.01q-.01-.773-.011-.892,0-.246.011-.623c.007-.114.011-.211.011-.29a1.976,1.976,0,0,0-.054-.408l-.752.021a2.857,2.857,0,0,0-.3.376,3.747,3.747,0,0,1-.967.887,3.328,3.328,0,0,1-1.439.542l.032.4a.313.313,0,0,0,.258.236,3.186,3.186,0,0,1,.73.247.465.465,0,0,1,.172.3,36.27,36.27,0,0,1,.118,3.668,8.112,8.112,0,0,1-.1,1.737,3.207,3.207,0,0,1-1.042.429.859.859,0,0,0-.365.178,1.44,1.44,0,0,0-.032.255,1.639,1.639,0,0,0,.032.266c.694-.035,1.067-.054,1.117-.054Z" fill="#231f20"/><path d="M226.632,11.039a1.392,1.392,0,0,0,.735-.22,1.315,1.315,0,0,0,.527-.586,1.754,1.754,0,0,0,.166-.73,1.188,1.188,0,0,0-.419-.886,1.479,1.479,0,0,0-1.053-.393,1.32,1.32,0,0,0-.967.371,1.275,1.275,0,0,0-.376.95,1.441,1.441,0,0,0,.436,1.053A1.313,1.313,0,0,0,226.632,11.039Z" fill="#231f20"/><path d="M229.307,21.76a2.373,2.373,0,0,0-.462-.107,6.586,6.586,0,0,1-1.085-.236,7.1,7.1,0,0,1-.043-.816l.075-4.383q0-2.127-.043-3.459h-.72a4.474,4.474,0,0,1-1.235.913,5.2,5.2,0,0,1-1.944.462v.6a4.393,4.393,0,0,1,1.093.172.935.935,0,0,1,.432.279,3.759,3.759,0,0,1,.065.688l-.032,1.751.017.5-.017.537q.032.58.032.784c0,.172-.006.371-.016.6s-.017.381-.017.467v.118a1.308,1.308,0,0,1-.1.65.645.645,0,0,1-.37.22l-1.214.161.021.7c.121,0,.347-.012.676-.037s.668-.038,1.019-.038q1.833,0,2.927.054c.222.015.386.021.493.021s.235,0,.429-.011Z" fill="#231f20"/><path d="M230.4,14.928l.773-.021.333.021v3.058l-.043,1.888a2.7,2.7,0,0,0,.623,1.963,2.175,2.175,0,0,0,1.622.633,3.227,3.227,0,0,0,1.455-.338,2.577,2.577,0,0,0,1.059-.93l-.043-.129a2.532,2.532,0,0,0-.419-.407c-.093.064-.161.114-.2.15a2.317,2.317,0,0,1-.473.311,1.268,1.268,0,0,1-.43.054,1.251,1.251,0,0,1-.548-.118,1.45,1.45,0,0,1-.253-.563,10.348,10.348,0,0,1-.048-1.488l.021-4.1.516-.032.193.011h.559a2.516,2.516,0,0,0,.344.043,3.273,3.273,0,0,0,.537-.064,2.65,2.65,0,0,0,.075-.574,2.367,2.367,0,0,0-.064-.511q-.731.022-.806.021c-.638.029-.974.043-1.01.043l-.247-.011c-.007-.129-.011-.211-.011-.247l.032-.634q.01-.311.011-.87a1.8,1.8,0,0,0-.1-.591h-.6a6.735,6.735,0,0,1-1.209,1.674,6.617,6.617,0,0,1-1.831,1.051c-.015.277-.021.437-.021.479a.326.326,0,0,0,.064.181Z" fill="#231f20"/><path d="M242.348,22.351l.021-.591a2.373,2.373,0,0,0-.462-.107,6.586,6.586,0,0,1-1.085-.236,7.1,7.1,0,0,1-.043-.816l.075-4.383q0-2.127-.043-3.459h-.72a4.474,4.474,0,0,1-1.235.913,5.2,5.2,0,0,1-1.944.462v.6a4.393,4.393,0,0,1,1.093.172.935.935,0,0,1,.432.279,3.759,3.759,0,0,1,.065.688l-.032,1.751.017.5-.017.537q.032.58.032.784c0,.172-.006.371-.016.6s-.017.381-.017.467v.118a1.308,1.308,0,0,1-.1.65.645.645,0,0,1-.37.22l-1.214.161.021.7c.121,0,.347-.012.676-.037s.668-.038,1.019-.038q1.833,0,2.927.054c.222.015.386.021.493.021S242.155,22.358,242.348,22.351Z" fill="#231f20"/><path d="M239.695,11.039a1.392,1.392,0,0,0,.735-.22,1.315,1.315,0,0,0,.527-.586,1.754,1.754,0,0,0,.166-.73,1.188,1.188,0,0,0-.419-.886,1.479,1.479,0,0,0-1.053-.393,1.32,1.32,0,0,0-.967.371,1.275,1.275,0,0,0-.376.95,1.441,1.441,0,0,0,.436,1.053A1.313,1.313,0,0,0,239.695,11.039Z" fill="#231f20"/><path d="M249.133,17.216a10.836,10.836,0,0,0-2.078-.623,2.564,2.564,0,0,1-1.307-.569,1.026,1.026,0,0,1-.382-.72,1.059,1.059,0,0,1,.365-.849,1.859,1.859,0,0,1,1.246-.43,2.077,2.077,0,0,1,1.251.393,3.962,3.962,0,0,1,1.059,1.348q.161.3.258.451a3.116,3.116,0,0,0,.312.021,1.626,1.626,0,0,0,.462-.086.455.455,0,0,0,.032-.161q0-.161-.118-1.053T250.05,13.8a4.668,4.668,0,0,0-1.311-.419,10.225,10.225,0,0,0-1.794-.14,3.659,3.659,0,0,0-1.348.247,2.691,2.691,0,0,0-1.606,1.467,3.26,3.26,0,0,0-.236,1.337,2.617,2.617,0,0,0,.279,1.053,2.371,2.371,0,0,0,.6.773,2.926,2.926,0,0,0,.9.537q.226.086,1.3.354a11.594,11.594,0,0,1,1.349.387,1.844,1.844,0,0,1,.73.479.941.941,0,0,1,.183.585,1.261,1.261,0,0,1-.483.94,1.674,1.674,0,0,1-1.16.435,2.185,2.185,0,0,1-.752-.129,3.29,3.29,0,0,1-.773-.354,4.5,4.5,0,0,1-.741-.709,11.073,11.073,0,0,1-.763-1.235l-.1-.107c-.1-.007-.176-.011-.226-.011a2.7,2.7,0,0,0-.473.064q.01.258.183,1.568a5.431,5.431,0,0,0,.145.9.4.4,0,0,0,.167.155c.423.18.684.283.784.312a8.027,8.027,0,0,0,1.063.215q1,.107,1.235.107a4.018,4.018,0,0,0,2.744-.832,2.662,2.662,0,0,0,.94-2.079,2.562,2.562,0,0,0-.394-1.418A3.128,3.128,0,0,0,249.133,17.216Z" fill="#231f20"/><path d="M253.5,22.372l1.508-.075q.538,0,1.216.049l1.2.048a1.875,1.875,0,0,0,.043-.359c0-.07-.007-.194-.021-.371a1.888,1.888,0,0,0-.424-.048q-.264-.006-.661-.038a.464.464,0,0,1-.236-.236,3.592,3.592,0,0,1-.1-1.021q0-.117.018-.58.025-.773.025-2.32V15.54a4.4,4.4,0,0,1,1.09-.746,2.939,2.939,0,0,1,1.316-.317,1.783,1.783,0,0,1,.988.264,1.234,1.234,0,0,1,.537.677A6.311,6.311,0,0,1,260.126,17v2.632l-.054,1.568c-.007.036-.025.122-.054.258-.193.029-.4.056-.617.081a1.831,1.831,0,0,0-.575.155.754.754,0,0,0-.054.236l.021.14v.258a.675.675,0,0,0,.215.032q.731,0,1.2-.021.667-.042,1.063-.043.612,0,1.515.086c.315.029.526.043.634.043l.247-.016a2.1,2.1,0,0,1,.021-.353l.011-.085a.589.589,0,0,0-.086-.256q-.161-.042-.451-.1a4.273,4.273,0,0,1-.634-.15.271.271,0,0,1-.1-.129l.054-2.191-.011-1.515v-.687a8.628,8.628,0,0,0-.1-1.611,2.678,2.678,0,0,0-.472-1.058,2.57,2.57,0,0,0-.938-.73,3.23,3.23,0,0,0-1.432-.3,4.457,4.457,0,0,0-1.673.322,7.4,7.4,0,0,0-1.78,1.1l.021-6.424-.582-.043a3.113,3.113,0,0,0-.3.161,8.048,8.048,0,0,1-1.519.537q-.248.054-.518.129l-.9.193c-.015.158-.021.29-.021.4v.226a3.437,3.437,0,0,1,1.133.3.7.7,0,0,1,.307.44,16.029,16.029,0,0,1,.107,2.471v.3l-.043,3.9-.021.183.011.537-.011.215v.881l-.032.806v.763a1.664,1.664,0,0,1-.107.763.682.682,0,0,1-.43.15c-.522.058-.842.1-.956.129v.14a2.027,2.027,0,0,0,.226.537Z" fill="#231f20"/><path d="M275.251,16.722l-.032-1.1.021-1.085-.043-1.386v-.892q0-1.02-.027-1.246t-.026-1.268c0-.035,0-.14.011-.312a3.229,3.229,0,0,1,.838-.1,9.882,9.882,0,0,0,1.042-.107,4.3,4.3,0,0,0,.032-.43c0-.086-.007-.211-.021-.376a4.933,4.933,0,0,0-.537-.043,3.74,3.74,0,0,0-.419.032q-1.289.129-2.374.129-1.257,0-2.009-.069t-1.8-.07l.054.924.2.032.279.032h.258q1.214.119,1.45.172.01.205.011,1l.054.709.054,1.977-.011,2.331q0,.4.032.827c.007.129.011.3.011.516l.032,4.028-.011.806q.022.634.021.73c0,.136-.007.3-.021.5q-.042.526-.043,1.106v.634a2.215,2.215,0,0,1-.247,1.2.5.5,0,0,1-.419.258.831.831,0,0,1-.29-.075,2.735,2.735,0,0,1-.763-.956,1.46,1.46,0,0,0-1.053-.634,1.3,1.3,0,0,0-.93.376,1.257,1.257,0,0,0-.392.945,1.64,1.64,0,0,0,.554,1.225,1.83,1.83,0,0,0,1.3.526,4.479,4.479,0,0,0,1.6-.306,5.139,5.139,0,0,0,1.644-1.091,6.692,6.692,0,0,0,1.128-1.676,6.929,6.929,0,0,0,.645-2.153,25.706,25.706,0,0,0,.2-3.7l-.021-.827Z" fill="#231f20"/><path d="M287.6,17.688a4.477,4.477,0,0,0-.339-1.627,4.29,4.29,0,0,0-1.027-1.531,4.608,4.608,0,0,0-3.5-1.321,6.129,6.129,0,0,0-1.759.221,4.966,4.966,0,0,0-1.446.735,4.645,4.645,0,0,0-.909.9,4.192,4.192,0,0,0-.65,1.263,4.648,4.648,0,0,0-.236,1.444,5.085,5.085,0,0,0,.5,2.374,4.642,4.642,0,0,0,1.667,1.708,5.133,5.133,0,0,0,2.844.752,5.264,5.264,0,0,0,2.624-.634,4.45,4.45,0,0,0,1.8-1.966A5.205,5.205,0,0,0,287.6,17.688ZM284.836,19.8a2.959,2.959,0,0,1-.773,1.565,1.865,1.865,0,0,1-1.321.5,2.324,2.324,0,0,1-1.128-.258,1.739,1.739,0,0,1-.677-.592,3.927,3.927,0,0,1-.44-1.237q-.042-.2-.14-1.538a14.266,14.266,0,0,1,.161-2.484,2.492,2.492,0,0,1,.757-1.366,2.038,2.038,0,0,1,1.37-.463,2.06,2.06,0,0,1,1.7.813,4.541,4.541,0,0,1,.645,2.77A12.169,12.169,0,0,1,284.836,19.8Z" fill="#231f20"/><path d="M300.187,21.534c0-.035-.011-.179-.032-.43l-.129-.021-.988.032c-.058,0-.118-.043-.183-.129a.658.658,0,0,1-.1-.4q0-.075.043-.633l-.011-.558.021-.826.011-1.845L298.8,15.44l.043-1.029-.021-.8q-.97.022-1.638.021l-1.658-.021a4.286,4.286,0,0,0-.614.054,2.913,2.913,0,0,0-.032.365,1.826,1.826,0,0,0,.043.322.639.639,0,0,0,.118.075l.72.054a1.664,1.664,0,0,1,.72.2l.021.236-.011.4c0,.035,0,.194.017.478s.016.517.016.7-.007.407-.021.687l-.075,2.67a2.239,2.239,0,0,1-.43.633,3.345,3.345,0,0,1-.5.387,2.77,2.77,0,0,1-.693.364,2.622,2.622,0,0,1-.784.1,1.536,1.536,0,0,1-.876-.241,1.354,1.354,0,0,1-.521-.713,9.582,9.582,0,0,1-.118-1.706v-1.1l.011-1.62-.011-.547.032-1.052-.021-.719-.236-.021h-3.2q-.075.022-.193.064c-.015.165-.026.283-.038.354a1.366,1.366,0,0,0-.016.172c0,.071.018.118.054.14a3.055,3.055,0,0,0,.859.226,1.5,1.5,0,0,1,.354.1.843.843,0,0,1,.107.321q.032.29.032,1.148,0,.5-.054,1.556l-.011.343q0,1.9.021,2.1a3.245,3.245,0,0,0,.3,1.2,2.4,2.4,0,0,0,.945.9,3.048,3.048,0,0,0,1.525.364,3.518,3.518,0,0,0,1.418-.295,6.654,6.654,0,0,0,1.622-1.134c.165-.15.29-.261.376-.333l.011,1.751.43.021a19.864,19.864,0,0,1,2.514-.763,5.382,5.382,0,0,1,.816-.075A1.346,1.346,0,0,0,300.187,21.534Z" fill="#231f20"/><path d="M302.067,22.286h.183a14,14,0,0,1,1.407-.064l2.052.1h1.01a1.062,1.062,0,0,0,.064-.315.379.379,0,0,0-.107-.3,1.33,1.33,0,0,0-.6-.136,3.7,3.7,0,0,1-.693-.107,1.288,1.288,0,0,1-.392-.215,1.271,1.271,0,0,1-.2-.535q-.022-2.922-.064-3.715l-.021-.289a2.244,2.244,0,0,1,.3-1.113.8.8,0,0,1,.408-.407l.075-.011a.89.89,0,0,1,.483.236,1.613,1.613,0,0,0,.967.387,1.021,1.021,0,0,0,.844-.4,1.432,1.432,0,0,0,.316-.908,1.183,1.183,0,0,0-.419-.892,1.408,1.408,0,0,0-.988-.387,1.363,1.363,0,0,0-.827.269,6.569,6.569,0,0,0-.569.526,10.388,10.388,0,0,0-.645,1.01q-.01-.773-.011-.892,0-.246.011-.623c.007-.114.011-.211.011-.29a1.976,1.976,0,0,0-.054-.408l-.752.021a2.857,2.857,0,0,0-.3.376,3.747,3.747,0,0,1-.967.887,3.328,3.328,0,0,1-1.439.542l.032.4a.313.313,0,0,0,.258.236,3.186,3.186,0,0,1,.73.247.465.465,0,0,1,.172.3,36.27,36.27,0,0,1,.118,3.668,8.112,8.112,0,0,1-.1,1.737,3.207,3.207,0,0,1-1.042.429.859.859,0,0,0-.365.178,1.44,1.44,0,0,0-.032.255,1.639,1.639,0,0,0,.032.266C301.644,22.3,302.017,22.286,302.067,22.286Z" fill="#231f20"/><path d="M320.811,22.066a.576.576,0,0,0-.1-.339l-.526-.1a1.931,1.931,0,0,1-.591-.152.862.862,0,0,1-.086-.409l.043-3.508a9.431,9.431,0,0,0-.236-2.647,2.377,2.377,0,0,0-1-1.157,3.146,3.146,0,0,0-1.77-.5,4.725,4.725,0,0,0-1.812.4,6.192,6.192,0,0,0-1.619,1.075c-.015-.272-.021-.437-.021-.494a2.552,2.552,0,0,1,.021-.291l.021-1.214-.58.043a4.173,4.173,0,0,1-.773.784c-.107.072-.2.144-.29.215-.079.043-.136.075-.172.1-.114.058-.369.158-.763.3q-.751.193-.865.21a1.722,1.722,0,0,0-.252.059l.011.516a3.519,3.519,0,0,1,1.021.42.632.632,0,0,1,.269.322,4.721,4.721,0,0,1,.107,1.108v.678l.032,1.129-.011.764v.936a4.22,4.22,0,0,1-.064.947.485.485,0,0,1-.215.236,2.714,2.714,0,0,1-.687.161,2.214,2.214,0,0,0-.516.172c-.007.17-.011.282-.011.339a.589.589,0,0,0,.043.222q1.626-.075,2.486-.075l1.152.024a5.435,5.435,0,0,0,.71.072c.15,0,.337,0,.56-.011a1.632,1.632,0,0,0,.076-.4,1.741,1.741,0,0,0-.032-.269,2.224,2.224,0,0,1-1.073-.5,6.794,6.794,0,0,1-.141-1.977l.021-.269-.043-1.72.021-.72-.021-.677.021-.183a5.607,5.607,0,0,1,1.328-.931,2.886,2.886,0,0,1,1.243-.307,1.306,1.306,0,0,1,1.222.807,8.085,8.085,0,0,1,.289,2.829l-.011,1.248q.01.483.011,1.388a1.877,1.877,0,0,1-.086.7c-.021.058-.1.114-.247.172a2.5,2.5,0,0,1-.354.075c-.4.051-.651.086-.752.107-.015.146-.021.281-.021.405,0,.049,0,.118.011.208h.365l1.418-.1h.494l.623-.021,2.105.15C320.807,22.268,320.811,22.151,320.811,22.066Z" fill="#231f20"/><path d="M323.25,16.765q.151-.075.574-.241a1.381,1.381,0,0,0,.586-.371,1.607,1.607,0,0,0,.14-.548,2.625,2.625,0,0,1,.258-.892,1.457,1.457,0,0,1,.655-.526,2.374,2.374,0,0,1,.988-.2.836.836,0,0,1,.752.322,3.834,3.834,0,0,1,.354,1.977c0,.279-.011.556-.032.827l-2.675,1.074q-.7.3-.816.365a4.957,4.957,0,0,0-1.122.79,2.436,2.436,0,0,0-.506.725,1.832,1.832,0,0,0-.155.72,1.567,1.567,0,0,0,.526,1.23,2.429,2.429,0,0,0,1.644.467,4.613,4.613,0,0,0,2.053-.413,2.974,2.974,0,0,0,1.3-1.23,3.012,3.012,0,0,0,.832,1.23,1.746,1.746,0,0,0,1.091.349,1.539,1.539,0,0,0,1.041-.359,2.626,2.626,0,0,0,.677-1.316l-.011-.054a.307.307,0,0,0-.118-.183l-.247-.161-.193.075-.322.5a.322.322,0,0,1-.2.064.37.37,0,0,1-.312-.166,1.117,1.117,0,0,1-.121-.618v-.333l-.021-1.3.021-1.772a7.024,7.024,0,0,0-.242-2.245,1.73,1.73,0,0,0-.859-.939,3.2,3.2,0,0,0-1.477-.317,7.365,7.365,0,0,0-2.256.3,5.5,5.5,0,0,0-1.455.822,4.592,4.592,0,0,0-1.166,1.208,2.049,2.049,0,0,0-.258,1.053.453.453,0,0,0,.15.365A2.3,2.3,0,0,0,323.25,16.765Zm4.211,3.583a2.1,2.1,0,0,1-.666.735,1.554,1.554,0,0,1-1.021.344.855.855,0,0,1-.645-.3,1.074,1.074,0,0,1-.279-.763,1.647,1.647,0,0,1,.215-.87,3.247,3.247,0,0,1,1.069-.961,6.732,6.732,0,0,1,1.38-.683q.042.473.043.945A6.857,6.857,0,0,1,327.46,20.348Z" fill="#231f20"/><path d="M333.2,21.448q-.108.141-.854.226a1.359,1.359,0,0,0-.627.208l.043.5h.784q1.16-.1,1.772-.1l.4.01q1.074,0,1.783.049l.849.038a2.809,2.809,0,0,0,.021-.3,1.639,1.639,0,0,0-.054-.365c-.44-.057-.736-.093-.886-.107a.842.842,0,0,1-.544-.172,1.09,1.09,0,0,1-.149-.654v-.258l-.021-1.567V14.2l-.021-.2v-.063c.015-.165.021-.383.021-.655q0-1.374-.064-5.088c-.12-.007-.213-.011-.276-.011l-.3.011a5.822,5.822,0,0,1-1.395.693,7.5,7.5,0,0,1-1.759.435.981.981,0,0,0-.021.193,3.692,3.692,0,0,0,.032.4,2.093,2.093,0,0,0,.487.054,1.561,1.561,0,0,1,.812.226,4.4,4.4,0,0,1,.141,1.3v.429l.021,2.479v2.168l.021.719v3.026A2.03,2.03,0,0,1,333.2,21.448Z" fill="#231f20"/><path d="M345.837,21.856a5.133,5.133,0,0,0,2.844.752,5.264,5.264,0,0,0,2.624-.634,4.45,4.45,0,0,0,1.8-1.966,5.205,5.205,0,0,0,.441-2.32,4.477,4.477,0,0,0-.339-1.627,4.29,4.29,0,0,0-1.027-1.531,4.608,4.608,0,0,0-3.5-1.321,6.129,6.129,0,0,0-1.759.221,4.966,4.966,0,0,0-1.446.735,4.645,4.645,0,0,0-.909.9,4.192,4.192,0,0,0-.65,1.263,4.648,4.648,0,0,0-.236,1.444,5.085,5.085,0,0,0,.5,2.374A4.642,4.642,0,0,0,345.837,21.856Zm.626-6.1a2.492,2.492,0,0,1,.757-1.366,2.038,2.038,0,0,1,1.37-.463,2.06,2.06,0,0,1,1.7.813,4.541,4.541,0,0,1,.645,2.77,12.169,12.169,0,0,1-.15,2.291,2.959,2.959,0,0,1-.773,1.565,1.865,1.865,0,0,1-1.321.5,2.324,2.324,0,0,1-1.128-.258,1.739,1.739,0,0,1-.677-.592,3.927,3.927,0,0,1-.44-1.237q-.042-.2-.14-1.538A14.266,14.266,0,0,1,346.463,15.758Z" fill="#231f20"/><path d="M356.454,20.933a.447.447,0,0,1-.118.333,2.182,2.182,0,0,1-.661.242,5.618,5.618,0,0,0-.768.252l.011.6q1.5-.029,1.748-.058.46-.04,1.3-.039l.579.043q1.157.076,1.255.075h.771a1.845,1.845,0,0,0,.043-.333,2.783,2.783,0,0,0-.043-.333.991.991,0,0,0-.331-.075,2.249,2.249,0,0,1-1.292-.418q-.214-.205-.192-1.182l.011-.923-.018-1.148.007-1.578q0-.226-.015-.838c0-.107-.007-.186-.007-.236l.007-.525a1.6,1.6,0,0,1,.321-.048h.1a1.654,1.654,0,0,0,.31.021l.813-.021h.1a.45.45,0,0,0,.225-.054,1.742,1.742,0,0,0,.032-.247v-.29l.021-.2c0-.057-.05-.129-.15-.215a2.139,2.139,0,0,0-.3-.032l-1.271.032-.2-.011-.011-.312.011-1.182a12.163,12.163,0,0,1,.1-1.934,1.459,1.459,0,0,1,.344-.741.779.779,0,0,1,.58-.258.732.732,0,0,1,.451.129,2.788,2.788,0,0,1,.478.65,2.48,2.48,0,0,0,.521.671,1.1,1.1,0,0,0,.634.215,1.08,1.08,0,0,0,.784-.359,1.106,1.106,0,0,0,.354-.79,1.71,1.71,0,0,0-.2-.746,1.506,1.506,0,0,0-.721-.661,2.955,2.955,0,0,0-1.315-.258,3.757,3.757,0,0,0-1.413.242,5.024,5.024,0,0,0-1.3.843l-.279.312a5.419,5.419,0,0,0-.961,1.8,8.031,8.031,0,0,0-.414,2.4q-.945.076-1.268.075a.748.748,0,0,0-.15.488c0,.115,0,.271.011.466.079.018.14.028.183.034h.677q.376.022.569.021l.021.2.011,2.063.064,1.848v.1l-.011.14.011.129c.007.115.011.2.011.269s-.015.451-.043,1.117Z" fill="#231f20"/><path d="M214.794,46.4a5.455,5.455,0,0,1-1.214,2.02,2.518,2.518,0,0,1-1.268.72,12.183,12.183,0,0,1-2.535.226,8.724,8.724,0,0,1-2.7-.226.57.57,0,0,1-.29-.559l.021-2.32q-.043-.848-.043-2.127v-.365q.818-.085,2.443-.086a8.559,8.559,0,0,1,1.594.075.787.787,0,0,1,.431.29,4.356,4.356,0,0,1,.388,1.246q.117.538.161.709h.763V45.77c0-.207-.011-.524-.032-.95s-.032-.736-.032-.93c0-.121,0-.29.017-.5s.016-.7.016-1.45q0-.494-.043-1.45l-.623-.011-.14.011a14.7,14.7,0,0,1-.377,1.579,1.1,1.1,0,0,1-.345.468,2.663,2.663,0,0,1-1.012.209q-.819.076-2.745.075a3.969,3.969,0,0,1-.463-.032V41.43l-.011-1.8q0-1.847.032-2.116,1.031-.042,2.342-.043,1.15,0,2.148.086l.655.054a2.935,2.935,0,0,1,.688.086,4.962,4.962,0,0,1,.688.988l.43.763c.107.279.193.491.258.634.187.015.308.021.365.021l.44-.021c.007-.086.011-.15.011-.193l-.021-.44V37.229a.836.836,0,0,0-.193-.58,16.859,16.859,0,0,0-1.934-.161l-1.944.021q-1.934,0-4.329.1-1.6.064-1.987.064a14.359,14.359,0,0,1-1.966-.118q-.451-.064-1.063-.1l-.054.859c.179.021.336.036.473.043a7.059,7.059,0,0,1,1.182.15q.2.044.322.064a.529.529,0,0,1,.322.15,2.108,2.108,0,0,1,.021.215l.1,1.332-.011,1.214.054,1.719-.011,1.214.032,4.05-.011.333q.01.441.011.623a2.233,2.233,0,0,1-.118.784,5.183,5.183,0,0,1-1.547.344,6.815,6.815,0,0,0-.816.118v.741l1.3-.043h.452q1.881-.107,3.171-.107,2.591,0,4.43.075,2.612.108,3.214.107.409,0,1.107-.032l.19-1.225.392-2.03.063-.322q.021-.182.053-.451c-.157-.007-.275-.011-.354-.011Q215.127,46.371,214.794,46.4Z" fill="#231f20"/><path d="M228.018,49.25a2.608,2.608,0,0,1-.945-.172c-.015-.357-.021-.666-.021-.924v-.806c0-.1,0-.211-.011-.333-.015-.3-.021-.637-.021-1.01s.007-.651.021-.859l.011-.226V44.33c-.021-.2-.032-.354-.032-.462,0-.057,0-.143.011-.258v-.4c-.007-.078-.011-.168-.011-.269q0-.923.021-1.354l.021-.655-.032-1.117.011-.537-.011-.312v-.58q-.032-1.3-.032-1.6V36.6l.011-.161a1.367,1.367,0,0,0-.064-.333,1.171,1.171,0,0,0-.172-.021,2.69,2.69,0,0,0-.4.075l-1.063.247-.365.075a7.614,7.614,0,0,1-1.257.221,1.9,1.9,0,0,0-.526.069v.516a1.716,1.716,0,0,0,.65.14.633.633,0,0,1,.563.312,5.708,5.708,0,0,1,.279,2.3l-.043,1.149.011.72-.021.258a3.691,3.691,0,0,0-2.245-.806h-.6a6.677,6.677,0,0,0-1.38.247,4,4,0,0,0-1.016.526,4.554,4.554,0,0,0-2,3.706,5.735,5.735,0,0,0,.457,2.31,4.077,4.077,0,0,0,1.648,1.8,3.965,3.965,0,0,0,2.159.516,4.944,4.944,0,0,0,1.354-.168,5.5,5.5,0,0,0,1.311-.6q.236-.141.4-.228a8.136,8.136,0,0,1,.032.941c0,.036,0,.119-.011.249a1.872,1.872,0,0,0,.269.021,1.081,1.081,0,0,0,.419-.172,6.506,6.506,0,0,1,2.095-.516,7.082,7.082,0,0,0,.924-.161.908.908,0,0,0,.075-.29.842.842,0,0,0-.054-.236A2.394,2.394,0,0,0,228.018,49.25Zm-3.352-.58a4.563,4.563,0,0,1-.854.433,2.207,2.207,0,0,1-.758.147c-.107,0-.236-.007-.387-.021a2.8,2.8,0,0,1-1.934-1.067,4.2,4.2,0,0,1-.741-2.676,4.957,4.957,0,0,1,.279-1.566,3.3,3.3,0,0,1,.6-1.072,1.732,1.732,0,0,1,.692-.493,2.375,2.375,0,0,1,.9-.172,2.072,2.072,0,0,1,1.407.5,2.233,2.233,0,0,1,.709,1.439q.1.7.1,4.1C224.677,48.287,224.673,48.434,224.667,48.67Z" fill="#231f20"/><path d="M240.318,49.089l-.988.032c-.058,0-.118-.043-.183-.129a.658.658,0,0,1-.1-.4q0-.075.043-.633l-.011-.558.021-.826.011-1.845-.021-1.288.043-1.029-.021-.8q-.97.022-1.638.021l-1.658-.021a4.286,4.286,0,0,0-.614.054,2.913,2.913,0,0,0-.032.365,1.826,1.826,0,0,0,.043.322.639.639,0,0,0,.118.075l.72.054a1.664,1.664,0,0,1,.72.2l.021.236-.011.4c0,.035,0,.194.017.478s.016.517.016.7-.007.407-.021.687l-.075,2.67a2.239,2.239,0,0,1-.43.633,3.345,3.345,0,0,1-.5.387,2.77,2.77,0,0,1-.693.364,2.622,2.622,0,0,1-.784.1,1.536,1.536,0,0,1-.876-.241,1.354,1.354,0,0,1-.521-.713,9.582,9.582,0,0,1-.118-1.706v-1.1l.011-1.62L232.8,43.4l.032-1.052-.021-.719-.236-.021h-3.2q-.075.022-.193.064c-.015.165-.026.283-.038.354a1.366,1.366,0,0,0-.016.172c0,.071.018.118.054.14a3.055,3.055,0,0,0,.859.226,1.5,1.5,0,0,1,.354.1.843.843,0,0,1,.107.321q.032.29.032,1.148,0,.5-.054,1.556l-.011.343q0,1.9.021,2.1a3.245,3.245,0,0,0,.3,1.2,2.4,2.4,0,0,0,.945.9,3.048,3.048,0,0,0,1.525.364,3.518,3.518,0,0,0,1.418-.295,6.654,6.654,0,0,0,1.622-1.134c.165-.15.29-.261.376-.333l.011,1.751.43.021a19.864,19.864,0,0,1,2.514-.763,5.382,5.382,0,0,1,.816-.075,1.346,1.346,0,0,0,.032-.236c0-.035-.011-.179-.032-.43Z" fill="#231f20"/><path d="M250.018,47.563c-.079.086-.228.255-.445.5a3.678,3.678,0,0,1-.446.462,3.478,3.478,0,0,1-.73.419,3.376,3.376,0,0,1-1.042.14,2.933,2.933,0,0,1-2.207-1.058,4.051,4.051,0,0,1-.973-2.853,3.347,3.347,0,0,1,.795-2.357,2.4,2.4,0,0,1,1.8-.865,1.209,1.209,0,0,1,.72.215,1.606,1.606,0,0,1,.494.72,2.114,2.114,0,0,0,.618.978,1.283,1.283,0,0,0,.811.29,1.033,1.033,0,0,0,.811-.327,1.29,1.29,0,0,0,.3-.9,1.569,1.569,0,0,0-.73-1.16,4.293,4.293,0,0,0-2.589-.58,6.14,6.14,0,0,0-2.434.462,5.064,5.064,0,0,0-1.788,1.246,4.786,4.786,0,0,0-1.01,1.671,5.008,5.008,0,0,0-.3,1.584,5.2,5.2,0,0,0,.241,1.407,3.758,3.758,0,0,0,.726,1.4,4.4,4.4,0,0,0,1.676,1.192,5.359,5.359,0,0,0,2.127.451,4.8,4.8,0,0,0,2.825-.784,3.345,3.345,0,0,0,1.407-1.858,1.185,1.185,0,0,0-.4-.269A2.047,2.047,0,0,1,250.018,47.563Z" fill="#231f20"/><path d="M261.319,48.509l-.247-.161-.193.075-.322.5a.322.322,0,0,1-.2.064.37.37,0,0,1-.312-.166,1.117,1.117,0,0,1-.121-.618v-.333l-.021-1.3.021-1.772a7.024,7.024,0,0,0-.242-2.245,1.73,1.73,0,0,0-.859-.939,3.2,3.2,0,0,0-1.477-.317,7.365,7.365,0,0,0-2.256.3,5.5,5.5,0,0,0-1.455.822,4.592,4.592,0,0,0-1.166,1.208,2.049,2.049,0,0,0-.258,1.053.453.453,0,0,0,.15.365,2.3,2.3,0,0,0,.924-.279q.151-.075.574-.241a1.381,1.381,0,0,0,.586-.371,1.607,1.607,0,0,0,.14-.548,2.625,2.625,0,0,1,.258-.892,1.457,1.457,0,0,1,.655-.526,2.374,2.374,0,0,1,.988-.2.836.836,0,0,1,.752.322,3.834,3.834,0,0,1,.354,1.977c0,.279-.011.556-.032.827l-2.675,1.074q-.7.3-.816.365a4.957,4.957,0,0,0-1.122.79,2.436,2.436,0,0,0-.506.725,1.832,1.832,0,0,0-.155.72,1.567,1.567,0,0,0,.526,1.23,2.429,2.429,0,0,0,1.644.467,4.613,4.613,0,0,0,2.053-.413,2.974,2.974,0,0,0,1.3-1.23,3.012,3.012,0,0,0,.832,1.23,1.746,1.746,0,0,0,1.091.349,1.539,1.539,0,0,0,1.041-.359,2.626,2.626,0,0,0,.677-1.316l-.011-.054A.307.307,0,0,0,261.319,48.509Zm-3.824-.155a2.1,2.1,0,0,1-.666.735,1.554,1.554,0,0,1-1.021.344.855.855,0,0,1-.645-.3,1.074,1.074,0,0,1-.279-.763,1.647,1.647,0,0,1,.215-.87,3.247,3.247,0,0,1,1.069-.961,6.732,6.732,0,0,1,1.38-.683q.042.473.043.945A6.857,6.857,0,0,1,257.495,48.354Z" fill="#231f20"/><path d="M267.85,48.671c-.093.064-.161.114-.2.15a2.317,2.317,0,0,1-.473.311,1.268,1.268,0,0,1-.43.054,1.251,1.251,0,0,1-.548-.118,1.45,1.45,0,0,1-.253-.563,10.348,10.348,0,0,1-.048-1.488l.021-4.1.516-.032.193.011h.559a2.516,2.516,0,0,0,.344.043,3.273,3.273,0,0,0,.537-.064,2.65,2.65,0,0,0,.075-.574,2.367,2.367,0,0,0-.064-.511q-.731.022-.806.021c-.638.029-.974.043-1.01.043l-.247-.011c-.007-.129-.011-.211-.011-.247l.032-.634q.01-.311.011-.87a1.8,1.8,0,0,0-.1-.591h-.6a6.735,6.735,0,0,1-1.209,1.674,6.617,6.617,0,0,1-1.831,1.051c-.015.277-.021.437-.021.479a.326.326,0,0,0,.064.181l.14.054.773-.021.333.021v3.058l-.043,1.888a2.7,2.7,0,0,0,.623,1.963,2.175,2.175,0,0,0,1.622.633,3.227,3.227,0,0,0,1.455-.338,2.577,2.577,0,0,0,1.059-.93l-.043-.129A2.532,2.532,0,0,0,267.85,48.671Z" fill="#231f20"/><path d="M272.91,49.422a7.1,7.1,0,0,1-.043-.816l.075-4.383q0-2.127-.043-3.459h-.72a4.474,4.474,0,0,1-1.235.913,5.2,5.2,0,0,1-1.944.462v.6a4.393,4.393,0,0,1,1.093.172.935.935,0,0,1,.432.279,3.759,3.759,0,0,1,.065.688l-.032,1.751.017.5-.017.537q.032.58.032.784c0,.172-.006.371-.016.6s-.017.381-.017.467v.118a1.308,1.308,0,0,1-.1.65.645.645,0,0,1-.37.22l-1.214.161.021.7c.121,0,.347-.012.676-.037s.668-.038,1.019-.038q1.833,0,2.927.054c.222.015.386.021.493.021s.235,0,.429-.011l.021-.591a2.373,2.373,0,0,0-.462-.107A6.586,6.586,0,0,1,272.91,49.422Z" fill="#231f20"/><path d="M272.517,38.825a1.315,1.315,0,0,0,.527-.586,1.754,1.754,0,0,0,.166-.73,1.188,1.188,0,0,0-.419-.886,1.479,1.479,0,0,0-1.053-.393,1.32,1.32,0,0,0-.967.371,1.275,1.275,0,0,0-.376.95,1.441,1.441,0,0,0,.436,1.053,1.313,1.313,0,0,0,.95.44A1.392,1.392,0,0,0,272.517,38.825Z" fill="#231f20"/><path d="M284.047,42.536a4.608,4.608,0,0,0-3.5-1.321,6.129,6.129,0,0,0-1.759.221,4.966,4.966,0,0,0-1.446.735,4.645,4.645,0,0,0-.909.9,4.192,4.192,0,0,0-.65,1.263,4.648,4.648,0,0,0-.236,1.444,5.085,5.085,0,0,0,.5,2.374,4.642,4.642,0,0,0,1.667,1.708,5.133,5.133,0,0,0,2.844.752,5.264,5.264,0,0,0,2.624-.634,4.45,4.45,0,0,0,1.8-1.966,5.205,5.205,0,0,0,.441-2.32,4.477,4.477,0,0,0-.339-1.627A4.29,4.29,0,0,0,284.047,42.536Zm-1.395,5.271a2.959,2.959,0,0,1-.773,1.565,1.865,1.865,0,0,1-1.321.5,2.324,2.324,0,0,1-1.128-.258,1.739,1.739,0,0,1-.677-.592,3.927,3.927,0,0,1-.44-1.237q-.042-.2-.14-1.538a14.266,14.266,0,0,1,.161-2.484,2.492,2.492,0,0,1,.757-1.366,2.038,2.038,0,0,1,1.37-.463,2.06,2.06,0,0,1,1.7.813,4.541,4.541,0,0,1,.645,2.77A12.169,12.169,0,0,1,282.653,47.808Z" fill="#231f20"/><path d="M297.434,49.633a1.931,1.931,0,0,1-.591-.152.862.862,0,0,1-.086-.409l.043-3.508a9.431,9.431,0,0,0-.236-2.647,2.377,2.377,0,0,0-1-1.157,3.146,3.146,0,0,0-1.77-.5,4.725,4.725,0,0,0-1.812.4,6.192,6.192,0,0,0-1.619,1.075c-.015-.272-.021-.437-.021-.494a2.552,2.552,0,0,1,.021-.291l.021-1.214-.58.043a4.173,4.173,0,0,1-.773.784c-.107.072-.2.144-.29.215-.079.043-.136.075-.172.1-.114.058-.369.158-.763.3q-.751.193-.865.21a1.722,1.722,0,0,0-.252.059l.011.516a3.519,3.519,0,0,1,1.021.42.632.632,0,0,1,.269.322,4.721,4.721,0,0,1,.107,1.108v.678l.032,1.129-.011.764v.936a4.22,4.22,0,0,1-.064.947.485.485,0,0,1-.215.236,2.714,2.714,0,0,1-.687.161,2.214,2.214,0,0,0-.516.172c-.007.17-.011.282-.011.339a.589.589,0,0,0,.043.222q1.626-.075,2.486-.075l1.152.024a5.435,5.435,0,0,0,.71.072c.15,0,.337,0,.56-.011a1.632,1.632,0,0,0,.076-.4,1.741,1.741,0,0,0-.032-.269,2.224,2.224,0,0,1-1.073-.5,6.794,6.794,0,0,1-.141-1.977l.021-.269-.043-1.72.021-.72-.021-.677.021-.183a5.607,5.607,0,0,1,1.328-.931,2.886,2.886,0,0,1,1.243-.307,1.306,1.306,0,0,1,1.222.807,8.085,8.085,0,0,1,.289,2.829l-.011,1.248q.01.483.011,1.388a1.877,1.877,0,0,1-.086.7c-.021.058-.1.114-.247.172a2.5,2.5,0,0,1-.354.075c-.4.051-.651.086-.752.107-.015.146-.021.281-.021.405,0,.049,0,.118.011.208h.365l1.418-.1h.494l.623-.021,2.105.15c.007-.147.011-.264.011-.349a.576.576,0,0,0-.1-.339Z" fill="#231f20"/><path d="M308.531,48.509l-.247-.161-.193.075-.322.5a.322.322,0,0,1-.2.064.37.37,0,0,1-.312-.166,1.117,1.117,0,0,1-.121-.618v-.333l-.021-1.3.021-1.772a7.024,7.024,0,0,0-.242-2.245,1.73,1.73,0,0,0-.859-.939,3.2,3.2,0,0,0-1.477-.317,7.365,7.365,0,0,0-2.256.3,5.5,5.5,0,0,0-1.455.822,4.592,4.592,0,0,0-1.166,1.208,2.049,2.049,0,0,0-.258,1.053.453.453,0,0,0,.15.365,2.3,2.3,0,0,0,.924-.279q.151-.075.574-.241a1.381,1.381,0,0,0,.586-.371,1.607,1.607,0,0,0,.14-.548,2.625,2.625,0,0,1,.258-.892,1.457,1.457,0,0,1,.655-.526,2.374,2.374,0,0,1,.988-.2.836.836,0,0,1,.752.322,3.834,3.834,0,0,1,.354,1.977c0,.279-.011.556-.032.827L302.1,46.188q-.7.3-.816.365a4.957,4.957,0,0,0-1.122.79,2.436,2.436,0,0,0-.506.725,1.832,1.832,0,0,0-.155.72,1.567,1.567,0,0,0,.526,1.23,2.429,2.429,0,0,0,1.644.467,4.613,4.613,0,0,0,2.053-.413,2.974,2.974,0,0,0,1.3-1.23,3.012,3.012,0,0,0,.832,1.23,1.746,1.746,0,0,0,1.091.349,1.539,1.539,0,0,0,1.041-.359,2.626,2.626,0,0,0,.677-1.316l-.011-.054A.307.307,0,0,0,308.531,48.509Zm-3.824-.155a2.1,2.1,0,0,1-.666.735,1.554,1.554,0,0,1-1.021.344.855.855,0,0,1-.645-.3,1.074,1.074,0,0,1-.279-.763,1.647,1.647,0,0,1,.215-.87,3.247,3.247,0,0,1,1.069-.961,6.732,6.732,0,0,1,1.38-.683q.042.473.043.945A6.857,6.857,0,0,1,304.707,48.354Z" fill="#231f20"/><path d="M313.671,49.615a.842.842,0,0,1-.544-.172,1.09,1.09,0,0,1-.149-.654v-.258l-.021-1.567V42.209l-.021-.2v-.063c.015-.165.021-.383.021-.655q0-1.374-.064-5.088c-.12-.007-.213-.011-.276-.011l-.3.011a5.822,5.822,0,0,1-1.395.693,7.5,7.5,0,0,1-1.759.435.981.981,0,0,0-.021.193,3.692,3.692,0,0,0,.032.4,2.093,2.093,0,0,0,.487.054,1.561,1.561,0,0,1,.812.226,4.4,4.4,0,0,1,.141,1.3v.429l.021,2.479v2.168l.021.719v3.026a2.03,2.03,0,0,1-.216,1.138q-.108.141-.854.226a1.359,1.359,0,0,0-.627.208l.043.5h.784q1.16-.1,1.772-.1l.4.01q1.074,0,1.783.049l.849.038a2.809,2.809,0,0,0,.021-.3,1.639,1.639,0,0,0-.054-.365C314.117,49.666,313.821,49.63,313.671,49.615Z" fill="#231f20"/><path d="M334.582,39.571l.011-.548-.011-.956q0-1.493-.011-2.234c-.144-.007-.251-.011-.322-.011l-.473.011c-.05.116-.09.207-.118.272a1.2,1.2,0,0,1-.3.521l-.634.087H329.4l-2.428-.011-1.3.011-.215.024q-.645.007-1.472.008-1.332,0-1.472-.032a3.781,3.781,0,0,1-.462-.686c-.021-.036-.058-.094-.107-.174h-.666c-.05.144-.133.419-.247.827a21.046,21.046,0,0,1-.924,2.793,2.4,2.4,0,0,0,.634.419q.129,0,.4-.344a6.409,6.409,0,0,1,1.386-1.461,3.14,3.14,0,0,1,1.354-.193q1.837,0,2.17.043a.232.232,0,0,1,.226.2,17.373,17.373,0,0,1,.064,2.03l.054,4.061q0,2.815-.075,4.1a1.351,1.351,0,0,1-.129.537,8.127,8.127,0,0,1-1.547.483,1.518,1.518,0,0,0-.892.462v.086l.011.247c.007.058.015.14.021.247.122,0,.387-.014.795-.043q1.569-.129,1.891-.129,2.03,0,2.8.081a18.559,18.559,0,0,0,1.88.08c.1,0,.229,0,.387-.011a1.734,1.734,0,0,0,.032-.279c0-.057-.019-.215-.054-.473a4.332,4.332,0,0,0-.572-.172c-.476-.107-.741-.164-.8-.172a2.75,2.75,0,0,1-.637-.14,3.616,3.616,0,0,1-.13-1.117l.011-1.4-.032-3.405V40.065l-.011-1.439a5.558,5.558,0,0,1,.054-.687q.453-.042.754-.043,2.024,0,2.283.054a.611.611,0,0,1,.3.183,4.9,4.9,0,0,1,.415.881,7.235,7.235,0,0,0,.608,1.214,3.8,3.8,0,0,0,.773-.172A2.393,2.393,0,0,0,334.582,39.571Z" fill="#231f20"/><path d="M341.462,48.7a4.8,4.8,0,0,1-.907.273,7.155,7.155,0,0,1-1.106.054l-.623-.2a2.69,2.69,0,0,1-.854-.5,3.074,3.074,0,0,1-.693-.823,3.821,3.821,0,0,1-.419-1.109,5.573,5.573,0,0,1-.14-1.2,1.823,1.823,0,0,1,.021-.259h.924l1.16-.021c.157,0,.444.019.859.054q1.676.1,2.17.094l1.192.021a4.088,4.088,0,0,0-.253-1.405,3.582,3.582,0,0,0-.6-1.009,5,5,0,0,0-.967-.848,3.163,3.163,0,0,0-1.042-.445,6.911,6.911,0,0,0-1.633-.156,4.383,4.383,0,0,0-1.149.2,4.24,4.24,0,0,0-1.23.656,5.529,5.529,0,0,0-1.283,1.377,4.781,4.781,0,0,0-.494,1.215,8.634,8.634,0,0,0-.15,1.688,4.471,4.471,0,0,0,.269,1.313,4.54,4.54,0,0,0,.623,1.215,3.956,3.956,0,0,0,1,.989,4.2,4.2,0,0,0,1.3.592,5.259,5.259,0,0,0,1.386.15,5.365,5.365,0,0,0,2.271-.467,6.167,6.167,0,0,0,1.961-1.51q-.258-.226-.645-.5A5.28,5.28,0,0,1,341.462,48.7Zm-4.012-6.172a1.646,1.646,0,0,1,2.256-.326,1.815,1.815,0,0,1,.7.858,3.157,3.157,0,0,1,.236,1.154c-.129,0-.226-.008-.29-.008-.086,0-.232.01-.44.029-.286.021-.509.032-.666.032l-2.449-.021A2.743,2.743,0,0,1,337.451,42.525Z" fill="#231f20"/><path d="M352.984,47.563c-.079.086-.228.255-.445.5a3.678,3.678,0,0,1-.446.462,3.478,3.478,0,0,1-.73.419,3.376,3.376,0,0,1-1.042.14,2.933,2.933,0,0,1-2.207-1.058,4.051,4.051,0,0,1-.973-2.853,3.347,3.347,0,0,1,.795-2.357,2.4,2.4,0,0,1,1.8-.865,1.209,1.209,0,0,1,.72.215,1.606,1.606,0,0,1,.494.72,2.114,2.114,0,0,0,.618.978,1.283,1.283,0,0,0,.811.29,1.033,1.033,0,0,0,.811-.327,1.29,1.29,0,0,0,.3-.9,1.569,1.569,0,0,0-.73-1.16,4.293,4.293,0,0,0-2.589-.58,6.14,6.14,0,0,0-2.434.462,5.064,5.064,0,0,0-1.788,1.246,4.786,4.786,0,0,0-1.01,1.671,5.008,5.008,0,0,0-.3,1.584,5.2,5.2,0,0,0,.241,1.407,3.758,3.758,0,0,0,.726,1.4,4.4,4.4,0,0,0,1.676,1.192,5.359,5.359,0,0,0,2.127.451,4.8,4.8,0,0,0,2.825-.784,3.345,3.345,0,0,0,1.407-1.858,1.185,1.185,0,0,0-.4-.269A2.047,2.047,0,0,1,352.984,47.563Z" fill="#231f20"/><path d="M365.456,49.626a4.273,4.273,0,0,1-.634-.15.271.271,0,0,1-.1-.129l.054-2.191-.011-1.515v-.687a8.628,8.628,0,0,0-.1-1.611,2.678,2.678,0,0,0-.472-1.058,2.57,2.57,0,0,0-.938-.73,3.23,3.23,0,0,0-1.432-.3,4.457,4.457,0,0,0-1.673.322,7.4,7.4,0,0,0-1.78,1.1l.021-6.424-.582-.043a3.113,3.113,0,0,0-.3.161,8.048,8.048,0,0,1-1.519.537q-.248.054-.518.129l-.9.193c-.015.158-.021.29-.021.4v.226a3.437,3.437,0,0,1,1.133.3.7.7,0,0,1,.307.44,16.029,16.029,0,0,1,.107,2.471v.3l-.043,3.9-.021.183.011.537-.011.215v.881l-.032.806v.763a1.664,1.664,0,0,1-.107.763.682.682,0,0,1-.43.15c-.522.058-.842.1-.956.129v.14a2.027,2.027,0,0,0,.226.537l1.055.011L357.3,50.3q.538,0,1.216.049l1.2.048a1.875,1.875,0,0,0,.043-.359c0-.07-.007-.194-.021-.371a1.888,1.888,0,0,0-.424-.048q-.264-.006-.661-.038a.464.464,0,0,1-.236-.236,3.592,3.592,0,0,1-.1-1.021q0-.117.018-.58.025-.773.025-2.32v-1.88a4.4,4.4,0,0,1,1.09-.746,2.939,2.939,0,0,1,1.316-.317,1.783,1.783,0,0,1,.988.264,1.234,1.234,0,0,1,.537.677,6.311,6.311,0,0,1,.129,1.584v2.632l-.054,1.568c-.007.036-.025.122-.054.258-.193.029-.4.056-.617.081a1.831,1.831,0,0,0-.575.155.754.754,0,0,0-.054.236l.021.14v.258a.675.675,0,0,0,.215.032q.731,0,1.2-.021.667-.042,1.063-.043.612,0,1.515.086c.315.029.526.043.634.043l.247-.016a2.1,2.1,0,0,1,.021-.353l.011-.085a.589.589,0,0,0-.086-.256Q365.746,49.68,365.456,49.626Z" fill="#231f20"/><path d="M377.487,49.633a1.931,1.931,0,0,1-.591-.152.862.862,0,0,1-.086-.409l.043-3.508a9.431,9.431,0,0,0-.236-2.647,2.377,2.377,0,0,0-1-1.157,3.146,3.146,0,0,0-1.77-.5,4.725,4.725,0,0,0-1.812.4,6.192,6.192,0,0,0-1.619,1.075c-.015-.272-.021-.437-.021-.494a2.552,2.552,0,0,1,.021-.291l.021-1.214-.58.043a4.173,4.173,0,0,1-.773.784c-.107.072-.2.144-.29.215-.079.043-.136.075-.172.1-.114.058-.369.158-.763.3q-.751.193-.865.21a1.722,1.722,0,0,0-.252.059l.011.516a3.519,3.519,0,0,1,1.021.42.632.632,0,0,1,.269.322,4.721,4.721,0,0,1,.107,1.108v.678l.032,1.129-.011.764v.936a4.22,4.22,0,0,1-.064.947.485.485,0,0,1-.215.236,2.714,2.714,0,0,1-.687.161,2.214,2.214,0,0,0-.516.172c-.007.17-.011.282-.011.339a.589.589,0,0,0,.043.222q1.626-.075,2.486-.075l1.152.024a5.435,5.435,0,0,0,.71.072c.15,0,.337,0,.56-.011a1.632,1.632,0,0,0,.076-.4,1.741,1.741,0,0,0-.032-.269,2.224,2.224,0,0,1-1.073-.5,6.794,6.794,0,0,1-.141-1.977l.021-.269-.043-1.72.021-.72-.021-.677.021-.183a5.607,5.607,0,0,1,1.328-.931,2.886,2.886,0,0,1,1.243-.307,1.306,1.306,0,0,1,1.222.807,8.085,8.085,0,0,1,.289,2.829l-.011,1.248q.01.483.011,1.388a1.877,1.877,0,0,1-.086.7c-.021.058-.1.114-.247.172a2.5,2.5,0,0,1-.354.075c-.4.051-.651.086-.752.107-.015.146-.021.281-.021.405,0,.049,0,.118.011.208h.365l1.418-.1h.494l.623-.021,2.105.15c.007-.147.011-.264.011-.349a.576.576,0,0,0-.1-.339Z" fill="#231f20"/><path d="M387.711,42.536a4.608,4.608,0,0,0-3.5-1.321,6.129,6.129,0,0,0-1.759.221,4.966,4.966,0,0,0-1.446.735,4.645,4.645,0,0,0-.909.9,4.192,4.192,0,0,0-.65,1.263,4.648,4.648,0,0,0-.236,1.444,5.085,5.085,0,0,0,.5,2.374,4.642,4.642,0,0,0,1.667,1.708,5.133,5.133,0,0,0,2.844.752,5.264,5.264,0,0,0,2.624-.634,4.45,4.45,0,0,0,1.8-1.966,5.205,5.205,0,0,0,.441-2.32,4.477,4.477,0,0,0-.339-1.627A4.29,4.29,0,0,0,387.711,42.536Zm-1.395,5.271a2.959,2.959,0,0,1-.773,1.565,1.865,1.865,0,0,1-1.321.5,2.324,2.324,0,0,1-1.128-.258,1.739,1.739,0,0,1-.677-.592,3.927,3.927,0,0,1-.44-1.237q-.042-.2-.14-1.538A14.266,14.266,0,0,1,382,43.764a2.492,2.492,0,0,1,.757-1.366,2.038,2.038,0,0,1,1.37-.463,2.06,2.06,0,0,1,1.7.813,4.541,4.541,0,0,1,.645,2.77A12.169,12.169,0,0,1,386.317,47.808Z" fill="#231f20"/><path d="M394.648,49.615a.842.842,0,0,1-.544-.172,1.09,1.09,0,0,1-.149-.654v-.258l-.021-1.567V42.209l-.021-.2v-.063c.015-.165.021-.383.021-.655q0-1.374-.064-5.088c-.12-.007-.213-.011-.276-.011l-.3.011a5.822,5.822,0,0,1-1.395.693,7.5,7.5,0,0,1-1.759.435.981.981,0,0,0-.021.193,3.692,3.692,0,0,0,.032.4,2.093,2.093,0,0,0,.487.054,1.561,1.561,0,0,1,.812.226,4.4,4.4,0,0,1,.141,1.3v.429l.021,2.479v2.168l.021.719v3.026a2.03,2.03,0,0,1-.216,1.138q-.108.141-.854.226a1.359,1.359,0,0,0-.627.208l.043.5h.784q1.16-.1,1.772-.1l.4.01q1.074,0,1.783.049l.849.038a2.809,2.809,0,0,0,.021-.3,1.639,1.639,0,0,0-.054-.365C395.093,49.666,394.8,49.63,394.648,49.615Z" fill="#231f20"/><path d="M404.9,42.536a4.608,4.608,0,0,0-3.5-1.321,6.129,6.129,0,0,0-1.759.221,4.966,4.966,0,0,0-1.446.735,4.645,4.645,0,0,0-.909.9,4.192,4.192,0,0,0-.65,1.263,4.648,4.648,0,0,0-.236,1.444,5.085,5.085,0,0,0,.5,2.374,4.642,4.642,0,0,0,1.667,1.708,5.133,5.133,0,0,0,2.844.752,5.264,5.264,0,0,0,2.624-.634,4.45,4.45,0,0,0,1.8-1.966,5.205,5.205,0,0,0,.441-2.32,4.477,4.477,0,0,0-.339-1.627A4.29,4.29,0,0,0,404.9,42.536ZM403.5,47.808a2.959,2.959,0,0,1-.773,1.565,1.865,1.865,0,0,1-1.321.5,2.324,2.324,0,0,1-1.128-.258,1.739,1.739,0,0,1-.677-.592,3.927,3.927,0,0,1-.44-1.237q-.042-.2-.14-1.538a14.266,14.266,0,0,1,.161-2.484,2.492,2.492,0,0,1,.757-1.366,2.038,2.038,0,0,1,1.37-.463,2.06,2.06,0,0,1,1.7.813,4.541,4.541,0,0,1,.645,2.77A12.169,12.169,0,0,1,403.5,47.808Z" fill="#231f20"/><path d="M418.138,41.988a2.491,2.491,0,0,0-.687.118,11.97,11.97,0,0,1-1.493.376,7.129,7.129,0,0,0-.956-.709l-.408-.15a5.662,5.662,0,0,0-.752-.236,6.725,6.725,0,0,0-1.149-.086,5.866,5.866,0,0,0-2.7.543,3.9,3.9,0,0,0-1.649,1.638,4.187,4.187,0,0,0-.279,1.439,2.742,2.742,0,0,0,.516,1.525,4.541,4.541,0,0,0,1.461,1.225,19.578,19.578,0,0,0-2.353,1.45,1,1,0,0,0-.258.741,1.519,1.519,0,0,0,.483,1.091,4.336,4.336,0,0,0,1.934.854,6.486,6.486,0,0,0-2.153.994,1.293,1.293,0,0,0-.414.939,1.392,1.392,0,0,0,.494,1.01,3.76,3.76,0,0,0,1.777.913,10.727,10.727,0,0,0,2.563.279,9.817,9.817,0,0,0,2.477-.3,6.563,6.563,0,0,0,1.767-.682,2.885,2.885,0,0,0,.972-.988,2.406,2.406,0,0,0,.36-1.241,2.472,2.472,0,0,0-1.021-2,5.955,5.955,0,0,0-3.6-.816c-.086,0-.189,0-.312.011q-.645.032-.763.032-.945,0-1.515-.043c-.1-.021-.179-.035-.236-.043a1.186,1.186,0,0,1-.629-.236.514.514,0,0,1-.187-.387.542.542,0,0,1,.183-.408,6.4,6.4,0,0,1,1.278-.859q.677.151,1.053.193a9.375,9.375,0,0,0,.967.032,4.654,4.654,0,0,0,2.213-.591,3.248,3.248,0,0,0,1.252-1.133,2.746,2.746,0,0,0,.456-1.5,4.289,4.289,0,0,0-.258-1.407,3.459,3.459,0,0,1,1.171.354,1.5,1.5,0,0,0,.376.15.434.434,0,0,0,.333-.23,1.517,1.517,0,0,0,.161-.822,1.773,1.773,0,0,0-.129-.859A.4.4,0,0,0,418.138,41.988ZM412.166,52.14l1.321.021a7.865,7.865,0,0,1,1.45.107,1.852,1.852,0,0,1,.692.307,1.349,1.349,0,0,1,.425.445.982.982,0,0,1,.118.462,1.188,1.188,0,0,1-.559.87,4.937,4.937,0,0,1-2.471.859q-.516.042-.773.043a6.346,6.346,0,0,1-1.687-.215,2.3,2.3,0,0,1-1.117-.585,1.125,1.125,0,0,1-.333-.747,1.339,1.339,0,0,1,.6-1.139A4.359,4.359,0,0,1,412.166,52.14Zm1.595-5.269a1.543,1.543,0,0,1-1.229.617,1.93,1.93,0,0,1-.726-.145,1.575,1.575,0,0,1-.574-.376,2.314,2.314,0,0,1-.4-.65,1.823,1.823,0,0,1-.161-.634q-.075-.858-.075-1.149a3.006,3.006,0,0,1,.425-1.7,1.52,1.52,0,0,1,.939-.73c.308-.035.5-.054.569-.054a1.531,1.531,0,0,1,1.284.591,4.063,4.063,0,0,1,.456,2.31A2.976,2.976,0,0,1,413.76,46.871Z" fill="#231f20"/><path d="M429.681,41.623c-.187.008-.466.032-.838.075a12.339,12.339,0,0,1-1.268.107l-.58-.021-.87-.054c-.093,0-.247.007-.462.021a1.879,1.879,0,0,0-.032.274c0,.035,0,.088.011.159l.032.147.344.086a4.9,4.9,0,0,1,.7.112,1.475,1.475,0,0,1,.387.221,1.628,1.628,0,0,1,.064.354,1.12,1.12,0,0,1-.043.279q-.075.3-.988,2.659-.763,1.991-.827,2.12l-.6-1.237q-.645-1.27-1.257-2.777l-.516-1.055a4.02,4.02,0,0,1-.129-.43c.015-.072.075-.122.183-.151.093-.014.179-.03.258-.048s.2-.038.365-.06c.058-.007.14-.021.247-.043q.022-.129.054-.6a.94.94,0,0,0-.15-.14l-1.525.1h-.559q-.612,0-1.59-.064c-.107-.007-.2-.011-.29-.011a3.915,3.915,0,0,0-.623.063q.042.221.1.463a1.393,1.393,0,0,0,.325.129,1.181,1.181,0,0,1,.385.173,2.73,2.73,0,0,1,.429.634q.589,1.055,1.7,3.689l1.981,4.377a24.246,24.246,0,0,1-1.2,2.578.324.324,0,0,1-.29.2.869.869,0,0,1-.483-.247,1.943,1.943,0,0,0-1.128-.5,1.507,1.507,0,0,0-.666.279,1.529,1.529,0,0,0-.5,1.1.821.821,0,0,0,.226.548,1.489,1.489,0,0,0,.763.462c.358.05.555.075.591.075a2.74,2.74,0,0,0,1-.172,1.4,1.4,0,0,0,.473-.344,6.007,6.007,0,0,0,.956-1.407l1.237-2.839,1.8-4.279.774-2.075q.56-1.375.743-1.784a.968.968,0,0,1,.206-.216q.29-.085.677-.181a1.871,1.871,0,0,0,.43-.149c.007-.085.011-.148.011-.19C429.7,41.935,429.7,41.8,429.681,41.623Z" fill="#231f20"/><rect x="185.992" width="1.062" height="55.496" fill="#231f20"/></svg>