<svg xmlns="http://www.w3.org/2000/svg" viewBox="0 0 450 80"><path fill="#009CB6" d="M18 0h432v80H18z"/><path fill="#FFCD00" d="M0 0h18v80H0z"/><g fill="#002B49"><path d="M34.124 34.879V14.12h8.822c2.218 0 3.831.187 4.835.56 1.006.373 1.811 1.036 2.415 1.989s.906 2.044.906 3.271c0 1.559-.458 2.845-1.374 3.859s-2.285 1.654-4.106 1.918c.906.529 1.654 1.109 2.244 1.742.59.633 1.386 1.756 2.386 3.37l2.535 4.05h-5.013l-3.03-4.518c-1.076-1.613-1.813-2.631-2.209-3.051s-.816-.708-1.26-.864c-.444-.155-1.147-.233-2.11-.233h-.85v8.666h-4.191zm4.191-11.98h3.101c2.011 0 3.266-.085 3.767-.255s.892-.463 1.175-.878.425-.935.425-1.558c0-.698-.187-1.263-.56-1.692-.373-.43-.899-.7-1.579-.813-.34-.048-1.359-.071-3.059-.071h-3.271v5.267zM55.053 34.879V14.12h15.392v3.512H59.244v4.603h10.422v3.497H59.244v5.649h11.597v3.498H55.053zM93.115 34.879h-4.56l-1.813-4.715h-8.298l-1.713 4.715h-4.446L80.37 14.12h4.432l8.313 20.759zm-7.717-8.213l-2.86-7.703-2.804 7.703h5.664zM95.324 14.12h7.661c1.728 0 3.044.132 3.951.396a6.935 6.935 0 0 1 3.129 1.911c.869.916 1.529 2.037 1.982 3.363s.68 2.962.68 4.906c0 1.709-.212 3.182-.637 4.418-.519 1.511-1.26 2.733-2.223 3.668-.727.708-1.708 1.26-2.945 1.656-.925.293-2.162.439-3.71.439h-7.887V14.12zm4.192 3.512v13.749h3.129c1.17 0 2.016-.065 2.535-.197.68-.17 1.244-.458 1.692-.864.448-.406.814-1.074 1.097-2.004s.425-2.197.425-3.802-.142-2.837-.425-3.695c-.283-.859-.68-1.529-1.189-2.012-.51-.48-1.156-.807-1.94-.977-.585-.132-1.732-.198-3.441-.198h-1.883zM116.154 34.879V14.12h4.191v20.759h-4.191zM124.381 34.879V14.12h4.078l8.496 13.862V14.12h3.894v20.759h-4.206l-8.369-13.537v13.537h-3.893zM154.938 27.246v-3.497h9.034v8.27c-.878.85-2.15 1.598-3.816 2.244-1.667.646-3.354.97-5.063.97-2.171 0-4.064-.455-5.678-1.366s-2.827-2.214-3.639-3.908-1.218-3.537-1.218-5.529c0-2.162.453-4.083 1.359-5.763.906-1.681 2.232-2.97 3.979-3.866 1.331-.689 2.988-1.034 4.97-1.034 2.577 0 4.59.541 6.039 1.622 1.449 1.081 2.381 2.574 2.797 4.481l-4.163.779c-.292-1.02-.843-1.825-1.649-2.415-.808-.59-1.815-.885-3.023-.885-1.832 0-3.288.581-4.368 1.741-1.081 1.162-1.622 2.885-1.622 5.169 0 2.464.547 4.312 1.643 5.544 1.095 1.231 2.53 1.848 4.305 1.848a7.21 7.21 0 0 0 2.641-.517c.882-.345 1.64-.763 2.272-1.253v-2.635h-4.8zM175.91 34.879V14.12h8.822c2.218 0 3.831.187 4.835.56 1.006.373 1.811 1.036 2.415 1.989s.906 2.044.906 3.271c0 1.559-.458 2.845-1.374 3.859s-2.285 1.654-4.106 1.918c.906.529 1.654 1.109 2.244 1.742.59.633 1.386 1.756 2.386 3.37l2.535 4.05h-5.013l-3.03-4.518c-1.076-1.613-1.813-2.631-2.209-3.051s-.816-.708-1.26-.864c-.444-.155-1.147-.233-2.11-.233h-.85v8.666h-4.191zm4.191-11.98h3.101c2.011 0 3.266-.085 3.767-.255s.892-.463 1.175-.878.425-.935.425-1.558c0-.698-.187-1.263-.56-1.692-.373-.43-.899-.7-1.579-.813-.34-.048-1.359-.071-3.059-.071H180.1v5.267zM196.838 34.879V14.12h15.392v3.512h-11.2v4.603h10.422v3.497H201.03v5.649h11.597v3.498h-15.789zM215.119 28.125l4.078-.396c.246 1.368.743 2.374 1.494 3.016.75.642 1.763.963 3.037.963 1.35 0 2.367-.285 3.052-.856s1.026-1.239 1.026-2.004c0-.491-.144-.908-.432-1.253s-.791-.645-1.508-.899c-.491-.17-1.609-.472-3.356-.906-2.247-.557-3.823-1.241-4.729-2.054-1.274-1.142-1.912-2.534-1.912-4.177 0-1.058.3-2.046.899-2.967.6-.92 1.463-1.621 2.592-2.103 1.128-.481 2.49-.723 4.085-.723 2.605 0 4.566.571 5.884 1.714 1.316 1.143 2.008 2.667 2.074 4.573l-4.191.185c-.18-1.066-.564-1.834-1.154-2.301-.59-.468-1.475-.701-2.655-.701-1.218 0-2.171.25-2.86.751-.444.32-.666.75-.666 1.288 0 .491.208.911.623 1.261.529.443 1.813.906 3.852 1.387 2.039.482 3.547.979 4.524 1.494.977.515 1.741 1.218 2.294 2.11.552.892.828 1.994.828 3.306 0 1.189-.33 2.304-.991 3.342-.661 1.039-1.596 1.811-2.804 2.315s-2.714.758-4.517.758c-2.625 0-4.64-.606-6.046-1.819s-2.247-2.982-2.521-5.304zM235.523 34.879V14.12h15.393v3.512h-11.201v4.603h10.422v3.497h-10.422v5.649h11.598v3.498h-15.79zM273.587 34.879h-4.561l-1.813-4.715h-8.297l-1.714 4.715h-4.446l8.086-20.759h4.432l8.313 20.759zm-7.718-8.213l-2.86-7.703-2.804 7.703h5.664zM275.824 34.879V14.12h8.821c2.219 0 3.831.187 4.836.56 1.006.373 1.811 1.036 2.414 1.989.604.953.906 2.044.906 3.271 0 1.559-.457 2.845-1.373 3.859s-2.284 1.654-4.106 1.918c.906.529 1.654 1.109 2.244 1.742s1.386 1.756 2.386 3.37l2.535 4.05h-5.013l-3.03-4.518c-1.076-1.613-1.813-2.631-2.209-3.051s-.816-.708-1.26-.864c-.444-.155-1.147-.233-2.11-.233h-.85v8.666h-4.191zm4.192-11.98h3.101c2.012 0 3.267-.085 3.768-.255.5-.17.892-.463 1.175-.878s.425-.935.425-1.558c0-.698-.187-1.263-.56-1.692s-.899-.7-1.579-.813c-.34-.048-1.359-.071-3.059-.071h-3.271v5.267zM310.036 27.246l4.063 1.289c-.623 2.266-1.659 3.948-3.108 5.048s-3.287 1.649-5.516 1.649c-2.756 0-5.021-.941-6.797-2.824-1.774-1.884-2.662-4.458-2.662-7.725 0-3.455.893-6.139 2.677-8.05 1.784-1.912 4.13-2.868 7.038-2.868 2.539 0 4.602.751 6.188 2.252.944.888 1.652 2.162 2.124 3.823l-4.149.991c-.245-1.076-.757-1.926-1.536-2.549-.778-.623-1.725-.935-2.839-.935-1.539 0-2.787.552-3.745 1.657-.958 1.104-1.438 2.893-1.438 5.366 0 2.624.472 4.493 1.416 5.607s2.171 1.671 3.682 1.671c1.114 0 2.072-.354 2.874-1.063.802-.704 1.379-1.818 1.728-3.339zM317.711 34.879V14.12h4.191v8.171h8.213V14.12h4.191v20.759h-4.191v-9.076h-8.213v9.076h-4.191zM50.819 61.245a13.723 13.723 0 0 0 3.356 1.756l-1.543 2.96a9.605 9.605 0 0 1-1.855-.779c-.132-.066-1.062-.68-2.79-1.841-1.359.595-2.865.892-4.517.892-3.191 0-5.69-.938-7.498-2.817-1.808-1.879-2.711-4.517-2.711-7.915 0-3.39.906-6.025 2.719-7.909 1.813-1.883 4.271-2.825 7.377-2.825 3.078 0 5.518.942 7.321 2.825 1.803 1.884 2.705 4.52 2.705 7.909 0 1.793-.25 3.369-.75 4.729-.379 1.038-.984 2.042-1.814 3.015zm-3.37-2.364c.538-.633.942-1.397 1.21-2.295.27-.896.404-1.926.404-3.086 0-2.398-.529-4.189-1.586-5.374s-2.44-1.777-4.149-1.777-3.094.595-4.156 1.784c-1.062 1.189-1.593 2.979-1.593 5.367 0 2.426.531 4.24 1.593 5.444 1.063 1.203 2.405 1.806 4.029 1.806.604 0 1.175-.1 1.713-.298a12.15 12.15 0 0 0-2.591-1.303l1.175-2.394c1.378.474 2.695 1.182 3.951 2.126zM56.639 43.12h4.191v11.243c0 1.784.052 2.94.156 3.469.179.85.606 1.532 1.281 2.047.675.515 1.598.771 2.769.771 1.189 0 2.086-.243 2.69-.729s.968-1.083 1.09-1.791.184-1.884.184-3.526V43.12h4.191v10.903c0 2.492-.113 4.253-.34 5.281-.227 1.029-.645 1.898-1.253 2.605-.609.709-1.423 1.272-2.443 1.692s-2.351.63-3.993.63c-1.982 0-3.486-.229-4.51-.687-1.024-.458-1.833-1.053-2.428-1.784s-.986-1.498-1.175-2.301c-.274-1.189-.411-2.945-.411-5.268V43.12zM96.33 63.879h-4.56l-1.813-4.715H81.66l-1.713 4.715H75.5l8.085-20.759h4.432l8.313 20.759zm-7.718-8.213l-2.86-7.703-2.804 7.703h5.664zM98.567 63.879V43.12h8.822c2.218 0 3.831.187 4.835.56 1.006.373 1.811 1.036 2.415 1.989s.906 2.044.906 3.271c0 1.559-.458 2.845-1.374 3.859s-2.285 1.654-4.106 1.918c.906.529 1.654 1.109 2.244 1.742.59.633 1.386 1.756 2.386 3.37l2.535 4.05h-5.013l-3.03-4.518c-1.076-1.613-1.813-2.631-2.209-3.051s-.816-.708-1.26-.864c-.444-.155-1.147-.233-2.11-.233h-.85v8.666h-4.191zm4.191-11.98h3.101c2.011 0 3.266-.085 3.767-.255s.892-.463 1.175-.878.425-.935.425-1.558c0-.698-.187-1.263-.56-1.692-.373-.43-.899-.7-1.579-.813-.34-.048-1.359-.071-3.059-.071h-3.271v5.267zM124.168 63.879V46.632h-6.16V43.12h16.497v3.512h-6.146v17.247h-4.191zM137.21 63.879V43.12h15.392v3.512h-11.201v4.603h10.422v3.497h-10.422v5.649h11.597v3.498H137.21zM156.567 63.879V43.12h8.822c2.218 0 3.831.187 4.835.56 1.006.373 1.811 1.036 2.415 1.989s.906 2.044.906 3.271c0 1.559-.458 2.845-1.374 3.859s-2.285 1.654-4.106 1.918c.906.529 1.654 1.109 2.244 1.742.59.633 1.386 1.756 2.386 3.37l2.535 4.05h-5.013l-3.03-4.518c-1.076-1.613-1.813-2.631-2.209-3.051s-.816-.708-1.26-.864c-.444-.155-1.147-.233-2.11-.233h-.85v8.666h-4.191zm4.191-11.98h3.101c2.011 0 3.266-.085 3.767-.255s.892-.463 1.175-.878.425-.935.425-1.558c0-.698-.187-1.263-.56-1.692-.373-.43-.899-.7-1.579-.813-.34-.048-1.359-.071-3.059-.071h-3.271v5.267zM177.609 63.879V43.29h4.191v17.091h10.422v3.498h-14.613zM198 63.879v-8.736l-7.604-12.022h4.914l4.885 8.213 4.786-8.213h4.829l-7.632 12.05v8.709H198z"/></g></svg>