<svg xmlns="http://www.w3.org/2000/svg" viewBox="0 0 357.313 26.556"><title>roe-logo</title><path d="M.059,24.778a4.48,4.48,0,0,1,1.5-.4,8.27,8.27,0,0,0,1.8-.42,4.972,4.972,0,0,0,.117-.567q.039-.273.039-1.876L3.5,17.157l.078-2.345-.039-1.817.039-1.055q.059-2.13.059-3.986,0-4.064-.1-5.2L2.384,2.521q-1.583-.1-2.11-.2L.234,1.153.313.938A11.413,11.413,0,0,1,2.11.781q.449,0,1.817-.02Q5.335.879,5.452.879L6.487.82,8.93.7A47.382,47.382,0,0,1,13.757.469a9.417,9.417,0,0,1,6.371,2.042,6.063,6.063,0,0,1,2.364,4.68,5.641,5.641,0,0,1-1.275,3.586,7.761,7.761,0,0,1-3.925,2.433,11.416,11.416,0,0,0,.624.958q.818,1.173,1.324,1.994l3.116,5.061a15.151,15.151,0,0,0,1.534,2.354,4.7,4.7,0,0,0,1.495.752,6.164,6.164,0,0,1,1.349.665,1.8,1.8,0,0,1,.117.586c0,.118-.007.268-.02.45H26.3l-.391.02L24.9,25.912h-.8a10.268,10.268,0,0,0-1.544-.1l-1.954-.02q-.215,0-1.368.137-.528.059-.84.1l-.665-1.29q-.82-1.466-1.153-2.189-.86-1.895-2.951-6.038a7.549,7.549,0,0,0-1.368-2.169,3.656,3.656,0,0,0-2.013-.411q-.391,0-1.329.039a13.354,13.354,0,0,0-.059,1.349l.1,4.338-.117,3.674a4.437,4.437,0,0,0,1.426.508,16.091,16.091,0,0,1,2.619.742,9.965,9.965,0,0,1-.078,1.446c-.248-.013-.4-.02-.469-.02l-.8.039q-4.2-.371-4.983-.371-.508,0-.723.02l-2.7.176a20.461,20.461,0,0,1-2.247.137H.039Q0,25.521,0,25.384A4.384,4.384,0,0,1,.059,24.778ZM8.852,12.135q.938.04,1.368.039,3.322,0,4.709-1.192A3.988,3.988,0,0,0,16.317,7.8a7.674,7.674,0,0,0-.341-2.316,4.093,4.093,0,0,0-.848-1.612,4.513,4.513,0,0,0-1.891-1.153,9.271,9.271,0,0,0-2.748-.293,10.455,10.455,0,0,0-1.54.1l-.039.372L8.95,5.53l-.059,1.6.02,2.13q-.04.9-.059,2.326Z" fill="#231f20"/><path d="M27.683,15.621a8.7,8.7,0,0,1,.9-2.211,10.019,10.019,0,0,1,2.335-2.5,7.633,7.633,0,0,1,2.238-1.194,7.946,7.946,0,0,1,2.091-.372,12.669,12.669,0,0,1,2.97.283,5.77,5.77,0,0,1,1.9.811,9.183,9.183,0,0,1,1.759,1.542,6.56,6.56,0,0,1,1.084,1.835,7.466,7.466,0,0,1,.459,2.558l-2.169-.037q-.9,0-3.947-.171-1.134-.1-1.563-.1-.137,0-2.11.04H31.942a3.353,3.353,0,0,0-.039.47,10.1,10.1,0,0,0,.254,2.185,6.987,6.987,0,0,0,.762,2.018,5.591,5.591,0,0,0,1.261,1.5,4.925,4.925,0,0,0,1.553.9l1.133.372a13.068,13.068,0,0,0,2.013-.1,8.819,8.819,0,0,0,1.651-.5,9.692,9.692,0,0,0,1.729-1.026q.7.508,1.172.918a11.25,11.25,0,0,1-3.566,2.745,9.769,9.769,0,0,1-4.133.85,9.568,9.568,0,0,1-2.521-.274,7.656,7.656,0,0,1-2.365-1.076,7.223,7.223,0,0,1-1.817-1.8A8.269,8.269,0,0,1,27.9,21.079a8.113,8.113,0,0,1-.489-2.387A15.721,15.721,0,0,1,27.683,15.621Zm11.354-.828a5.756,5.756,0,0,0-.43-2.1,3.3,3.3,0,0,0-1.27-1.561,2.994,2.994,0,0,0-4.1.593,4.99,4.99,0,0,0-1.192,3.126l4.456.039q.43,0,1.211-.059.567-.053.8-.054Q38.684,14.778,39.036,14.792Z" fill="#231f20"/><path d="M44.585,10.063l.449-.02,4.065.1,1.211.02,2.58-.1h.449a2.014,2.014,0,0,1,.117.559,5,5,0,0,1-.078.713q-.371.059-.86.117a3.2,3.2,0,0,0-1.192.313.321.321,0,0,0-.176.254,1.87,1.87,0,0,0,.254.821q.117.2.547,1.271.176.47.645,1.409,1.466,3.032,2.091,4.716.371,1,.606,1.467,1.367-3.15,2.951-8.022a9.358,9.358,0,0,0,.469-2.055,14.322,14.322,0,0,0-2.15-.176H56.33l-.312-.039a5.8,5.8,0,0,1-.039-.656,1.249,1.249,0,0,1,.156-.694L56.818,10l1.7.02h.958q.88.078,1.837.078l1.563-.078q.195,0,.547.02c.013.231.02.418.02.559s-.007.321-.02.54a12.692,12.692,0,0,0-2.755.875q-.137.274-.176.372l-.079.176q-.781,2.348-2.481,6.2l-2.11,5.107q-.411.978-.606,1.35-.333.666-.567,1.154H53.066a31.512,31.512,0,0,1-1.583-3.189l-2.658-5.948q-.977-2.368-2.228-4.99a1.321,1.321,0,0,0-.254-.411,5.959,5.959,0,0,1-1.817-.661,3.151,3.151,0,0,1-.039-.52A1.556,1.556,0,0,1,44.585,10.063Z" fill="#231f20"/><path d="M63.736,25.99,63.7,24.72l2.208-.293a1.181,1.181,0,0,0,.674-.4,2.388,2.388,0,0,0,.186-1.182v-.215q0-.234.029-.85t.029-1.084q0-.371-.059-1.426l.029-.977-.029-.918.059-3.186a6.955,6.955,0,0,0-.118-1.25,1.7,1.7,0,0,0-.787-.508,7.876,7.876,0,0,0-1.987-.313V11.021a9.47,9.47,0,0,0,3.537-.84A8.175,8.175,0,0,0,69.716,8.52h1.309q.078,2.423.078,6.292l-.137,7.973a12.764,12.764,0,0,0,.078,1.485,12.171,12.171,0,0,0,1.974.43,4.218,4.218,0,0,1,.84.2l-.039,1.075q-.527.02-.78.02-.293,0-.9-.039-1.989-.1-5.325-.1-.955,0-1.853.068T63.736,25.99ZM66.472,2.677A2.322,2.322,0,0,1,67.156.948,2.4,2.4,0,0,1,68.915.273,2.693,2.693,0,0,1,70.83.987,2.161,2.161,0,0,1,71.592,2.6a3.183,3.183,0,0,1-.3,1.329,2.4,2.4,0,0,1-.958,1.065,2.537,2.537,0,0,1-1.339.4,2.4,2.4,0,0,1-1.729-.8A2.629,2.629,0,0,1,66.472,2.677Z" fill="#231f20"/><path d="M76.047,15.621a8.7,8.7,0,0,1,.9-2.211,10.019,10.019,0,0,1,2.335-2.5,7.633,7.633,0,0,1,2.238-1.194,7.946,7.946,0,0,1,2.091-.372,12.669,12.669,0,0,1,2.97.283,5.77,5.77,0,0,1,1.9.811,9.183,9.183,0,0,1,1.759,1.542,6.56,6.56,0,0,1,1.084,1.835,7.466,7.466,0,0,1,.459,2.558l-2.169-.037q-.9,0-3.947-.171-1.134-.1-1.563-.1-.137,0-2.11.04H80.307a3.353,3.353,0,0,0-.039.47,10.1,10.1,0,0,0,.254,2.185,6.987,6.987,0,0,0,.762,2.018,5.591,5.591,0,0,0,1.261,1.5,4.925,4.925,0,0,0,1.553.9l1.133.372a13.068,13.068,0,0,0,2.013-.1,8.819,8.819,0,0,0,1.651-.5,9.692,9.692,0,0,0,1.729-1.026q.7.508,1.172.918a11.25,11.25,0,0,1-3.566,2.745,9.769,9.769,0,0,1-4.133.85,9.568,9.568,0,0,1-2.521-.274,7.656,7.656,0,0,1-2.365-1.076,7.223,7.223,0,0,1-1.817-1.8,8.269,8.269,0,0,1-1.133-2.211,8.113,8.113,0,0,1-.489-2.387A15.721,15.721,0,0,1,76.047,15.621ZM87.4,14.792a5.756,5.756,0,0,0-.43-2.1,3.3,3.3,0,0,0-1.27-1.561,2.994,2.994,0,0,0-4.1.593A4.99,4.99,0,0,0,80.4,14.851l4.456.039q.43,0,1.211-.059.567-.053.8-.054Q87.048,14.778,87.4,14.792Z" fill="#231f20"/><path d="M92.911,10.122l.352-.02h.293q.157,0,1.358.117t2.218.117q.781,0,2.188-.117t1.72-.117q.254,0,.723.02.039.371.039.606a1.561,1.561,0,0,1-.078.449,4.113,4.113,0,0,1-.684.157,3.983,3.983,0,0,0-1.192.352.444.444,0,0,0-.156.273,9.691,9.691,0,0,0,.332,1.036l1.915,4.377a33.521,33.521,0,0,0,1.642,3.38q.39.88.528,1.173a33.379,33.379,0,0,0,2.774-6.156L106,13.913a23.226,23.226,0,0,0-1.134-2.208q-.352-.1-.762-.2-.724-.176-1.329-.372V10.044q1.443.022,1.969.088.878.088,2.613.088.858,0,2.106-.049t1.521-.049h.956l-.039,1.114q-.215.02-.977.1a7.294,7.294,0,0,0-1.349.254q.976,2.423,1.289,2.99l.234.43,2.09,4.573.722,1.563.763-1.681q.939-2.052,1.115-2.5.567-1.466.665-1.68a7.71,7.71,0,0,0,.918-2.873q0-.254-.41-.528a13.334,13.334,0,0,0-1.446-.488,7.242,7.242,0,0,1-1.27-.235l.1-1.016a3.849,3.849,0,0,1,.489-.039q.156,0,1.769.127t1.886.127q.742,0,2.267-.156.664-.059,1.094-.059v.567q0,.157-.02.605a9.991,9.991,0,0,0-2.4.918.939.939,0,0,0-.254.372L116.2,19.326q-.763,1.6-2.583,6.1-.254.606-.391.938h-1.457l-3.342-7.445-.352-.762a7.613,7.613,0,0,0-.372-.723l-.176.313-2.345,4.846q-.528,1.134-.987,1.974a15.023,15.023,0,0,0-.811,1.739l-.684.02-1.055-.02L98.6,19.814l-3.3-7.113a2.622,2.622,0,0,0-.586-.782,2.489,2.489,0,0,0-1.065-.459,1.8,1.8,0,0,1-.752-.245q-.02-.371-.02-.566A3.491,3.491,0,0,1,92.911,10.122Z" fill="#231f20"/><path d="M148.425,11.744a7.8,7.8,0,0,1,1.868,2.785,8.13,8.13,0,0,1,.616,2.96,9.471,9.471,0,0,1-.8,4.221,8.112,8.112,0,0,1-3.267,3.576,9.585,9.585,0,0,1-4.773,1.153,9.352,9.352,0,0,1-5.174-1.368,8.46,8.46,0,0,1-3.032-3.107,9.247,9.247,0,0,1-.909-4.319,8.429,8.429,0,0,1,.43-2.628,7.564,7.564,0,0,1,1.183-2.3,8.383,8.383,0,0,1,1.653-1.642,9.065,9.065,0,0,1,2.631-1.338,11.119,11.119,0,0,1,3.2-.4A8.386,8.386,0,0,1,148.425,11.744ZM137.739,18.5q.176,2.427.254,2.8a7.121,7.121,0,0,0,.8,2.25,3.175,3.175,0,0,0,1.231,1.076,4.215,4.215,0,0,0,2.052.47,3.4,3.4,0,0,0,2.4-.91,5.394,5.394,0,0,0,1.407-2.847,22.217,22.217,0,0,0,.273-4.167q0-3.562-1.172-5.039A3.749,3.749,0,0,0,141.9,10.65a3.7,3.7,0,0,0-2.492.841,4.525,4.525,0,0,0-1.377,2.485A25.809,25.809,0,0,0,137.739,18.5Z" fill="#231f20"/><path d="M153.411,25.99l-.02-1.094a9.882,9.882,0,0,1,1.4-.459,4.006,4.006,0,0,0,1.2-.439.82.82,0,0,0,.215-.606v-.43q.078-1.818.078-2.032c0-.118-.007-.28-.02-.489l-.02-.234.02-.254v-.176l-.117-3.361-.02-3.752-.039-.371q-.352,0-1.036-.04h-1.231c-.079-.01-.189-.031-.333-.062q-.02-.532-.02-.848a1.36,1.36,0,0,1,.273-.887q.587,0,2.306-.137A14.636,14.636,0,0,1,156.8,5.95a9.849,9.849,0,0,1,1.749-3.273l.508-.566A9.1,9.1,0,0,1,161.433.576,6.821,6.821,0,0,1,164,.137,5.391,5.391,0,0,1,166.4.605a2.736,2.736,0,0,1,1.309,1.2,3.091,3.091,0,0,1,.362,1.358,2.012,2.012,0,0,1-.645,1.436A1.966,1.966,0,0,1,166,5.256a2.011,2.011,0,0,1-1.153-.391,4.486,4.486,0,0,1-.948-1.222,5.057,5.057,0,0,0-.87-1.182,1.334,1.334,0,0,0-.821-.234,1.417,1.417,0,0,0-1.055.469,2.658,2.658,0,0,0-.625,1.349,22.055,22.055,0,0,0-.176,3.518l-.02,2.149.02.566.369.02,2.312-.059a3.874,3.874,0,0,1,.544.059q.273.235.273.391l-.039.371v.528a3.186,3.186,0,0,1-.059.449.823.823,0,0,1-.409.1h-.175l-1.479.039a3.041,3.041,0,0,1-.564-.039h-.175a2.972,2.972,0,0,0-.584.086l-.013.957c0,.091,0,.235.013.43q.026,1.113.026,1.523L160.374,18l.032,2.09-.02,1.679q-.039,1.777.35,2.148a4.1,4.1,0,0,0,2.351.762,1.771,1.771,0,0,1,.6.137,5,5,0,0,1,.078.605,3.347,3.347,0,0,1-.078.606h-1.4q-.176,0-2.282-.137l-1.053-.078q-1.521,0-2.36.07Q156.141,25.937,153.411,25.99Z" fill="#231f20"/><path d="M181.441.684q1.114.059,1.935.176a26.259,26.259,0,0,0,3.576.215q.7,0,3.615-.117,4.358-.177,7.875-.176l3.537-.039a30.583,30.583,0,0,1,3.518.293,1.519,1.519,0,0,1,.352,1.055V6.116l.039.8q0,.117-.02.352l-.8.039q-.157,0-.665-.039-.176-.39-.469-1.153l-.781-1.387a9.012,9.012,0,0,0-1.251-1.8,5.224,5.224,0,0,0-1.25-.156q-.2-.02-1.192-.1-1.818-.156-3.908-.156-2.385,0-4.26.078-.059.489-.059,3.85l.02,3.283v2.462a7.231,7.231,0,0,0,.842.059q3.505,0,4.994-.137a4.864,4.864,0,0,0,1.841-.381,2.021,2.021,0,0,0,.627-.85,27.019,27.019,0,0,0,.686-2.873l.254-.02,1.133.02q.078,1.74.078,2.638,0,2.052-.029,2.638t-.029.918q0,.527.059,1.69t.059,1.729v.43h-1.387q-.079-.313-.294-1.29a7.885,7.885,0,0,0-.705-2.267,1.422,1.422,0,0,0-.783-.528,15.543,15.543,0,0,0-2.9-.137q-2.958,0-4.445.156v.665q0,2.325.078,3.869l-.039,4.221a1.039,1.039,0,0,0,.528,1.017q.8.41,4.9.41a22.177,22.177,0,0,0,4.612-.41,4.588,4.588,0,0,0,2.306-1.31,9.939,9.939,0,0,0,2.208-3.674q.606-.059,1-.059.215,0,.645.02-.058.489-.1.821l-.115.586-.712,3.693-.347,2.228q-1.271.059-2.014.059-1.1,0-5.848-.2-3.344-.137-8.057-.137-2.347,0-5.77.2h-.821l-2.366.078V24.72a12.066,12.066,0,0,1,1.485-.215,9.435,9.435,0,0,0,2.814-.625,4.056,4.056,0,0,0,.215-1.427q0-.332-.02-1.133l.02-.606-.059-7.367.02-2.208-.1-3.126.02-2.208-.176-2.423a3.766,3.766,0,0,0-.039-.391.956.956,0,0,0-.586-.274q-.215-.039-.586-.117a12.823,12.823,0,0,0-2.149-.273q-.371-.019-.86-.078Z" fill="#231f20"/><path d="M214.154,11A7.244,7.244,0,0,1,216,10.044a12.167,12.167,0,0,1,2.511-.449h1.095a6.715,6.715,0,0,1,4.084,1.465l.039-.469-.02-1.31.078-2.091a10.384,10.384,0,0,0-.509-4.182,1.149,1.149,0,0,0-1.025-.567,3.153,3.153,0,0,1-1.183-.254V1.25a3.463,3.463,0,0,1,.958-.127,13.8,13.8,0,0,0,2.286-.4l.664-.137,1.935-.449A4.781,4.781,0,0,1,227.637,0a2.008,2.008,0,0,1,.313.039,2.483,2.483,0,0,1,.117.605l-.02.293V1.29q0,.547.059,2.912V5.256l.02.567-.02.977.059,2.032-.039,1.192q-.04.782-.039,2.462c0,.183.007.345.02.488V13.7c-.013.208-.02.365-.02.469q0,.294.059.84v1.075l-.02.411q-.04.567-.039,1.563,0,1.016.039,1.836.019.333.02.606v1.466q0,.7.039,1.68a4.767,4.767,0,0,0,1.72.313,4.226,4.226,0,0,1,.762.1,1.538,1.538,0,0,1,.1.43,1.619,1.619,0,0,1-.137.528,13.206,13.206,0,0,1-1.681.293,11.826,11.826,0,0,0-3.811.938,1.956,1.956,0,0,1-.762.313,3.432,3.432,0,0,1-.488-.039c.013-.236.02-.387.02-.453a14.8,14.8,0,0,0-.059-1.713q-.293.158-.724.414a10.034,10.034,0,0,1-2.384,1.094,9.007,9.007,0,0,1-2.462.306,7.209,7.209,0,0,1-3.928-.938,7.43,7.43,0,0,1-3-3.283,10.448,10.448,0,0,1-.83-4.2A8.281,8.281,0,0,1,214.154,11Zm6.019,12.917q.41.039.7.039a4.011,4.011,0,0,0,1.378-.269,8.279,8.279,0,0,0,1.554-.787c.013-.43.02-.7.02-.8q0-6.195-.176-7.465a4.065,4.065,0,0,0-1.29-2.619,3.763,3.763,0,0,0-2.56-.918,4.3,4.3,0,0,0-1.632.313,3.138,3.138,0,0,0-1.261.9,5.973,5.973,0,0,0-1.094,1.951,9.022,9.022,0,0,0-.509,2.849,7.649,7.649,0,0,0,1.349,4.868A5.092,5.092,0,0,0,220.172,23.918Z" fill="#231f20"/><path d="M232.014,10.181c.144-.052.261-.091.353-.117h5.823l.43.039.039,1.308-.059,1.912.02,1-.02,2.946v2.01a17.452,17.452,0,0,0,.215,3.1,2.451,2.451,0,0,0,.948,1.3,2.791,2.791,0,0,0,1.592.439,4.771,4.771,0,0,0,1.427-.176,5.068,5.068,0,0,0,1.261-.663,6.115,6.115,0,0,0,.908-.7,4.1,4.1,0,0,0,.782-1.151l.137-4.858q.038-.761.039-1.249,0-.507-.029-1.278t-.029-.868l.02-.722-.039-.429a3.023,3.023,0,0,0-1.31-.371l-1.31-.1a1.208,1.208,0,0,1-.215-.137,3.327,3.327,0,0,1-.078-.586,5.286,5.286,0,0,1,.059-.665,7.663,7.663,0,0,1,1.117-.1l3.018.039q1.214,0,2.979-.039l.039,1.463-.078,1.874.039,2.341-.02,3.356-.039,1.5.02,1.015q-.079,1.014-.078,1.151a1.2,1.2,0,0,0,.176.722c.117.156.228.234.332.234l1.8-.059.234.039q.059.685.059.782a2.463,2.463,0,0,1-.059.43,9.633,9.633,0,0,0-1.485.137,36.053,36.053,0,0,0-4.572,1.387l-.781-.039-.02-3.185q-.234.2-.685.606a12.1,12.1,0,0,1-2.95,2.062,6.389,6.389,0,0,1-2.58.537,5.544,5.544,0,0,1-2.774-.663,4.362,4.362,0,0,1-1.72-1.64,5.9,5.9,0,0,1-.547-2.186q-.04-.37-.039-3.825l.02-.625q.1-1.912.1-2.83,0-1.562-.059-2.088a1.555,1.555,0,0,0-.2-.585,2.719,2.719,0,0,0-.646-.176,5.546,5.546,0,0,1-1.563-.41c-.064-.039-.1-.124-.1-.254a2.225,2.225,0,0,1,.029-.313C231.965,10.7,231.989,10.48,232.014,10.181Z" fill="#231f20"/><path d="M269.924,20.89a3.757,3.757,0,0,0,.469.234,2.14,2.14,0,0,1,.723.488,6.092,6.092,0,0,1-2.56,3.381,8.737,8.737,0,0,1-5.14,1.426,9.743,9.743,0,0,1-3.869-.821A8.012,8.012,0,0,1,256.5,23.43a6.811,6.811,0,0,1-1.319-2.54,9.4,9.4,0,0,1-.439-2.56,9.079,9.079,0,0,1,.547-2.882,8.7,8.7,0,0,1,1.837-3.039,9.183,9.183,0,0,1,3.254-2.267A11.147,11.147,0,0,1,264.8,9.3q3.381,0,4.71,1.055a2.856,2.856,0,0,1,1.328,2.111,2.345,2.345,0,0,1-.537,1.631,1.884,1.884,0,0,1-1.476.6,2.342,2.342,0,0,1-1.476-.528,3.863,3.863,0,0,1-1.123-1.778,2.913,2.913,0,0,0-.9-1.31,2.192,2.192,0,0,0-1.309-.391,4.366,4.366,0,0,0-3.283,1.573,6.1,6.1,0,0,0-1.446,4.29,7.37,7.37,0,0,0,1.769,5.188,5.335,5.335,0,0,0,4.016,1.925,6.173,6.173,0,0,0,1.9-.254,6.311,6.311,0,0,0,1.329-.762,6.783,6.783,0,0,0,.811-.84Q269.709,21.124,269.924,20.89Z" fill="#231f20"/><path d="M290.032,22.316l.45.293a.554.554,0,0,1,.215.333l.02.1a4.778,4.778,0,0,1-1.23,2.394,2.8,2.8,0,0,1-1.9.655,3.167,3.167,0,0,1-1.983-.635,5.493,5.493,0,0,1-1.514-2.237,5.408,5.408,0,0,1-2.365,2.237A8.372,8.372,0,0,1,278,26.2a4.415,4.415,0,0,1-2.99-.85,2.846,2.846,0,0,1-.958-2.237,3.329,3.329,0,0,1,.283-1.31,4.405,4.405,0,0,1,.919-1.319,9.008,9.008,0,0,1,2.042-1.436q.214-.117,1.485-.665l4.865-1.954q.059-.743.059-1.5a6.973,6.973,0,0,0-.645-3.6,1.522,1.522,0,0,0-1.368-.586,4.317,4.317,0,0,0-1.8.371,2.645,2.645,0,0,0-1.191.958,4.774,4.774,0,0,0-.47,1.622,2.937,2.937,0,0,1-.254,1,2.523,2.523,0,0,1-1.064.674c-.516.2-.863.349-1.046.439a4.2,4.2,0,0,1-1.681.508.827.827,0,0,1-.273-.665,3.727,3.727,0,0,1,.469-1.915,8.359,8.359,0,0,1,2.12-2.2,10,10,0,0,1,2.648-1.5,13.39,13.39,0,0,1,4.1-.547,5.827,5.827,0,0,1,2.687.576,3.158,3.158,0,0,1,1.563,1.71,12.838,12.838,0,0,1,.439,4.084l-.039,3.225.039,2.364v.606a2.035,2.035,0,0,0,.221,1.124.674.674,0,0,0,.567.3.586.586,0,0,0,.365-.117l.586-.918Zm-6.409-4.534a12.165,12.165,0,0,0-2.511,1.241,5.923,5.923,0,0,0-1.944,1.749,3,3,0,0,0-.391,1.583,1.958,1.958,0,0,0,.508,1.388,1.558,1.558,0,0,0,1.172.547,2.828,2.828,0,0,0,1.856-.625,3.838,3.838,0,0,0,1.212-1.338A12.472,12.472,0,0,0,283.7,19.5Q283.7,18.642,283.623,17.782Z" fill="#231f20"/><path d="M292.28,11.17a12.033,12.033,0,0,0,3.331-1.912,12.275,12.275,0,0,0,2.2-3.044H298.9a3.266,3.266,0,0,1,.176,1.075q0,1.017-.02,1.583L299,10.024c0,.065.007.215.02.45l.449.02q.1,0,1.837-.078.138,0,1.466-.04a4.3,4.3,0,0,1,.117.929,4.81,4.81,0,0,1-.137,1.045,5.966,5.966,0,0,1-.977.117,4.765,4.765,0,0,1-.626-.078h-1.016l-.352-.02-.938.059-.039,7.465a18.675,18.675,0,0,0,.088,2.707,2.624,2.624,0,0,0,.459,1.026,2.284,2.284,0,0,0,1,.215,2.325,2.325,0,0,0,.781-.1,4.31,4.31,0,0,0,.86-.566c.078-.065.2-.156.371-.273a4.607,4.607,0,0,1,.762.741l.078.234a4.692,4.692,0,0,1-1.925,1.69,5.875,5.875,0,0,1-2.647.616,3.958,3.958,0,0,1-2.951-1.151,4.921,4.921,0,0,1-1.133-3.571l.078-3.435V12.467l-.605-.039-1.407.039-.254-.1a.6.6,0,0,1-.117-.329Q292.241,11.925,292.28,11.17Z" fill="#231f20"/><path d="M304.258,25.99l-.039-1.27,2.208-.293a1.181,1.181,0,0,0,.675-.4,2.394,2.394,0,0,0,.186-1.182v-.215q0-.234.029-.85t.029-1.084q0-.371-.059-1.426l.029-.977-.029-.918.059-3.186a6.911,6.911,0,0,0-.118-1.25,1.706,1.706,0,0,0-.787-.508,7.872,7.872,0,0,0-1.987-.313V11.021a9.467,9.467,0,0,0,3.537-.84,8.161,8.161,0,0,0,2.247-1.661h1.31q.078,2.423.078,6.292l-.137,7.973a12.872,12.872,0,0,0,.078,1.485,12.147,12.147,0,0,0,1.974.43,4.24,4.24,0,0,1,.841.2l-.039,1.075q-.527.02-.78.02-.293,0-.9-.039-1.989-.1-5.324-.1-.957,0-1.854.068T304.258,25.99Zm2.736-23.313a2.322,2.322,0,0,1,.684-1.729,2.4,2.4,0,0,1,1.759-.674,2.693,2.693,0,0,1,1.915.713,2.162,2.162,0,0,1,.762,1.612,3.176,3.176,0,0,1-.3,1.329,2.4,2.4,0,0,1-.957,1.065,2.536,2.536,0,0,1-1.339.4,2.394,2.394,0,0,1-1.729-.8A2.629,2.629,0,0,1,306.995,2.677Z" fill="#231f20"/><path d="M331.829,11.744a7.806,7.806,0,0,1,1.868,2.785,8.13,8.13,0,0,1,.616,2.96,9.477,9.477,0,0,1-.8,4.221,8.107,8.107,0,0,1-3.268,3.576,9.581,9.581,0,0,1-4.772,1.153,9.352,9.352,0,0,1-5.175-1.368,8.46,8.46,0,0,1-3.032-3.107,9.247,9.247,0,0,1-.909-4.319,8.428,8.428,0,0,1,.43-2.628,7.576,7.576,0,0,1,1.184-2.3,8.4,8.4,0,0,1,1.653-1.642,9.075,9.075,0,0,1,2.631-1.338,11.128,11.128,0,0,1,3.2-.4A8.385,8.385,0,0,1,331.829,11.744ZM321.142,18.5q.176,2.427.254,2.8a7.145,7.145,0,0,0,.8,2.25,3.174,3.174,0,0,0,1.23,1.076,4.219,4.219,0,0,0,2.053.47,3.394,3.394,0,0,0,2.4-.91,5.394,5.394,0,0,0,1.407-2.847,22.259,22.259,0,0,0,.273-4.167q0-3.562-1.173-5.039A3.748,3.748,0,0,0,325.3,10.65a3.705,3.705,0,0,0-2.491.841,4.526,4.526,0,0,0-1.378,2.485A25.911,25.911,0,0,0,321.142,18.5Z" fill="#231f20"/><path d="M336.541,25.009a3.965,3.965,0,0,1,.938-.313,4.9,4.9,0,0,0,1.251-.294.877.877,0,0,0,.391-.43,7.667,7.667,0,0,0,.117-1.722v-1.7l.02-1.389L339.2,17.1V15.872a8.57,8.57,0,0,0-.2-2.015,1.155,1.155,0,0,0-.489-.587,6.376,6.376,0,0,0-1.856-.763l-.02-.938a3.052,3.052,0,0,1,.46-.107q.205-.029,1.573-.381,1.074-.39,1.387-.547c.065-.039.169-.1.313-.176a6.464,6.464,0,0,1,.528-.391,7.626,7.626,0,0,0,1.406-1.426l1.056-.079-.039,2.208a4.7,4.7,0,0,0-.039.528q0,.156.039.9a11.209,11.209,0,0,1,2.946-1.955,8.574,8.574,0,0,1,3.3-.724,5.727,5.727,0,0,1,3.219.911,4.34,4.34,0,0,1,1.814,2.1,17.211,17.211,0,0,1,.429,4.816l-.078,6.382a1.57,1.57,0,0,0,.156.744,3.512,3.512,0,0,0,1.075.276l.957.184a1.042,1.042,0,0,1,.176.615q0,.231-.02.635l-3.83-.273-1.133.039h-.9l-2.579.176h-.664c-.014-.164-.02-.29-.02-.378q0-.341.039-.737.274-.059,1.367-.2a4.842,4.842,0,0,0,.646-.137c.26-.1.41-.209.449-.313A3.443,3.443,0,0,0,350.826,23q0-1.644-.02-2.525l.02-2.27q0-4.129-.526-5.146a2.374,2.374,0,0,0-2.222-1.467,5.243,5.243,0,0,0-2.261.558,10.157,10.157,0,0,0-2.417,1.693l-.039.332L343.4,15.4l-.039,1.31.078,3.127-.039.489a12.348,12.348,0,0,0,.256,3.6,4.066,4.066,0,0,0,1.952.914,3.149,3.149,0,0,1,.059.488,2.992,2.992,0,0,1-.138.723c-.405.013-.744.02-1.019.02a9.758,9.758,0,0,1-1.292-.132l-2.1-.044q-1.566,0-4.523.137a1.069,1.069,0,0,1-.078-.4Q336.521,25.471,336.541,25.009Z" fill="#231f20"/></svg>