<svg width="731" height="229" xmlns="http://www.w3.org/2000/svg" xmlns:svg="http://www.w3.org/2000/svg">
 <metadata id="metadata11">image/svg+xml</metadata>
 <g class="layer">
  <title>Layer 1</title>
  <path d="m592.1,229.4l0,-29.6l138.8,0l0,29.6l-138.8,0zm-561.3,-73.5c0.4,5.3 2.5,10 6.5,14.1c4,4.2 10,6.2 17.9,6.2c6,0 10.4,-1.3 13.3,-3.9c2.9,-2.6 4.3,-5.7 4.3,-9.4c0,-3.1 -1.1,-5.7 -3.3,-8c-2.2,-2.3 -5.9,-3.9 -11.1,-5l-17.6,-4.1c-13,-2.9 -22.5,-7.9 -28.5,-15.1c-6,-7.1 -9,-15.4 -9,-24.8c0,-6 1.3,-11.6 3.8,-17c2.5,-5.3 6,-10 10.5,-13.8c4.4,-3.9 9.7,-7 15.8,-9.4c6.1,-2.4 12.7,-3.5 20,-3.5c9.4,0 17.4,1.3 23.9,3.9c6.5,2.6 11.8,5.9 15.9,9.9c4.1,4 7.1,8.2 9.1,12.6c2,4.4 3.2,8.5 3.5,12.1l-30.1,6.8c-0.4,-2 -1,-4 -1.8,-6.1c-0.8,-2.1 -2.1,-4 -3.9,-5.8c-1.8,-1.8 -4,-3.3 -6.7,-4.3c-2.6,-1.1 -5.8,-1.6 -9.6,-1.6c-4.7,0 -8.7,1.3 -12.1,3.8c-3.4,2.5 -5,5.7 -5,9.5c0,3.3 1.1,5.9 3.4,7.9c2.3,2 5.2,3.4 8.8,4.1l19,4.1c13.2,2.7 23.1,7.8 29.7,15.2c6.6,7.4 9.9,16 9.9,25.8c0,5.4 -1,10.8 -3.1,16c-2.1,5.3 -5.3,10 -9.6,14.1c-4.3,4.2 -9.8,7.5 -16.3,10c-6.5,2.5 -14.1,3.8 -22.8,3.8c-10.1,0 -18.6,-1.5 -25.5,-4.3c-6.9,-2.9 -12.5,-6.4 -16.8,-10.6c-4.3,-4.2 -7.6,-8.6 -9.6,-13.4c-2.1,-4.8 -3.3,-9.1 -3.7,-12.9l30.8,-6.9zm165.1,-60.3c-4.7,0 -9.1,0.8 -13.2,2.4s-7.7,4 -10.7,7.2c-3.1,3.2 -5.5,7.1 -7.3,11.8c-1.8,4.7 -2.7,10 -2.7,16s0.9,11.3 2.7,16c1.8,4.7 4.3,8.7 7.5,11.9c3.2,3.3 6.8,5.7 10.9,7.3c4.1,1.6 8.5,2.4 13.2,2.4c4.5,0 8.6,-0.7 12.1,-2c3.5,-1.4 6.6,-3.1 9.1,-5.3c2.5,-2.2 4.6,-4.6 6.1,-7.3c1.5,-2.7 2.7,-5.3 3.4,-7.9l31.8,10.6c-1.5,5.6 -3.8,11.1 -7.2,16.4c-3.4,5.3 -7.7,10.1 -12.9,14.4c-5.3,4.3 -11.4,7.7 -18.5,10.3c-7.1,2.6 -15,3.9 -23.9,3.9c-9.8,0 -19,-1.8 -27.6,-5.3c-8.6,-3.5 -16.1,-8.5 -22.4,-14.8c-6.3,-6.3 -11.3,-13.8 -14.9,-22.4c-3.6,-8.6 -5.4,-18.1 -5.4,-28.4s1.8,-19.8 5.3,-28.5c3.5,-8.7 8.4,-16.2 14.7,-22.4c6.2,-6.2 13.6,-11.1 22,-14.7c8.4,-3.5 17.5,-5.3 27.3,-5.3c9.1,0 17.2,1.3 24.3,3.9c7.1,2.6 13.3,6 18.6,10.2c5.2,4.2 9.5,9 12.8,14.4c3.3,5.4 5.6,11 7.1,16.6l-32.3,10.9c-1.6,-5.6 -4.8,-10.8 -9.4,-15.5c-4.9,-4.5 -11.7,-6.8 -20.5,-6.8zm208.5,-29.4l26.9,0l0,32l-26.9,0l0,55.9c0,5.8 1.3,9.8 3.9,12.1c2.6,2.3 6.6,3.4 11.8,3.4c2.2,0 4.3,-0.1 6.5,-0.3c2.2,-0.2 3.7,-0.4 4.6,-0.8l0,29.9c-1.6,0.7 -4.1,1.4 -7.5,2.2c-3.4,0.7 -7.7,1.1 -12.9,1.1c-13,0 -23.4,-3.6 -31,-10.9c-7.6,-7.2 -11.4,-17.4 -11.4,-30.4l0,-62.2l-24.2,0l0,-32l6.8,0c7.1,0 12.3,-2 15.6,-6.1c3.3,-4.1 5,-9.1 5,-15.1l0,-18.7l32.6,0l0,39.9l0.2,0zm176,95.4c-1.6,5.8 -4.2,11.3 -7.7,16.4c-3.5,5.2 -7.8,9.6 -12.9,13.4c-5.1,3.8 -11,6.8 -17.8,9.1c-6.8,2.3 -14.3,3.4 -22.4,3.4c-9.2,0 -18,-1.6 -26.3,-4.8c-8.3,-3.2 -15.7,-7.8 -22,-14c-6.3,-6.2 -11.4,-13.7 -15.1,-22.5c-3.7,-8.9 -5.6,-18.9 -5.6,-30.1c0,-10.7 1.8,-20.4 5.4,-29.1c3.6,-8.7 8.5,-16.1 14.5,-22.1c6.1,-6.1 13.1,-10.8 21,-14.1c8,-3.3 16.2,-5 24.7,-5c20.8,0 37,6.2 48.6,18.5c11.6,12.3 17.4,29.2 17.4,50.8c0,2.5 -0.1,4.9 -0.3,7.2c-0.2,2.3 -0.3,3.6 -0.3,3.9l-95.6,0c0.2,4.3 1.2,8.4 3.1,12.1c1.9,3.7 4.3,6.9 7.3,9.6c3,2.7 6.5,4.8 10.5,6.4c4,1.5 8.2,2.3 12.8,2.3c8.5,0 15.2,-1.9 20,-5.7c4.8,-3.8 8.3,-8.7 10.5,-14.7l30.2,9zm-33.7,-43.8c-0.2,-3.3 -0.9,-6.5 -2,-9.6c-1.2,-3.2 -3,-6 -5.4,-8.4c-2.4,-2.4 -5.5,-4.4 -9.2,-6c-3.7,-1.5 -8.1,-2.3 -13.2,-2.3c-4.7,0 -8.9,0.8 -12.5,2.4c-3.6,1.6 -6.7,3.7 -9.2,6.2c-2.5,2.5 -4.5,5.3 -5.8,8.4c-1.4,3.1 -2.1,6.2 -2.3,9.2l59.6,0l0,0.1zm-261.5,82l0,-133.6l36.1,0l0,133.6l-36.1,0zm2.2,-161.8c4.3,4.3 9.6,6.5 15.8,6.5c6.3,0 11.6,-2.2 15.9,-6.5c4.3,-4.3 6.4,-9.5 6.4,-15.5c0,-6.3 -2.1,-11.7 -6.4,-16c-4.3,-4.3 -9.6,-6.5 -15.9,-6.5c-6.2,0 -11.4,2.2 -15.8,6.5c-4.3,4.3 -6.5,9.7 -6.5,16c0,6 2.1,11.1 6.5,15.5z" fill="black" id="XMLID_15_"/>
 </g>
</svg>
