<?xml version="1.0" encoding="utf-8"?>
<!-- Generator: Adobe Illustrator 21.0.2, SVG Export Plug-In . SVG Version: 6.00 Build 0)  -->
<svg version="1.1" id="Layer_1" xmlns="http://www.w3.org/2000/svg" xmlns:xlink="http://www.w3.org/1999/xlink" x="0px" y="0px"
	 viewBox="0 0 257 40" enable-background="new 0 0 257 40" xml:space="preserve">
<rect id="XMLID_1_" x="-1.5" y="-2" display="none" fill-rule="evenodd" clip-rule="evenodd" fill="#0A4796" width="261.167" height="43.667"/>
<g>
	<path fill="#FFFFFF" d="M89.74,19.998"/>
	<path fill="#FFFFFF" d="M15.682,33.398H9.541L0.5,6.806h7.515l3.356,10.95c0.497,1.641,0.841,2.631,1.259,4.998h0.038
		c0.421-2.138,0.916-3.816,1.412-5.188l3.777-10.76h7.209L15.682,33.398z"/>
	<path fill="#FFFFFF" d="M85.692,25.65c0,1.222,0.419,3.591,3.167,3.591c1.717,0,3.47-0.652,5.188-1.988l2.556,3.816
		c-2.635,2.022-5.073,2.826-8.011,2.826c-6.295,0-9.766-3.855-9.766-10.227c0-6.486,3.395-10.452,8.964-10.452
		c6.335,0,8.891,4.04,8.891,10.797v1.637H85.692z M88.017,17.831c-1.41,0-2.326,0.877-2.326,3.51h4.424
		C90.193,19.168,89.62,17.831,88.017,17.831z"/>
	<path fill="#FFFFFF" d="M48.635,33.93c-3.699,0-6.18-0.953-6.18-4.768V18.06h-1.601v-4.346h1.601c0-1.947,0.038-3.59,0.229-4.885
		l6.599-0.992c-0.226,2.099-0.189,4.046-0.189,5.877h3.623L51.84,18.06h-2.747v7.935c0,2.746,0.382,3.357,2.062,3.357
		c0.607,0,1.258-0.151,1.679-0.381l0.8,3.814C51.953,33.586,50.277,33.93,48.635,33.93z"/>
	<path fill="#FFFFFF" d="M70.938,33.51l-2.744-7.328c-1.015-2.706-1.616-3.045-3.081-3.045V33.51h-6.727V7.316h9.019
		c7.706,0,10.186,3.116,10.186,7.478c0,4.508-2.369,6.801-5.451,7.327c0.905,0.263,1.994,1.469,2.633,2.818
		c0.865,1.766,3.081,6.617,3.946,8.57H70.938z M66.991,12.84h-1.879v5.335h1.916c2.292,0,3.083-1.089,3.083-2.856
		C70.111,13.442,69.096,12.84,66.991,12.84z"/>
	<path fill="#FFFFFF" d="M28.967,25.88c0,1.204,0.413,3.534,3.119,3.534c1.692,0,3.42-0.638,5.109-1.953l2.52,3.758
		C37.121,33.211,34.717,34,31.823,34c-6.2,0-9.622-3.796-9.622-10.074c0-6.388,3.347-10.297,8.83-10.297
		c6.242,0,8.759,3.983,8.759,10.635v1.616H28.967z M31.258,18.176c-1.391,0-2.29,0.866-2.29,3.458h4.358
		C33.401,19.494,32.837,18.176,31.258,18.176z"/>
	<path fill="#FFFFFF" d="M107.664,34c-5.412,0-8.797-3.421-8.797-9.999c0-6.5,3.46-10.372,9.285-10.372
		c2.403,0,4.059,0.715,5.977,2.293l-3.008,3.947c-0.753-0.791-1.842-1.428-2.743-1.428c-1.541,0-2.369,0.825-2.369,5.15
		c0,3.945,0.414,5.559,2.293,5.559c1.467,0,2.67-0.716,3.569-1.729l2.745,3.832C112.55,33.321,110.03,34,107.664,34z"/>
	<path fill="#FFFFFF" d="M123.785,34c-5.56,0-8.982-3.685-8.982-10.11c0-6.053,3.684-10.26,9.361-10.26
		c4.773,0,8.868,2.743,8.868,9.697C133.032,30.992,128.409,34,123.785,34z M123.899,18.176c-1.352,0-2.031,1.016-2.031,5.825
		c0,3.76,0.229,5.413,2.067,5.413c1.544,0,2.029-1.653,2.029-6.277C125.964,19.266,125.44,18.176,123.899,18.176z"/>
	<path fill="#FFFFFF" d="M145.845,19.378c-0.676-0.372-1.164-0.524-1.913-0.524c-1.13,0-1.844,0.601-2.295,1.388V33.51H135.1V21.708
		c0-2.479-0.076-4.92-0.603-7.026l6.011-1.016c0.189,0.679,0.416,1.503,0.416,2.293c0.789-1.051,1.914-2.404,3.982-2.404
		c0.938,0,1.542,0.187,2.444,0.564L145.845,19.378z"/>
	<path fill="#FFFFFF" d="M159.263,33.51c-0.189-0.451-0.261-0.825-0.301-1.162c-0.904,1.048-2.253,1.653-4.21,1.653
		c-4.96,0-7.78-3.646-7.78-9.81c0-5.675,2.595-10.561,8.343-10.561c0.941,0,2.071,0.34,2.594,0.676
		c-0.111-0.563-0.224-2.104-0.224-3.083V6l6.538,0.864v18.94c0,4.925,0.153,6.204,0.714,7.706H159.263z M157.684,19.416
		c-0.188-0.411-0.79-0.751-1.388-0.751c-1.695,0-2.22,1.24-2.22,5.638c0,2.78,0.301,4.771,2.179,4.771
		c0.678,0,1.203-0.299,1.429-0.641V19.416z"/>
</g>
</svg>
