<?xml version="1.0" encoding="utf-8"?>
<!-- Generator: Adobe Illustrator 21.0.2, SVG Export Plug-In . SVG Version: 6.00 Build 0)  -->
<svg version="1.1" id="Layer_1" xmlns="http://www.w3.org/2000/svg" xmlns:xlink="http://www.w3.org/1999/xlink" x="0px" y="0px"
	 viewBox="0 0 257 40" enable-background="new 0 0 257 40" xml:space="preserve">
<g>
	<path fill="#FFFFFF" d="M16.49,2.464"/>
	<path fill="#FFFFFF" d="M62.473,10.381"/>
	<path fill="#FFFFFF" d="M11.216,19.838H6.881L0.5,1.069h5.304l2.369,7.729c0.351,1.159,0.594,1.856,0.888,3.528h0.027
		c0.297-1.509,0.647-2.694,0.997-3.663l2.666-7.594h5.088L11.216,19.838z"/>
	<path fill="#FFFFFF" d="M60.631,14.369c0,0.863,0.296,2.534,2.235,2.534c1.212,0,2.449-0.459,3.662-1.402l1.804,2.694
		c-1.86,1.427-3.581,1.994-5.654,1.994c-4.443,0-6.893-2.72-6.893-7.218c0-4.577,2.397-7.377,6.327-7.377
		c4.471,0,6.275,2.851,6.275,7.621v1.155H60.631z M62.272,8.851c-0.996,0-1.642,0.618-1.642,2.476h3.122
		C63.807,9.794,63.404,8.851,62.272,8.851z"/>
	<path fill="#FFFFFF" d="M34.475,20.213c-2.612,0-4.362-0.673-4.362-3.365V9.012h-1.13V5.944h1.13c0-1.374,0.027-2.533,0.162-3.447
		l4.657-0.701c-0.159,1.481-0.133,2.855-0.133,4.147h2.557l-0.619,3.067h-1.939v5.601c0,1.938,0.269,2.369,1.455,2.369
		c0.428,0,0.887-0.107,1.185-0.269l0.564,2.692C36.817,19.97,35.634,20.213,34.475,20.213z"/>
	<path fill="#FFFFFF" d="M50.217,19.917l-1.937-5.172c-0.716-1.91-1.141-2.149-2.175-2.149v7.321h-4.748V1.43h6.365
		c5.439,0,7.19,2.199,7.19,5.277c0,3.182-1.673,4.801-3.848,5.172c0.639,0.186,1.408,1.037,1.859,1.99
		c0.61,1.246,2.174,4.67,2.785,6.049H50.217z M47.43,5.328h-1.326v3.767h1.353c1.618,0,2.176-0.77,2.176-2.016
		C49.633,5.752,48.917,5.328,47.43,5.328z"/>
	<path fill="#FFFFFF" d="M20.593,14.532c0,0.85,0.291,2.495,2.201,2.495c1.194,0,2.414-0.451,3.606-1.38l1.778,2.653
		c-1.831,1.406-3.528,1.963-5.571,1.963c-4.376,0-6.791-2.68-6.791-7.111c0-4.509,2.363-7.268,6.233-7.268
		c4.406,0,6.182,2.811,6.182,7.507v1.14H20.593z M22.21,9.094c-0.982,0-1.617,0.61-1.617,2.439h3.076
		C23.723,10.024,23.324,9.094,22.21,9.094z"/>
	<path fill="#FFFFFF" d="M76.138,20.263c-3.82,0-6.209-2.416-6.209-7.058c0-4.588,2.442-7.321,6.554-7.321
		c1.696,0,2.865,0.504,4.218,1.618l-2.123,2.787c-0.531-0.559-1.3-1.008-1.936-1.008c-1.088,0-1.672,0.583-1.672,3.635
		c0,2.785,0.292,3.924,1.618,3.924c1.035,0,1.884-0.505,2.519-1.221l1.938,2.705C79.588,19.784,77.81,20.263,76.138,20.263z"/>
	<path fill="#FFFFFF" d="M87.518,20.263c-3.925,0-6.34-2.601-6.34-7.136c0-4.273,2.6-7.242,6.607-7.242
		c3.368,0,6.259,1.936,6.259,6.844C94.044,18.14,90.781,20.263,87.518,20.263z M87.597,9.094c-0.954,0-1.433,0.716-1.433,4.111
		c0,2.654,0.161,3.822,1.459,3.822c1.09,0,1.432-1.167,1.432-4.431C89.055,9.864,88.685,9.094,87.597,9.094z"/>
	<path fill="#FFFFFF" d="M103.088,9.943c-0.477-0.263-0.822-0.37-1.351-0.37c-0.797,0-1.301,0.424-1.619,0.981v9.363h-4.615v-8.329
		c0-1.751-0.053-3.474-0.425-4.959l4.244-0.718c0.133,0.478,0.293,1.06,0.293,1.619c0.557-0.742,1.351-1.696,2.811-1.696
		c0.662,0,1.088,0.131,1.725,0.396L103.088,9.943z"/>
	<path fill="#FFFFFF" d="M112.558,19.917c-0.133-0.318-0.184-0.581-0.212-0.82c-0.638,0.739-1.59,1.166-2.971,1.166
		c-3.501,0-5.491-2.574-5.491-6.924c0-4.007,1.831-7.455,5.889-7.455c0.664,0,1.462,0.24,1.831,0.477
		c-0.079-0.398-0.159-1.486-0.159-2.176V0.5l4.615,0.61v13.368c0,3.475,0.108,4.379,0.504,5.438H112.558z M111.444,9.969
		c-0.133-0.289-0.558-0.529-0.98-0.529c-1.195,0-1.567,0.876-1.567,3.98c0,1.962,0.212,3.367,1.538,3.367
		c0.478,0,0.849-0.211,1.008-0.451V9.969z"/>
	<g>
		<path fill="#FFFFFF" d="M82.1,30.519c0-4.037,1.659-6.259,4.447-6.259c2.686,0,4.413,2.377,4.413,6.191
			c0,4.003-1.59,6.124-4.413,6.124C83.828,36.574,82.1,34.299,82.1,30.519z M89.935,30.554c0-3.746-1.165-5.49-3.404-5.49
			c-2.276,0-3.404,1.659-3.404,5.37c0,3.625,1.128,5.338,3.42,5.338C88.857,35.772,89.935,34.299,89.935,30.554z"/>
		<path fill="#FFFFFF" d="M93.301,27.594l0.718-0.152c0.103,0.255,0.188,0.614,0.188,1.3c0.667-0.804,1.574-1.352,2.566-1.352
			c1.933,0,3.13,1.556,3.13,4.566c0,3.37-1.642,4.603-3.267,4.603c-0.873,0-1.813-0.41-2.412-1.078v3.899L93.301,39.5V27.594z
			 M98.911,32.059c0-2.686-0.633-3.866-2.257-3.866c-0.941,0-1.762,0.428-2.429,1.284v5.166c0.616,0.787,1.437,1.181,2.257,1.181
			C98.057,35.823,98.911,34.761,98.911,32.059z"/>
		<path fill="#FFFFFF" d="M101.748,31.973c0-2.704,1.283-4.584,3.422-4.584c1.916,0,3.164,1.249,3.164,4.395v0.325h-5.61
			c0.068,2.703,0.991,3.713,2.753,3.713c0.958,0,1.591-0.445,2.172-0.89l0.461,0.58c-0.735,0.634-1.625,1.045-2.736,1.045
			C102.998,36.558,101.748,34.693,101.748,31.973z M107.325,31.374c-0.017-2.496-0.787-3.249-2.19-3.249
			c-1.3,0-2.309,1.009-2.395,3.249H107.325z"/>
		<path fill="#FFFFFF" d="M110.692,27.594l0.718-0.152c0.103,0.255,0.189,0.614,0.189,1.334c0.855-0.908,1.796-1.386,2.788-1.386
			c1.351,0,2.241,0.854,2.241,2.378v6.601h-0.924v-6.277c0-1.387-0.461-1.882-1.523-1.882c-0.786,0-1.864,0.462-2.566,1.266v6.893
			h-0.924V27.594z"/>
	</g>
</g>
</svg>
