<?xml version="1.0" encoding="utf-8"?>
<!-- Generator: Adobe Illustrator 21.0.2, SVG Export Plug-In . SVG Version: 6.00 Build 0)  -->
<svg version="1.1" id="Layer_1" xmlns="http://www.w3.org/2000/svg" xmlns:xlink="http://www.w3.org/1999/xlink" x="0px" y="0px"
	 viewBox="0 0 257 40" enable-background="new 0 0 257 40" xml:space="preserve">
<g>
	<path fill="#FFFFFF" d="M0.5,38.436V3.181h9.257v35.255H0.5z"/>
	<path fill="#FFFFFF" d="M29.075,38.436v-16.69c0-2.833-0.91-2.833-2.173-2.833c-0.659,0-1.67,0.453-2.881,1.517v18.006h-8.804
		V21.849c0-3.14-0.152-5.973-0.808-8.753l8.091-1.365c0.205,0.605,0.456,1.619,0.505,2.427c1.721-1.265,4.099-2.478,7.537-2.478
		c6.123,0,7.338,3.593,7.338,7.184v19.572H29.075z"/>
	<path fill="#FFFFFF" d="M58.484,25.893H55.65v12.544h-9.054V3.181h11.481c8.954,0,14.216,2.936,14.216,10.977
		C72.292,19.367,70.015,25.893,58.484,25.893z M58.786,10.615H55.65v8.093h2.633c2.83,0,4.147-0.756,4.147-4.602
		C62.43,11.175,60.964,10.615,58.786,10.615z"/>
	<path fill="#FFFFFF" d="M89.688,19.42c-0.912-0.506-1.572-0.711-2.581-0.711c-1.517,0-2.478,0.81-3.085,1.873v17.854h-8.8V22.554
		c0-3.337-0.103-6.626-0.81-9.459l8.091-1.365c0.256,0.91,0.56,2.023,0.56,3.087c1.06-1.419,2.579-3.238,5.361-3.238
		c1.265,0,2.072,0.254,3.29,0.756L89.688,19.42z"/>
	<path fill="#FFFFFF" d="M110.573,39.5c-1.264-0.404-2.836-1.771-3.241-2.581c-1.263,1.061-3.441,2.177-6.523,2.177
		c-6.474,0-8.952-3.844-8.952-8.497c0-4.958,4.298-8.498,11.583-8.498c0.353,0,1.212,0,1.466,0.05v-1.619
		c0-1.519-0.203-2.428-2.124-2.428c-2.937,0-5.212,1.058-7.438,2.728l-3.186-5.46c3.237-1.975,7.437-3.694,11.731-3.694
		c4.96,0,8.451,1.67,9.41,4.755c0.357,1.165,0.403,2.123,0.403,4.044l-0.097,9.005c0,2.176,0.201,3.943,2.021,5.109L110.573,39.5z
		 M104.908,27.615c-3.692-0.105-4.5,1.363-4.5,2.879c0,1.519,0.909,2.53,2.425,2.53c0.761,0,1.771-0.455,2.075-0.858V27.615z"/>
	<path fill="#FFFFFF" d="M129.435,39.096c-7.285,0-11.837-4.606-11.837-13.455c0-8.749,4.651-13.961,12.496-13.961
		c3.235,0,5.462,0.961,8.04,3.084l-4.048,5.313c-1.007-1.063-2.478-1.925-3.692-1.925c-2.075,0-3.187,1.115-3.187,6.933
		c0,5.311,0.557,7.484,3.088,7.484c1.97,0,3.59-0.96,4.805-2.324l3.692,5.157C136.009,38.186,132.62,39.096,129.435,39.096z"/>
	<path fill="#FFFFFF" d="M150.42,39.145c-4.908,0-8.194-1.26-8.194-6.322V18.105h-2.123v-5.77h2.123
		c0-2.579,0.051-4.752,0.304-6.473l8.75-1.316c-0.301,2.786-0.252,5.362-0.252,7.79h4.805l-1.165,5.77h-3.64v10.52
		c0,3.643,0.503,4.45,2.732,4.45c0.809,0,1.669-0.202,2.222-0.506l1.065,5.057C154.819,38.692,152.594,39.145,150.42,39.145z"/>
	<path fill="#FFFFFF" d="M164.331,10.415c-2.736,0-5.011-2.226-5.011-4.955c0-2.733,2.329-4.96,5.16-4.96
		c2.781,0,4.955,2.228,4.955,4.96C169.434,8.189,167.162,10.415,164.331,10.415z"/>
	<polygon fill="#FFFFFF" points="159.977,38.436 159.977,12.741 168.78,11.932 168.78,38.436 	"/>
	<path fill="#FFFFFF" d="M184.558,39.096c-7.283,0-11.838-4.606-11.838-13.455c0-8.749,4.65-13.961,12.496-13.961
		c3.235,0,5.463,0.961,8.041,3.084l-4.046,5.313c-1.011-1.063-2.48-1.925-3.693-1.925c-2.075,0-3.186,1.115-3.186,6.933
		c0,5.311,0.555,7.484,3.085,7.484c1.973,0,3.592-0.96,4.807-2.324l3.692,5.157C191.132,38.186,187.742,39.096,184.558,39.096z"/>
	<path fill="#FFFFFF" d="M204.433,28.168c0,1.62,0.553,4.756,4.197,4.756c2.275,0,4.602-0.861,6.874-2.63l3.39,5.057
		c-3.489,2.684-6.727,3.746-10.622,3.746c-8.343,0-12.947-5.109-12.947-13.558c0-8.597,4.502-13.859,11.885-13.859
		c8.399,0,11.789,5.36,11.789,14.312v2.176H204.433z M207.515,17.802c-1.868,0-3.082,1.161-3.082,4.652h5.865
		C210.398,19.569,209.641,17.802,207.515,17.802z"/>
</g>
</svg>
