<?xml version="1.0" encoding="utf-8"?>
<!-- Generator: Adobe Illustrator 21.0.2, SVG Export Plug-In . SVG Version: 6.00 Build 0)  -->
<svg version="1.1" id="Layer_1" xmlns="http://www.w3.org/2000/svg" xmlns:xlink="http://www.w3.org/1999/xlink" x="0px" y="0px"
	 viewBox="0 0 257 40" enable-background="new 0 0 257 40" xml:space="preserve">
<g>
	<path fill="#FFFFFF" d="M62.339,32.114"/>
	<path fill="#FFFFFF" d="M11.02,19.485H6.765L0.5,1.058h5.208l2.325,7.588c0.344,1.138,0.583,1.823,0.872,3.464h0.026
		c0.292-1.482,0.635-2.645,0.979-3.596l2.617-7.455h4.996L11.02,19.485z"/>
	<path fill="#FFFFFF" d="M59.534,14.116c0,0.847,0.291,2.488,2.194,2.488c1.19,0,2.404-0.451,3.595-1.377l1.771,2.645
		c-1.826,1.401-3.515,1.958-5.551,1.958c-4.363,0-6.768-2.671-6.768-7.087c0-4.494,2.353-7.242,6.212-7.242
		c4.389,0,6.16,2.799,6.16,7.482v1.134H59.534z M61.146,8.699c-0.977,0-1.612,0.607-1.612,2.431H62.6
		C62.654,9.624,62.256,8.699,61.146,8.699z"/>
	<path fill="#FFFFFF" d="M33.855,19.854c-2.564,0-4.283-0.661-4.283-3.304V8.856h-1.11V5.845h1.11c0-1.349,0.026-2.487,0.158-3.384
		l4.573-0.688c-0.157,1.454-0.132,2.803-0.132,4.072h2.511l-0.607,3.011h-1.904v5.5c0,1.902,0.265,2.325,1.429,2.325
		c0.42,0,0.871-0.104,1.163-0.263l0.554,2.643C36.155,19.615,34.994,19.854,33.855,19.854z"/>
	<path fill="#FFFFFF" d="M49.31,19.563l-1.902-5.079c-0.703-1.875-1.119-2.11-2.135-2.11v7.188h-4.662V1.412h6.249
		c5.34,0,7.059,2.159,7.059,5.181c0,3.125-1.642,4.714-3.778,5.078c0.628,0.183,1.382,1.018,1.825,1.953
		c0.599,1.224,2.135,4.585,2.734,5.939H49.31z M46.575,5.24h-1.301v3.698h1.327c1.589,0,2.136-0.756,2.136-1.981
		C48.737,5.656,48.034,5.24,46.575,5.24z"/>
	<path fill="#FFFFFF" d="M20.227,14.275c0,0.835,0.286,2.449,2.161,2.449c1.172,0,2.369-0.442,3.541-1.354l1.746,2.605
		c-1.797,1.38-3.463,1.927-5.469,1.927c-4.296,0-6.668-2.631-6.668-6.981c0-4.426,2.32-7.136,6.119-7.136
		c4.326,0,6.07,2.759,6.07,7.37v1.119H20.227z M21.814,8.938c-0.963,0-1.587,0.599-1.587,2.394h3.02
		C23.299,9.85,22.908,8.938,21.814,8.938z"/>
	<path fill="#FFFFFF" d="M74.76,19.902c-3.751,0-6.096-2.371-6.096-6.929c0-4.505,2.398-7.187,6.434-7.187
		c1.665,0,2.813,0.495,4.141,1.588l-2.084,2.736c-0.522-0.548-1.276-0.99-1.901-0.99c-1.068,0-1.642,0.572-1.642,3.568
		c0,2.735,0.287,3.853,1.589,3.853c1.016,0,1.85-0.496,2.473-1.198l1.902,2.656C78.146,19.432,76.4,19.902,74.76,19.902z"/>
	<path fill="#FFFFFF" d="M85.932,19.902c-3.853,0-6.224-2.553-6.224-7.005c0-4.196,2.552-7.111,6.487-7.111
		c3.307,0,6.146,1.901,6.146,6.719C92.34,17.818,89.135,19.902,85.932,19.902z M86.01,8.938c-0.937,0-1.408,0.702-1.408,4.036
		c0,2.605,0.159,3.751,1.433,3.751c1.07,0,1.405-1.146,1.405-4.35C87.441,9.693,87.078,8.938,86.01,8.938z"/>
	<path fill="#FFFFFF" d="M101.218,9.77c-0.468-0.259-0.807-0.364-1.326-0.364c-0.783,0-1.277,0.417-1.589,0.963v9.194h-4.531v-8.178
		c0-1.719-0.052-3.41-0.417-4.869l4.166-0.704c0.131,0.47,0.288,1.04,0.288,1.589c0.547-0.728,1.327-1.665,2.76-1.665
		c0.65,0,1.068,0.128,1.693,0.389L101.218,9.77z"/>
	<path fill="#FFFFFF" d="M110.516,19.563c-0.131-0.313-0.181-0.572-0.208-0.805c-0.627,0.726-1.561,1.144-2.917,1.144
		c-3.438,0-5.391-2.527-5.391-6.798c0-3.934,1.797-7.318,5.781-7.318c0.652,0,1.435,0.236,1.798,0.469
		c-0.077-0.391-0.156-1.459-0.156-2.136V0.5l4.531,0.599v13.124c0,3.412,0.106,4.299,0.495,5.34H110.516z M109.422,9.795
		c-0.13-0.284-0.547-0.519-0.962-0.519c-1.174,0-1.538,0.86-1.538,3.907c0,1.927,0.208,3.306,1.51,3.306
		c0.47,0,0.833-0.207,0.99-0.443V9.795z"/>
	<g>
		<path fill="#FFFFFF" d="M29.622,30.514c0-3.778,1.529-5.978,4.535-5.978c1.394,0,2.452,0.471,3.107,1.16L36.742,26.4
			c-0.755-0.704-1.528-1.074-2.586-1.074c-2.452,0-3.527,1.545-3.527,5.104c0,3.846,1.042,5.391,3.527,5.391
			c1.243,0,1.831-0.368,2.586-0.99l0.521,0.706c-0.655,0.603-1.696,1.074-3.158,1.074C31.184,36.611,29.622,34.378,29.622,30.514z"
			/>
		<path fill="#FFFFFF" d="M43.944,35.385c-0.554,0.706-1.344,1.226-2.384,1.226c-1.646,0-2.554-0.939-2.554-2.385
			c0-1.846,1.445-2.753,4.149-2.753c0.336,0,0.671,0.016,0.756,0.033v-1.261c0-1.226-0.437-1.763-1.629-1.763
			c-1.007,0-1.948,0.42-2.57,0.975l-0.437-0.605c0.858-0.706,1.881-1.109,3.124-1.109c1.746,0,2.402,1.008,2.402,2.671v3.476
			c0,1.393,0,1.747,0.638,2.132l-0.42,0.605C44.482,36.444,44.096,35.973,43.944,35.385z M43.877,34.697v-2.552
			c-0.217-0.017-0.52-0.033-0.772-0.033c-2.234,0-3.141,0.57-3.141,2.081c0,1.142,0.504,1.747,1.664,1.747
			C42.684,35.94,43.373,35.385,43.877,34.697z"/>
		<path fill="#FFFFFF" d="M46.931,35.705l0.403-0.706c0.756,0.59,1.579,0.908,2.519,0.908c1.193,0,1.999-0.807,1.999-1.899
			c0-0.84-0.42-1.377-1.78-1.613l-0.471-0.084c-1.376-0.25-2.301-0.822-2.301-2.317c0-1.445,1.041-2.385,2.772-2.385
			c0.874,0,1.713,0.251,2.351,0.74l-0.403,0.689c-0.538-0.453-1.26-0.724-1.999-0.724c-1.192,0-1.847,0.656-1.847,1.663
			c0,0.942,0.419,1.311,1.595,1.53l0.47,0.083c1.444,0.251,2.486,0.891,2.486,2.4c0,1.529-1.176,2.621-2.94,2.621
			C48.729,36.611,47.687,36.31,46.931,35.705z"/>
		<path fill="#FFFFFF" d="M54.571,32.112c0-2.654,1.259-4.502,3.359-4.502c1.881,0,3.106,1.226,3.106,4.317v0.319h-5.508
			c0.067,2.654,0.974,3.644,2.704,3.644c0.941,0,1.562-0.436,2.133-0.873l0.453,0.572c-0.723,0.621-1.596,1.023-2.687,1.023
			C55.796,36.611,54.571,34.781,54.571,32.112z M60.046,31.522c-0.018-2.451-0.773-3.19-2.15-3.19c-1.277,0-2.268,0.99-2.352,3.19
			H60.046z"/>
		<path fill="#FFFFFF" d="M63.536,24.721h2.94c2.418,0,3.712,1.076,3.712,3.089c0,1.815-1.21,2.99-3.158,3.074
			c0.638,0.236,1.041,0.908,1.443,1.579l2.368,3.963h-1.058l-2.217-3.795c-0.772-1.309-1.024-1.628-2.318-1.628h-0.772v5.424h-0.941
			V24.721z M66.274,30.263c2.099,0,2.888-0.671,2.888-2.453c0-1.544-0.856-2.283-2.654-2.283h-2.015v4.737H66.274z"/>
		<path fill="#FFFFFF" d="M72.015,32.112c0-2.654,1.259-4.502,3.359-4.502c1.88,0,3.107,1.226,3.107,4.317v0.319h-5.508
			c0.067,2.654,0.974,3.644,2.703,3.644c0.941,0,1.562-0.436,2.133-0.873l0.453,0.572c-0.722,0.621-1.596,1.023-2.687,1.023
			C73.241,36.611,72.015,34.781,72.015,32.112z M77.49,31.522c-0.017-2.451-0.772-3.19-2.15-3.19c-1.276,0-2.268,0.99-2.351,3.19
			H77.49z"/>
		<path fill="#FFFFFF" d="M80.796,27.81l0.705-0.149c0.101,0.251,0.185,0.605,0.185,1.276c0.654-0.79,1.545-1.327,2.519-1.327
			c1.898,0,3.073,1.528,3.073,4.484c0,3.309-1.612,4.517-3.207,4.517c-0.857,0-1.78-0.403-2.368-1.058v3.83L80.796,39.5V27.81z
			 M86.304,32.195c0-2.638-0.622-3.795-2.217-3.795c-0.924,0-1.729,0.418-2.385,1.259v5.072c0.605,0.772,1.411,1.159,2.217,1.159
			C85.465,35.889,86.304,34.849,86.304,32.195z"/>
		<path fill="#FFFFFF" d="M89.089,32.044c0-2.654,1.21-4.434,3.494-4.434c2.351,0,3.459,1.897,3.459,4.568
			c0,2.636-1.209,4.434-3.493,4.434C90.198,36.611,89.089,34.697,89.089,32.044z M95.068,32.246c0-2.704-0.806-3.914-2.503-3.914
			c-1.729,0-2.502,1.276-2.502,3.646c0,2.686,0.806,3.912,2.502,3.912C94.295,35.889,95.068,34.595,95.068,32.246z"/>
		<path fill="#FFFFFF" d="M98.189,27.81l0.705-0.149c0.101,0.236,0.185,1.461,0.185,1.461c0.336-0.957,1.343-1.512,2.2-1.512
			c0.151,0,0.369,0.018,0.504,0.066l-0.118,0.891c-0.101-0.033-0.27-0.068-0.471-0.068c-1.175,0-2.099,0.858-2.099,2.218v5.709
			h-0.906V27.81z"/>
		<path fill="#FFFFFF" d="M104.266,34.697v-6.231h-1.109v-0.704h1.109c0-0.941,0.118-1.949,0.168-2.184l0.723-0.2v2.385h2.099
			l-0.084,0.704h-2.015v6.046c0,1.008,0.268,1.344,1.024,1.344c0.403,0,0.722-0.118,0.957-0.235l0.201,0.704
			c-0.369,0.185-0.789,0.286-1.26,0.286C104.837,36.611,104.266,36.006,104.266,34.697z"/>
		<path fill="#FFFFFF" d="M108.715,35.705l0.403-0.706c0.755,0.59,1.578,0.908,2.519,0.908c1.192,0,1.999-0.807,1.999-1.899
			c0-0.84-0.42-1.377-1.78-1.613l-0.471-0.084c-1.377-0.25-2.3-0.822-2.3-2.317c0-1.445,1.041-2.385,2.771-2.385
			c0.873,0,1.713,0.251,2.351,0.74l-0.404,0.689c-0.537-0.453-1.26-0.724-1.998-0.724c-1.193,0-1.848,0.656-1.848,1.663
			c0,0.942,0.421,1.311,1.597,1.53l0.47,0.083c1.444,0.251,2.485,0.891,2.485,2.4c0,1.529-1.175,2.621-2.938,2.621
			C110.512,36.611,109.471,36.31,108.715,35.705z"/>
	</g>
</g>
</svg>
