<?xml version="1.0" encoding="UTF-8" standalone="no"?>
<!-- Generator: Adobe Illustrator 19.0.0, SVG Export Plug-In . SVG Version: 6.00 Build 0)  -->

<svg
   xmlns:dc="http://purl.org/dc/elements/1.1/"
   xmlns:cc="http://creativecommons.org/ns#"
   xmlns:rdf="http://www.w3.org/1999/02/22-rdf-syntax-ns#"
   xmlns:svg="http://www.w3.org/2000/svg"
   xmlns="http://www.w3.org/2000/svg"
   xmlns:sodipodi="http://sodipodi.sourceforge.net/DTD/sodipodi-0.dtd"
   xmlns:inkscape="http://www.inkscape.org/namespaces/inkscape"
   version="1.1"
   id="Layer_1"
   x="0px"
   y="0px"
   viewBox="0 0 731.1 236"
   style="enable-background:new 0 0 731.1 236;"
   xml:space="preserve"
   sodipodi:docname="beta-logo.svg"
   inkscape:version="0.92.2 2405546, 2018-03-11"><metadata
   id="metadata11"><rdf:RDF><cc:Work
       rdf:about=""><dc:format>image/svg+xml</dc:format><dc:type
         rdf:resource="http://purl.org/dc/dcmitype/StillImage" /></cc:Work></rdf:RDF></metadata><defs
   id="defs9" /><sodipodi:namedview
   pagecolor="#ffffff"
   bordercolor="#666666"
   borderopacity="1"
   objecttolerance="10"
   gridtolerance="10"
   guidetolerance="10"
   inkscape:pageopacity="0"
   inkscape:pageshadow="2"
   inkscape:window-width="1920"
   inkscape:window-height="1080"
   id="namedview7"
   showgrid="false"
   inkscape:zoom="1.2070432"
   inkscape:cx="110.92079"
   inkscape:cy="348.05969"
   inkscape:window-x="0"
   inkscape:window-y="0"
   inkscape:window-maximized="0"
   inkscape:current-layer="Layer_1" />
<style
   type="text/css"
   id="style2">
	.st0{fill:#1D73B2;}
</style>
<path
   id="XMLID_15_"
   d="M592.3,232.7v-29.6h138.8v29.6H592.3z M31,159.2c0.4,5.3,2.5,10,6.5,14.1c4,4.2,10,6.2,17.9,6.2  c6,0,10.4-1.3,13.3-3.9c2.9-2.6,4.3-5.7,4.3-9.4c0-3.1-1.1-5.7-3.3-8c-2.2-2.3-5.9-3.9-11.1-5L41,149.1c-13-2.9-22.5-7.9-28.5-15.1  c-6-7.1-9-15.4-9-24.8c0-6,1.3-11.6,3.8-17c2.5-5.3,6-10,10.5-13.8c4.4-3.9,9.7-7,15.8-9.4c6.1-2.4,12.7-3.5,20-3.5  c9.4,0,17.4,1.3,23.9,3.9c6.5,2.6,11.8,5.9,15.9,9.9c4.1,4,7.1,8.2,9.1,12.6c2,4.4,3.2,8.5,3.5,12.1l-30.1,6.8c-0.4-2-1-4-1.8-6.1  c-0.8-2.1-2.1-4-3.9-5.8c-1.8-1.8-4-3.3-6.7-4.3c-2.6-1.1-5.8-1.6-9.6-1.6c-4.7,0-8.7,1.3-12.1,3.8c-3.4,2.5-5,5.7-5,9.5  c0,3.3,1.1,5.9,3.4,7.9c2.3,2,5.2,3.4,8.8,4.1l19,4.1c13.2,2.7,23.1,7.8,29.7,15.2c6.6,7.4,9.9,16,9.9,25.8c0,5.4-1,10.8-3.1,16  c-2.1,5.3-5.3,10-9.6,14.1c-4.3,4.2-9.8,7.5-16.3,10c-6.5,2.5-14.1,3.8-22.8,3.8c-10.1,0-18.6-1.5-25.5-4.3  c-6.9-2.9-12.5-6.4-16.8-10.6c-4.3-4.2-7.6-8.6-9.6-13.4c-2.1-4.8-3.3-9.1-3.7-12.9L31,159.2z M196.1,98.9c-4.7,0-9.1,0.8-13.2,2.4  s-7.7,4-10.7,7.2c-3.1,3.2-5.5,7.1-7.3,11.8c-1.8,4.7-2.7,10-2.7,16s0.9,11.3,2.7,16c1.8,4.7,4.3,8.7,7.5,11.9  c3.2,3.3,6.8,5.7,10.9,7.3c4.1,1.6,8.5,2.4,13.2,2.4c4.5,0,8.6-0.7,12.1-2c3.5-1.4,6.6-3.1,9.1-5.3c2.5-2.2,4.6-4.6,6.1-7.3  c1.5-2.7,2.7-5.3,3.4-7.9l31.8,10.6c-1.5,5.6-3.8,11.1-7.2,16.4c-3.4,5.3-7.7,10.1-12.9,14.4c-5.3,4.3-11.4,7.7-18.5,10.3  c-7.1,2.6-15,3.9-23.9,3.9c-9.8,0-19-1.8-27.6-5.3c-8.6-3.5-16.1-8.5-22.4-14.8c-6.3-6.3-11.3-13.8-14.9-22.4  c-3.6-8.6-5.4-18.1-5.4-28.4s1.8-19.8,5.3-28.5c3.5-8.7,8.4-16.2,14.7-22.4c6.2-6.2,13.6-11.1,22-14.7c8.4-3.5,17.5-5.3,27.3-5.3  c9.1,0,17.2,1.3,24.3,3.9c7.1,2.6,13.3,6,18.6,10.2c5.2,4.2,9.5,9,12.8,14.4c3.3,5.4,5.6,11,7.1,16.6l-32.3,10.9  c-1.6-5.6-4.8-10.8-9.4-15.5C211.7,101.2,204.9,98.9,196.1,98.9z M404.6,69.5h26.9v32h-26.9v55.9c0,5.8,1.3,9.8,3.9,12.1  c2.6,2.3,6.6,3.4,11.8,3.4c2.2,0,4.3-0.1,6.5-0.3c2.2-0.2,3.7-0.4,4.6-0.8v29.9c-1.6,0.7-4.1,1.4-7.5,2.2c-3.4,0.7-7.7,1.1-12.9,1.1  c-13,0-23.4-3.6-31-10.9c-7.6-7.2-11.4-17.4-11.4-30.4v-62.2h-24.2v-32h6.8c7.1,0,12.3-2,15.6-6.1c3.3-4.1,5-9.1,5-15.1V29.6h32.6  V69.5z M580.6,164.9c-1.6,5.8-4.2,11.3-7.7,16.4c-3.5,5.2-7.8,9.6-12.9,13.4c-5.1,3.8-11,6.8-17.8,9.1c-6.8,2.3-14.3,3.4-22.4,3.4  c-9.2,0-18-1.6-26.3-4.8c-8.3-3.2-15.7-7.8-22-14c-6.3-6.2-11.4-13.7-15.1-22.5c-3.7-8.9-5.6-18.9-5.6-30.1  c0-10.7,1.8-20.4,5.4-29.1c3.6-8.7,8.5-16.1,14.5-22.1c6.1-6.1,13.1-10.8,21-14.1c8-3.3,16.2-5,24.7-5c20.8,0,37,6.2,48.6,18.5  c11.6,12.3,17.4,29.2,17.4,50.8c0,2.5-0.1,4.9-0.3,7.2c-0.2,2.3-0.3,3.6-0.3,3.9h-95.6c0.2,4.3,1.2,8.4,3.1,12.1  c1.9,3.7,4.3,6.9,7.3,9.6c3,2.7,6.5,4.8,10.5,6.4c4,1.5,8.2,2.3,12.8,2.3c8.5,0,15.2-1.9,20-5.7c4.8-3.8,8.3-8.7,10.5-14.7  L580.6,164.9z M546.9,121.1c-0.2-3.3-0.9-6.5-2-9.6c-1.2-3.2-3-6-5.4-8.4c-2.4-2.4-5.5-4.4-9.2-6c-3.7-1.5-8.1-2.3-13.2-2.3  c-4.7,0-8.9,0.8-12.5,2.4c-3.6,1.6-6.7,3.7-9.2,6.2c-2.5,2.5-4.5,5.3-5.8,8.4c-1.4,3.1-2.1,6.2-2.3,9.2H546.9z M285.4,203.1V69.5  h36.1v133.6H285.4z M287.6,41.3c4.3,4.3,9.6,6.5,15.8,6.5c6.3,0,11.6-2.2,15.9-6.5c4.3-4.3,6.4-9.5,6.4-15.5c0-6.3-2.1-11.7-6.4-16  c-4.3-4.3-9.6-6.5-15.9-6.5c-6.2,0-11.4,2.2-15.8,6.5c-4.3,4.3-6.5,9.7-6.5,16C281.1,31.8,283.2,36.9,287.6,41.3z" />
<path
   id="XMLID_1_"
   class="st0"
   d="M 6.5,44.282799 V -0.7 h 6.895174 v 15.267884 c 2.790903,-1.970049 5.417636,-2.955074 7.880198,-2.955074 4.596782,0 8.044369,1.313366 10.014419,4.10427 1.970049,2.790903 3.119245,6.895173 3.119245,12.641151 0,5.745978 -1.313367,9.850248 -3.775929,12.476981 -2.462562,2.626733 -5.910148,3.940099 -10.014418,3.940099 -1.97005,0 -4.268441,-0.656683 -7.223515,-2.13422 l -0.164171,1.313366 H 6.5 Z M 20.454518,18.179642 c -2.134221,0 -4.432612,0.985025 -6.895174,2.955074 V 36.23843 c 2.626733,1.313366 5.089295,1.970049 7.223515,1.970049 2.134221,0 3.775929,-0.820854 4.760954,-2.462562 0.985024,-1.641708 1.477537,-4.10427 1.477537,-7.551856 0,-6.566832 -2.298391,-10.014419 -6.566832,-10.014419 z m 26.924011,-2.298391 c 2.462562,-2.790904 5.745978,-4.268441 10.014419,-4.268441 4.26844,0 7.716027,1.313366 10.014418,3.775928 2.298391,2.462562 3.611758,6.238491 3.611758,11.163615 l -0.328342,4.925123 H 50.990286 c 0.328342,4.925124 2.790904,7.223516 7.223516,7.223516 3.119245,0 6.402661,-0.492513 9.850247,-1.641708 l 1.641708,6.074319 c -1.477537,0.492513 -3.283416,0.985025 -5.581807,1.313367 -2.298391,0.328341 -4.10427,0.492512 -5.581807,0.492512 -9.850248,0 -14.775372,-5.581807 -14.775372,-16.745421 -0.164171,-5.417637 1.149196,-9.521907 3.611758,-12.31281 z m 10.34276,2.13422 c -2.13422,0 -3.611757,0.656683 -4.760953,1.805879 -0.985025,1.313366 -1.641708,3.283416 -1.805879,6.23849 h 12.476981 c 0,-5.417636 -1.97005,-8.044369 -5.910149,-8.044369 z m 24.297278,0.492512 v -6.23849 h 5.417637 V 4.5534655 l 6.895173,-0.6566831 v 8.3727106 h 12.641153 v 6.23849 H 94.331377 v 13.462006 c 0,2.462562 0.164171,4.268441 0.820854,5.253465 0.492513,0.985025 1.477539,1.477538 2.955079,1.477538 2.62673,0 5.74597,-0.492513 9.35773,-1.313367 l 1.1492,5.910149 c -3.9401,0.985025 -7.38769,1.477537 -10.50693,1.477537 -4.268445,0 -7.22352,-0.985025 -8.536886,-2.955074 -1.477537,-1.97005 -2.13422,-5.253466 -2.13422,-10.014419 V 18.507983 Z m 47.281193,26.431499 c -7.22352,0 -10.83528,-3.447587 -10.83528,-10.17859 0,-3.611757 1.1492,-6.23849 3.44759,-7.716027 2.29839,-1.477537 5.58181,-2.13422 9.52191,-2.13422 1.97005,0 4.10427,0.16417 6.56683,0.328341 0,-2.626733 -0.32834,-4.596782 -1.1492,-5.581807 -0.82085,-0.985025 -2.13422,-1.477537 -3.9401,-1.477537 -1.80587,0 -4.10427,0.164171 -6.56683,0.656683 -2.46256,0.492512 -4.43261,0.820854 -5.74598,1.313366 l -1.31336,-6.402661 c 4.76095,-1.477537 9.35773,-2.13422 13.79035,-2.13422 4.43261,0 7.55185,0.985025 9.35773,2.955074 1.80588,1.97005 2.62673,5.253466 2.62673,10.014419 v 13.626176 l 0.82086,5.910149 -6.89518,0.656683 -0.65668,-3.119245 c -3.9401,2.298391 -6.89517,3.283416 -9.02939,3.283416 z m 0.98502,-6.566832 c 1.31337,0 2.62673,-0.328342 4.10427,-0.820854 1.47754,-0.656683 2.79091,-1.313366 3.61176,-1.97005 v -4.760953 c -2.62673,-0.164171 -4.92512,-0.328341 -6.56683,-0.328341 -3.77593,0 -5.58181,1.313366 -5.58181,4.10427 0,2.626732 1.47754,3.775928 4.43261,3.775928 z"
   inkscape:connector-curvature="0"
   style="fill:#1d73b2;stroke-width:1.64170802" />
</svg>