<svg id="Layer_1" data-name="Layer 1" xmlns="http://www.w3.org/2000/svg" width="275" height="119" viewBox="0 0 275 119"><title>dom--hub-logo</title><path d="M29.59,32.667H19.05V5.216H29.42c10.744,0,12.607,7.185,12.607,13.725C42.027,25.517,40.2,32.667,29.59,32.667Zm-.508-24.4H21.931l.339.338V29.278l-.339.339h7.32c8.167,0,9.455-5.015,9.455-10.676C38.706,13.316,37.351,8.267,29.082,8.267Z" fill="#d3033d"/><path d="M52.53,32.667H49.311V5.216H52.53Z" fill="#d3033d"/><path d="M86.012,32.667H82.487l-2.914-6.608.169-.339H64.729l.169.339-2.914,6.608H58.459L70.524,5.216h3.423Zm-7.727-10-.339-.339L73.1,11.316l-.813-2.745h-.068l-.847,2.745L66.525,22.331l-.338.339Z" fill="#d3033d"/><path d="M104.647,32.667H91.77V5.216h12.572c5.694,0,8.337,3.491,8.337,7.388a5.845,5.845,0,0,1-3.084,5.558v.067a6.807,6.807,0,0,1,4.27,6.643C113.865,29.65,110.68,32.667,104.647,32.667ZM104,8.267H94.65l.339.338v8.066l-.339.339H104c3.932,0,5.355-1.966,5.355-4.406C109.358,9.69,107.528,8.267,104,8.267Zm.611,11.793H94.65l.339.338v8.88l-.339.339h10c4.2,0,5.9-1.694,5.9-4.745C110.544,21.89,108.68,20.06,104.614,20.06Z" fill="#d3033d"/><path d="M140.805,32.667H120.641V5.216h20.164V8.267H123.521l.339.338v8.473l-.339.339h15.657v3.05H123.521l.339.339v8.472l-.339.339h17.284Z" fill="#d3033d"/><path d="M168.93,8.267h-10l.17.338V32.667h-3.219V8.605l.168-.338h-10V5.216H168.93Z" fill="#d3033d"/><path d="M195.023,32.667H174.857V5.216h20.166V8.267H177.738l.34.338v8.473l-.34.339H193.4v3.05H177.738l.34.339v8.472l-.34.339h17.285Z" fill="#d3033d"/><path d="M213.082,33.006c-4.406,0-9.014-1.424-11.793-4.474l2.541-2.372a12.558,12.558,0,0,0,9.117,3.8c5.082,0,7.76-1.932,7.76-4.541,0-1.864-1.592-3.593-5.32-4.575-.61-.17-4.44-1.187-5.049-1.357C205.322,18.1,202,16.3,202,12.3c0-3.8,3.287-7.422,10.744-7.422a13.861,13.861,0,0,1,10.506,4.2l-2.441,2.338a10.135,10.135,0,0,0-8.032-3.491c-5.15,0-7.455,2-7.455,4.237,0,2.1,2.1,3.185,6.643,4.44.609.168,3.795,1.05,4.439,1.219,5.422,1.424,7.625,4.2,7.625,7.388C224.029,29.041,221.113,33.006,213.082,33.006Z" fill="#d3033d"/><path d="M30.708,73.67c-8.438,0-12.844-5.558-12.844-13.9S22.3,45.541,30.708,45.541c8.473,0,12.878,5.863,12.878,14.234C43.586,68.112,39.045,73.67,30.708,73.67Zm.034-25.078c-6.846,0-9.557,5.049-9.557,11.183,0,6.033,2.745,10.845,9.557,10.845,6.846,0,9.523-4.812,9.523-10.845C40.265,53.811,37.622,48.592,30.742,48.592Z" fill="#d3033d"/><path d="M63.578,73.331H50.7V45.88H63.272c5.694,0,8.337,3.491,8.337,7.389a5.844,5.844,0,0,1-3.084,5.557v.068a6.8,6.8,0,0,1,4.27,6.642C72.8,70.314,69.61,73.331,63.578,73.331Zm-.644-24.4H53.58l.339.339v8.065l-.339.339h9.354c3.931,0,5.354-1.966,5.354-4.405C68.288,50.354,66.458,48.931,62.934,48.931Zm.61,11.793H53.58l.339.339v8.879l-.339.339h10c4.2,0,5.9-1.694,5.9-4.745C69.475,62.554,67.61,60.724,63.544,60.724Z" fill="#d3033d"/><path d="M99.735,73.331H79.571V45.88H99.735v3.051H82.451l.339.339v8.472l-.339.339H98.108v3.05H82.451l.339.339v8.472l-.339.339H99.735Z" fill="#d3033d"/><path d="M117.8,73.67c-4.405,0-9.014-1.424-11.794-4.474l2.542-2.372a12.558,12.558,0,0,0,9.117,3.8c5.083,0,7.76-1.932,7.76-4.541,0-1.864-1.592-3.593-5.32-4.575-.61-.17-4.44-1.187-5.05-1.357-5.015-1.388-8.337-3.185-8.337-7.184,0-3.8,3.287-7.422,10.744-7.422a13.856,13.856,0,0,1,10.505,4.2l-2.44,2.338a10.132,10.132,0,0,0-8.032-3.49c-5.151,0-7.455,2-7.455,4.236,0,2.1,2.1,3.186,6.642,4.44.61.169,3.8,1.05,4.44,1.219,5.422,1.424,7.625,4.2,7.625,7.388C128.742,69.705,125.827,73.67,117.8,73.67Z" fill="#d3033d"/><path d="M139.041,73.331h-3.219V45.88h3.219Z" fill="#d3033d"/><path d="M168.016,48.931h-10l.17.339V73.331h-3.221V49.27l.17-.339h-10V45.88h22.876Z" fill="#d3033d"/><path d="M197.531,45.88,186.109,61.809V73.331h-3.254V61.809L171.4,45.88h4.067l7.117,10.065,1.863,3.153h.069l1.83-3.153L193.5,45.88Z" fill="#d3033d"/><path d="M228.188,73.331h-2.469L223.678,68.7l.119-.237H213.285l.119.237-2.041,4.627H208.9l8.448-19.219h2.4Zm-5.411-7-.238-.237-3.393-7.711-.568-1.922h-.049l-.591,1.922-3.395,7.711-.236.237Z" fill="#d3033d"/><path d="M246.451,73.331h-2.064l-9.942-13.192-1.47-2.254h-.049V73.331h-2.254V54.112h2.064L242.75,67.4l1.4,2.16h.049V54.112h2.254Z" fill="#d3033d"/><path d="M258.1,73.331h-7.379V54.112h7.26c7.521,0,8.826,5.03,8.826,9.61C266.8,68.324,265.521,73.331,258.1,73.331Zm-.356-17.084h-5.008l.239.237V70.958l-.239.237h5.125c5.719,0,6.622-3.511,6.622-7.473C264.479,59.782,263.529,56.247,257.74,56.247Z" fill="#d3033d"/><path d="M45.993,113.994h-3.22V93.8h-.068l-1.83,4.372-8.337,16.2H32.47l-8.438-16.4-1.7-4.168H22.27v20.2H19.05V86.543h2.881l9.218,18.3,1.355,3.219h.068l1.356-3.219,9.184-18.3h2.881Z" fill="#d3033d"/><path d="M72.253,113.994H52.089V86.543H72.253v3.051H54.97l.339.339v8.472l-.339.339H70.627v3.05H54.97l.339.339v8.472l-.339.339H72.253Z" fill="#d3033d"/><path d="M98.176,89.594h-10l.17.339v24.061h-3.22V89.933l.169-.339h-10V86.543H98.176Z" fill="#d3033d"/><path d="M126.912,113.994h-3.524l-2.915-6.608.17-.339H105.629l.17.339-2.915,6.608H99.36l12.065-27.451h3.423Zm-7.726-10-.339-.339L114,92.644l-.813-2.746h-.068l-.847,2.746-4.846,11.014-.339.339Z" fill="#d3033d"/><path d="M143.346,113.994H130.468V86.543h12.573c5.693,0,8.336,3.491,8.336,7.389a5.844,5.844,0,0,1-3.084,5.557v.068a6.8,6.8,0,0,1,4.271,6.642C152.564,110.978,149.378,113.994,143.346,113.994Zm-.644-24.4h-9.354l.339.339V98l-.339.339H142.7c3.931,0,5.354-1.966,5.354-4.405C148.056,91.017,146.226,89.594,142.7,89.594Zm.61,11.793h-9.964l.339.339v8.879l-.339.339h10c4.2,0,5.9-1.694,5.9-4.745C149.243,103.217,147.378,101.387,143.312,101.387Z" fill="#d3033d"/><path d="M168.793,114.333c-8.438,0-12.844-5.558-12.844-13.895S160.389,86.2,168.793,86.2c8.473,0,12.879,5.863,12.879,14.234C181.672,108.775,177.131,114.333,168.793,114.333Zm.035-25.078c-6.846,0-9.557,5.049-9.557,11.183,0,6.033,2.745,10.845,9.557,10.845,6.846,0,9.522-4.812,9.522-10.845C178.35,94.474,175.707,89.255,168.828,89.255Z" fill="#d3033d"/><path d="M205.154,113.994H186.582V86.543H189.8v24.028l-.34.373h15.691Z" fill="#d3033d"/><path d="M212.1,113.994h-3.219V86.543H212.1Z" fill="#d3033d"/><path d="M228.807,114.333c-4.407,0-9.016-1.423-11.795-4.474l2.543-2.372a12.554,12.554,0,0,0,9.115,3.8c5.084,0,7.762-1.931,7.762-4.541,0-1.864-1.594-3.593-5.321-4.575-.611-.17-4.439-1.187-5.05-1.356-5.016-1.389-8.336-3.186-8.336-7.185,0-3.8,3.287-7.422,10.742-7.422a13.855,13.855,0,0,1,10.506,4.2l-2.44,2.338a10.131,10.131,0,0,0-8.031-3.49c-5.152,0-7.457,2-7.457,4.236,0,2.1,2.1,3.186,6.643,4.44.609.169,3.794,1.05,4.439,1.219,5.422,1.424,7.625,4.2,7.625,7.388C239.752,110.368,236.838,114.333,228.807,114.333Z" fill="#d3033d"/><path d="M271.436,113.994h-3.219V93.8h-.069l-1.83,4.372-8.336,16.2h-.068l-8.437-16.4-1.7-4.168h-.068v20.2h-3.219V86.543h2.881l9.217,18.3,1.355,3.219h.069l1.355-3.219,9.184-18.3h2.881Z" fill="#d3033d"/><rect x="2" y="5" width="5" height="109" fill="#290403"/></svg>