<svg xmlns="http://www.w3.org/2000/svg" viewBox="0 0 70.049 76.701"><title>open-materials-small</title><polygon points="19.546 32.38 35.024 38.685 50.505 32.38 35.024 26.072 19.546 32.38" fill="#f99b1c"/><path d="M63.881,14.567,41.193,1.471A12.619,12.619,0,0,0,35.023,0a12.608,12.608,0,0,0-6.168,1.471L6.168,14.567A13.686,13.686,0,0,0,0,25.251v26.2A13.685,13.685,0,0,0,6.168,62.134l22.688,13.1A12.631,12.631,0,0,0,35.023,76.7a12.626,12.626,0,0,0,6.168-1.468l22.689-13.1a13.685,13.685,0,0,0,6.168-10.685v-26.2A13.686,13.686,0,0,0,63.881,14.567ZM50.5,32.38V47.858l-15.48,6.307L19.546,47.858V32.38l-8.982-3.534,15.481-6.309,8.98,3.535,8.983-3.535,15.478,6.309Z" fill="#f99b1c"/></svg>