<svg xmlns="http://www.w3.org/2000/svg" viewBox="0 0 70.048 76.701"><title>preregistered-small</title><path d="M63.88,14.567,41.191,1.471A12.606,12.606,0,0,0,35.023,0a12.606,12.606,0,0,0-6.168,1.471L6.168,14.567A13.686,13.686,0,0,0,0,25.251v26.2A13.685,13.685,0,0,0,6.168,62.134l22.688,13.1A12.629,12.629,0,0,0,35.023,76.7a12.627,12.627,0,0,0,6.168-1.468l22.688-13.1a13.688,13.688,0,0,0,6.168-10.685v-26.2A13.689,13.689,0,0,0,63.88,14.567Zm-8.958,14.87-24.2,24.194a2.56,2.56,0,0,1-3.609,0L16.461,42.976a2.778,2.778,0,0,1,0-3.609l2.758-2.758a2.559,2.559,0,0,1,3.609,0L27.117,40.9a2.56,2.56,0,0,0,3.609,0L48.554,23.069a2.562,2.562,0,0,1,3.61,0l2.758,2.758A2.562,2.562,0,0,1,54.922,29.438Z" fill="#f04c3e"/></svg>